SplineFontDB: 3.0
FontName: Chivo-Light
FullName: Chivo Light
FamilyName: Chivo
Weight: Light
Copyright: Copyright (c) 2011-2014 by Omnibus-Type (www.omnibus-type.com omnibus.type@gmail.com), with Reserved Font Name 'Chivo'
UComments: "Disclaimer+AAoA +AAoA-Omnibus-Type give no warranty in relation to this font, and you use this+AAoA-at your own risk.+AAoA +AAoA-Omnibus-Type shall not be liable for any direct, indirect, consequential, or incidental damages (including damages from loss of business profits, business interruption, loss of business information, and the like) arising out of the use of or inability to use the fonts.+AAoA +AAoA +AAoA-If you have further questions, please contact us:+AAoA-omnibus.type@gmail.com" 

StartChar: .notdef
Encoding: 65536 -1 0
Width: 500
Flags: MW
HStem: 0 50<80 420 80 500> 650 50<80 80 80 420>
VStem: 0 50<95 605 95 700> 450 50<95 605 605 605>
LayerCount: 2
Fore
SplineSet
500 700 m 1,0,-1
 500 0 l 1,1,-1
 0 0 l 1,2,-1
 0 700 l 1,3,-1
 500 700 l 1,0,-1
80 650 m 1,4,-1
 250 395 l 1,5,-1
 420 650 l 1,6,-1
 80 650 l 1,4,-1
220 350 m 1,7,-1
 50 605 l 1,8,-1
 50 95 l 1,9,-1
 220 350 l 1,7,-1
450 605 m 1,10,-1
 280 350 l 1,11,-1
 450 95 l 1,12,-1
 450 605 l 1,10,-1
250 305 m 1,13,-1
 80 50 l 1,14,-1
 420 50 l 1,15,-1
 250 305 l 1,13,-1
EndSplineSet
EndChar

StartChar: A
Encoding: 65 65 1
Width: 652
GlyphClass: 2
Flags: MW
HStem: 0 21G<4 60 4 4 563 563 563 622> 170 49<130 472 150 472 150 492> 612 74<309 313 309 309> 666 20G<288 338 338 338>
VStem: 4 618<0 0>
LayerCount: 2
Fore
SplineSet
130 170 m 1,0,-1
 60 0 l 1,1,-1
 4 0 l 1,2,-1
 288 686 l 1,3,-1
 338 686 l 1,4,-1
 622 0 l 1,5,-1
 563 0 l 1,6,-1
 492 170 l 1,7,-1
 130 170 l 1,0,-1
472 219 m 1,8,-1
 313 612 l 1,9,-1
 309 612 l 1,10,-1
 150 219 l 1,11,-1
 472 219 l 1,8,-1
EndSplineSet
Substitution2: "Single Substitution lookup 5 subtable" ordfeminine
Substitution2: "'aalt' Access All Alternates lookup 0 subtable" ordfeminine
Position2: "'cpsp' Capital Spacing lookup 0 subtable" dx=5 dy=0 dh=10 dv=0
EndChar

StartChar: Aacute
Encoding: 193 193 2
Width: 652
GlyphClass: 2
Flags: MW
HStem: 0 21G<4 60 4 4 563 563 563 622> 170 49<130 472 150 472 150 492> 612 74<309 313 309 309> 666 20G<288 338 338 338> 750 145<297 458 297 458>
VStem: 4 618<0 0>
LayerCount: 2
Fore
SplineSet
393 895 m 1,0,-1
 458 895 l 1,1,-1
 458 892 l 1,2,-1
 347 750 l 1,3,-1
 297 750 l 1,4,-1
 393 895 l 1,0,-1
130 170 m 1,5,-1
 60 0 l 1,6,-1
 4 0 l 1,7,-1
 288 686 l 1,8,-1
 338 686 l 1,9,-1
 622 0 l 1,10,-1
 563 0 l 1,11,-1
 492 170 l 1,12,-1
 130 170 l 1,5,-1
472 219 m 1,13,-1
 313 612 l 1,14,-1
 309 612 l 1,15,-1
 150 219 l 1,16,-1
 472 219 l 1,13,-1
EndSplineSet
Position2: "'cpsp' Capital Spacing lookup 0 subtable" dx=5 dy=0 dh=10 dv=0
EndChar

StartChar: Abreve
Encoding: 258 258 3
Width: 652
GlyphClass: 2
Flags: MW
HStem: 0 21G<4 60 4 4 563 563 563 622> 170 49<130 472 150 472 150 492> 612 74<309 313 309 309> 666 20G<288 338 338 338> 788 49<279.5 344.5 279.5 365.5>
VStem: 4 618<0 0>
LayerCount: 2
Fore
SplineSet
312 788 m 128,-1,1
 235 788 235 788 177.5 827.5 c 128,-1,2
 120 867 120 867 120 912 c 1,3,-1
 176 912 l 1,4,5
 188 876 188 876 224.5 856.5 c 128,-1,6
 261 837 261 837 311.5 837 c 0,7,8
 362 837 362 837 399.5 856.5 c 128,-1,9
 437 876 437 876 449 912 c 1,10,-1
 505 912 l 1,11,12
 505 867 505 867 447 827.5 c 128,-1,0
 389 788 389 788 312 788 c 128,-1,1
130 170 m 1,13,-1
 60 0 l 1,14,-1
 4 0 l 1,15,-1
 288 686 l 1,16,-1
 338 686 l 1,17,-1
 622 0 l 1,18,-1
 563 0 l 1,19,-1
 492 170 l 1,20,-1
 130 170 l 1,13,-1
472 219 m 1,21,-1
 313 612 l 1,22,-1
 309 612 l 1,23,-1
 150 219 l 1,24,-1
 472 219 l 1,21,-1
EndSplineSet
EndChar

StartChar: Acircumflex
Encoding: 194 194 4
Width: 652
GlyphClass: 2
Flags: MW
HStem: 0 21G<4 60 4 4 563 563 563 622> 170 49<130 472 150 472 150 492> 612 74<309 313 309 309> 666 20G<288 338 338 338> 750 145<151 343 151 343 285 477 285 417>
VStem: 4 618<0 0>
LayerCount: 2
Fore
SplineSet
343 895 m 1,0,-1
 477 750 l 1,1,-1
 417 750 l 1,2,-1
 314 847 l 1,3,-1
 211 750 l 1,4,-1
 151 750 l 1,5,-1
 285 895 l 1,6,-1
 343 895 l 1,0,-1
130 170 m 1,7,-1
 60 0 l 1,8,-1
 4 0 l 1,9,-1
 288 686 l 1,10,-1
 338 686 l 1,11,-1
 622 0 l 1,12,-1
 563 0 l 1,13,-1
 492 170 l 1,14,-1
 130 170 l 1,7,-1
472 219 m 1,15,-1
 313 612 l 1,16,-1
 309 612 l 1,17,-1
 150 219 l 1,18,-1
 472 219 l 1,15,-1
EndSplineSet
Position2: "'cpsp' Capital Spacing lookup 0 subtable" dx=5 dy=0 dh=10 dv=0
EndChar

StartChar: Adieresis
Encoding: 196 196 5
Width: 652
GlyphClass: 2
Flags: MW
HStem: 0 21G<4 60 4 4 563 563 563 622> 170 49<130 472 150 472 150 492> 612 74<309 313 309 309> 666 20G<288 338 338 338> 750 69<194 259 194 259 370 435>
VStem: 194 65<750 819 750 819> 370 65<750 819 750 819>
LayerCount: 2
Fore
SplineSet
259 819 m 1,0,-1
 259 750 l 1,1,-1
 194 750 l 1,2,-1
 194 819 l 1,3,-1
 259 819 l 1,0,-1
435 819 m 1,4,-1
 435 750 l 1,5,-1
 370 750 l 1,6,-1
 370 819 l 1,7,-1
 435 819 l 1,4,-1
130 170 m 1,8,-1
 60 0 l 1,9,-1
 4 0 l 1,10,-1
 288 686 l 1,11,-1
 338 686 l 1,12,-1
 622 0 l 1,13,-1
 563 0 l 1,14,-1
 492 170 l 1,15,-1
 130 170 l 1,8,-1
472 219 m 1,16,-1
 313 612 l 1,17,-1
 309 612 l 1,18,-1
 150 219 l 1,19,-1
 472 219 l 1,16,-1
EndSplineSet
Position2: "'cpsp' Capital Spacing lookup 0 subtable" dx=5 dy=0 dh=10 dv=0
EndChar

StartChar: Agrave
Encoding: 192 192 6
Width: 652
GlyphClass: 2
Flags: MW
HStem: 0 21G<4 60 4 4 563 563 563 622> 170 49<130 472 150 472 150 492> 612 74<309 313 309 309> 666 20G<288 338 338 338> 750 145<189 350 189 300>
VStem: 4 618<0 0>
LayerCount: 2
Fore
SplineSet
189 892 m 1,0,-1
 189 895 l 1,1,-1
 254 895 l 1,2,-1
 350 750 l 1,3,-1
 300 750 l 1,4,-1
 189 892 l 1,0,-1
130 170 m 1,5,-1
 60 0 l 1,6,-1
 4 0 l 1,7,-1
 288 686 l 1,8,-1
 338 686 l 1,9,-1
 622 0 l 1,10,-1
 563 0 l 1,11,-1
 492 170 l 1,12,-1
 130 170 l 1,5,-1
472 219 m 1,13,-1
 313 612 l 1,14,-1
 309 612 l 1,15,-1
 150 219 l 1,16,-1
 472 219 l 1,13,-1
EndSplineSet
Position2: "'cpsp' Capital Spacing lookup 0 subtable" dx=5 dy=0 dh=10 dv=0
EndChar

StartChar: Amacron
Encoding: 256 256 7
Width: 652
GlyphClass: 2
Flags: MW
HStem: 0 21G<4 60 4 4 563 563 563 622> 170 49<130 472 150 472 150 492> 612 74<309 313 309 309> 666 20G<288 338 338 338> 867 44<154 472 154 472>
VStem: 4 618<0 0>
LayerCount: 2
Fore
SplineSet
154 911 m 1,0,-1
 472 911 l 1,1,-1
 472 867 l 1,2,-1
 154 867 l 1,3,-1
 154 911 l 1,0,-1
130 170 m 1,4,-1
 60 0 l 1,5,-1
 4 0 l 1,6,-1
 288 686 l 1,7,-1
 338 686 l 1,8,-1
 622 0 l 1,9,-1
 563 0 l 1,10,-1
 492 170 l 1,11,-1
 130 170 l 1,4,-1
472 219 m 1,12,-1
 313 612 l 1,13,-1
 309 612 l 1,14,-1
 150 219 l 1,15,-1
 472 219 l 1,12,-1
EndSplineSet
EndChar

StartChar: Aogonek
Encoding: 260 260 8
Width: 652
GlyphClass: 2
Flags: MW
HStem: -143 43<601.5 622.5> 0 21G<4 60 4 4 563 565 563 563 615 615 615 622> 170 49<150 472 150 492 130 472> 612 74<309 313 309 309> 666 20G<288 338 338 338>
VStem: 511 57<-75.5 -55>
LayerCount: 2
Fore
SplineSet
615 0 m 1,0,1
 568 -31.3333333333 568 -31.3333333333 568 -60 c 0,2,3
 568 -100 568 -100 612 -100 c 0,4,5
 637 -100 637 -100 679 -86 c 1,6,-1
 692 -119 l 1,7,8
 653 -143 653 -143 610.5 -143 c 128,-1,9
 568 -143 568 -143 539.5 -126 c 128,-1,10
 511 -109 511 -109 511 -72.5 c 128,-1,11
 511 -36 511 -36 565 0 c 1,12,-1
 563 0 l 1,13,-1
 492 170 l 1,14,-1
 130 170 l 1,15,-1
 60 0 l 1,16,-1
 4 0 l 1,17,-1
 288 686 l 1,18,-1
 338 686 l 1,19,-1
 622 0 l 1,20,-1
 615 0 l 1,0,1
472 219 m 1,21,-1
 313 612 l 1,22,-1
 309 612 l 1,23,-1
 150 219 l 1,24,-1
 472 219 l 1,21,-1
EndSplineSet
EndChar

StartChar: Aring
Encoding: 197 197 9
Width: 652
GlyphClass: 2
Flags: MW
HStem: 0 21G<4 60 4 4 563 563 563 622> 170 49<130 472 150 472 150 492> 612 74<309 313 309 309> 666 20G<288 338 338 338> 720 36<296.5 332 296.5 342> 885 36<296 331.5>
VStem: 213 36<802 838 802 848> 379 36<802.5 838.5>
LayerCount: 2
Fore
SplineSet
385.5 891.5 m 128,-1,1
 415 862 415 862 415 820.5 c 128,-1,2
 415 779 415 779 385.5 749.5 c 128,-1,3
 356 720 356 720 314 720 c 128,-1,4
 272 720 272 720 242.5 749 c 128,-1,5
 213 778 213 778 213 820 c 128,-1,6
 213 862 213 862 242.5 891.5 c 128,-1,7
 272 921 272 921 314 921 c 128,-1,0
 356 921 356 921 385.5 891.5 c 128,-1,1
360 775 m 128,-1,9
 379 794 379 794 379 820.5 c 128,-1,10
 379 847 379 847 360 866 c 128,-1,11
 341 885 341 885 314 885 c 128,-1,12
 287 885 287 885 268 866 c 128,-1,13
 249 847 249 847 249 820 c 128,-1,14
 249 793 249 793 268 774.5 c 128,-1,15
 287 756 287 756 314 756 c 128,-1,8
 341 756 341 756 360 775 c 128,-1,9
130 170 m 1,16,-1
 60 0 l 1,17,-1
 4 0 l 1,18,-1
 288 686 l 1,19,-1
 338 686 l 1,20,-1
 622 0 l 1,21,-1
 563 0 l 1,22,-1
 492 170 l 1,23,-1
 130 170 l 1,16,-1
472 219 m 1,24,-1
 313 612 l 1,25,-1
 309 612 l 1,26,-1
 150 219 l 1,27,-1
 472 219 l 1,24,-1
EndSplineSet
Position2: "'cpsp' Capital Spacing lookup 0 subtable" dx=5 dy=0 dh=10 dv=0
EndChar

StartChar: Atilde
Encoding: 195 195 10
Width: 652
GlyphClass: 2
Flags: MW
HStem: 0 21G<4 60 4 4 563 563 563 622> 170 49<130 472 150 472 150 492> 612 74<309 313 309 309> 666 20G<288 338 338 338> 750 50<373 416.5 373 432.5> 782 50<209.5 253>
VStem: 4 618<0 0>
LayerCount: 2
Fore
SplineSet
457 832 m 1,0,-1
 494 832 l 1,1,2
 494 801 494 801 470 775.5 c 128,-1,3
 446 750 446 750 403 750 c 0,4,5
 360 750 360 750 306 766 c 128,-1,6
 252 782 252 782 226 782 c 0,7,8
 179 782 179 782 169 750 c 1,9,-1
 132 750 l 1,10,11
 132 780 132 780 156 806 c 128,-1,12
 180 832 180 832 223 832 c 0,13,14
 266 832 266 832 320 816 c 128,-1,15
 374 800 374 800 400 800 c 0,16,17
 447 800 447 800 457 832 c 1,0,-1
130 170 m 1,18,-1
 60 0 l 1,19,-1
 4 0 l 1,20,-1
 288 686 l 1,21,-1
 338 686 l 1,22,-1
 622 0 l 1,23,-1
 563 0 l 1,24,-1
 492 170 l 1,25,-1
 130 170 l 1,18,-1
472 219 m 1,26,-1
 313 612 l 1,27,-1
 309 612 l 1,28,-1
 150 219 l 1,29,-1
 472 219 l 1,26,-1
EndSplineSet
Position2: "'cpsp' Capital Spacing lookup 0 subtable" dx=5 dy=0 dh=10 dv=0
EndChar

StartChar: AE
Encoding: 198 198 11
Width: 983
GlyphClass: 2
Flags: MW
HStem: 0 48<564 904 608 904 608 913> 170 49<190 504 190 517 163 504> 326 48<532 852 532 532> 638 48<447 891 447 447>
VStem: 7 906<0 0>
LayerCount: 2
Fore
SplineSet
517 170 m 1,0,-1
 163 170 l 1,1,-1
 69 0 l 1,2,-1
 7 0 l 1,3,-1
 388 686 l 1,4,-1
 903 686 l 1,5,-1
 891 638 l 1,6,-1
 447 638 l 1,7,-1
 519 374 l 1,8,-1
 852 374 l 1,9,-1
 852 326 l 1,10,-1
 532 326 l 1,11,-1
 608 48 l 1,12,-1
 904 48 l 1,13,-1
 913 0 l 1,14,-1
 564 0 l 1,15,-1
 517 170 l 1,0,-1
504 219 m 1,16,-1
 401 608 l 1,17,-1
 398 607 l 1,18,-1
 190 219 l 1,19,-1
 504 219 l 1,16,-1
EndSplineSet
Position2: "'cpsp' Capital Spacing lookup 0 subtable" dx=5 dy=0 dh=10 dv=0
EndChar

StartChar: B
Encoding: 66 66 12
Width: 651
GlyphClass: 2
Flags: MW
HStem: 0 48<146 366 366 372> 326 48<146 356 356 366 146 356> 638 48<146 356 146 146>
VStem: 92 54<48 48 48 326 374 638> 491 55<468.5 543.5> 508 54<147 225>
LayerCount: 2
Fore
SplineSet
92 686 m 1,0,-1
 366 686 l 2,1,2
 440 686 440 686 493 637 c 128,-1,3
 546 588 546 588 546 518.5 c 128,-1,4
 546 449 546 449 510 410 c 128,-1,5
 474 371 474 371 425 359 c 1,6,-1
 425 353 l 1,7,8
 484.663551402 344.476635514 484.663551402 344.476635514 524.5 299.5 c 0,9,10
 562 257.161290323 562 257.161290323 562 182.080645161 c 128,-1,11
 562 107 562 107 506.5 53.5 c 128,-1,12
 451 0 451 0 372 0 c 2,13,-1
 92 0 l 1,14,-1
 92 686 l 1,0,-1
146 374 m 1,15,-1
 356 374 l 2,16,17
 413 374 413 374 452 412 c 128,-1,18
 491 450 491 450 491 506 c 128,-1,19
 491 562 491 562 452 600 c 128,-1,20
 413 638 413 638 356 638 c 2,21,-1
 146 638 l 1,22,-1
 146 374 l 1,15,-1
146 48 m 1,23,-1
 366 48 l 2,24,25
 425 48 425 48 466.5 88 c 128,-1,26
 508 128 508 128 508 186 c 128,-1,27
 508 244 508 244 466.5 285 c 128,-1,28
 425 326 425 326 366 326 c 2,29,-1
 146 326 l 1,30,-1
 146 48 l 1,23,-1
EndSplineSet
Position2: "'cpsp' Capital Spacing lookup 0 subtable" dx=5 dy=0 dh=10 dv=0
EndChar

StartChar: C
Encoding: 67 67 13
Width: 663
GlyphClass: 2
Flags: MW
HStem: -10 48<261.5 372.5 261.5 386> 648 48<261.5 372.5>
VStem: 62 54<330 356 356 368 204.5 493.5> 521 53<166 251 434 520>
AnchorPoint: "Bottom" 332 0 basechar 0
LayerCount: 2
Fore
SplineSet
521 251 m 1,0,-1
 574 251 l 1,1,2
 574 103.581081081 574 103.581081081 496 43.5 c 0,3,4
 426.543859649 -10 426.543859649 -10 320 -10 c 0,5,6
 261 -10 261 -10 217 5 c 128,-1,7
 173 20 173 20 136.5 56.5 c 0,8,9
 62 131 62 131 62 330 c 2,10,-1
 62 356 l 2,11,12
 62 555 62 555 136.5 629.5 c 0,13,14
 173 666 173 666 217 681 c 128,-1,15
 261 696 261 696 320 696 c 0,16,17
 574 696 574 696 574 434 c 1,18,-1
 521 434 l 1,19,20
 521 648 521 648 320 648 c 0,21,22
 222 648 222 648 169 587.5 c 128,-1,23
 116 527 116 527 116 368 c 2,24,-1
 116 318 l 2,25,26
 116 159 116 159 169 98.5 c 128,-1,27
 222 38 222 38 320 38 c 0,28,29
 521 38 521 38 521 251 c 1,0,-1
EndSplineSet
Position2: "'cpsp' Capital Spacing lookup 0 subtable" dx=5 dy=0 dh=10 dv=0
EndChar

StartChar: Cacute
Encoding: 262 262 14
Width: 663
GlyphClass: 2
Flags: MW
HStem: -10 48<261.5 372.5 261.5 386> 648 48<261.5 372.5> 750 145<301 462 301 462>
VStem: 62 54<330 356 356 368 204.5 493.5> 521 53<166 251 434 520>
AnchorPoint: "Bottom" 332 0 basechar 0
LayerCount: 2
Fore
SplineSet
397 895 m 1,0,-1
 462 895 l 1,1,-1
 462 892 l 1,2,-1
 351 750 l 1,3,-1
 301 750 l 1,4,-1
 397 895 l 1,0,-1
521 251 m 1,5,-1
 574 251 l 1,6,7
 574 103.581081081 574 103.581081081 496 43.5 c 0,8,9
 426.543859649 -10 426.543859649 -10 320 -10 c 0,10,11
 261 -10 261 -10 217 5 c 128,-1,12
 173 20 173 20 136.5 56.5 c 0,13,14
 62 131 62 131 62 330 c 2,15,-1
 62 356 l 2,16,17
 62 555 62 555 136.5 629.5 c 0,18,19
 173 666 173 666 217 681 c 128,-1,20
 261 696 261 696 320 696 c 0,21,22
 574 696 574 696 574 434 c 1,23,-1
 521 434 l 1,24,25
 521 648 521 648 320 648 c 0,26,27
 222 648 222 648 169 587.5 c 128,-1,28
 116 527 116 527 116 368 c 2,29,-1
 116 318 l 2,30,31
 116 159 116 159 169 98.5 c 128,-1,32
 222 38 222 38 320 38 c 0,33,34
 521 38 521 38 521 251 c 1,5,-1
EndSplineSet
EndChar

StartChar: Ccaron
Encoding: 268 268 15
Width: 663
GlyphClass: 2
Flags: MW
HStem: -10 48<261.5 372.5 261.5 386> 648 48<261.5 372.5> 750 145<169 361 169 303>
VStem: 62 54<330 356 356 368 204.5 493.5> 521 53<166 251 434 520>
AnchorPoint: "Bottom" 332 0 basechar 0
LayerCount: 2
Fore
SplineSet
229 895 m 1,0,-1
 332 798 l 1,1,-1
 435 895 l 1,2,-1
 495 895 l 1,3,-1
 361 750 l 1,4,-1
 303 750 l 1,5,-1
 169 895 l 1,6,-1
 229 895 l 1,0,-1
521 251 m 1,7,-1
 574 251 l 1,8,9
 574 103.581081081 574 103.581081081 496 43.5 c 0,10,11
 426.543859649 -10 426.543859649 -10 320 -10 c 0,12,13
 261 -10 261 -10 217 5 c 128,-1,14
 173 20 173 20 136.5 56.5 c 0,15,16
 62 131 62 131 62 330 c 2,17,-1
 62 356 l 2,18,19
 62 555 62 555 136.5 629.5 c 0,20,21
 173 666 173 666 217 681 c 128,-1,22
 261 696 261 696 320 696 c 0,23,24
 574 696 574 696 574 434 c 1,25,-1
 521 434 l 1,26,27
 521 648 521 648 320 648 c 0,28,29
 222 648 222 648 169 587.5 c 128,-1,30
 116 527 116 527 116 368 c 2,31,-1
 116 318 l 2,32,33
 116 159 116 159 169 98.5 c 128,-1,34
 222 38 222 38 320 38 c 0,35,36
 521 38 521 38 521 251 c 1,7,-1
EndSplineSet
EndChar

StartChar: Ccedilla
Encoding: 199 199 16
Width: 663
GlyphClass: 2
Flags: MW
HStem: -197 46<286.5 308.5 273.5 322> -184 21G<221 221> -51 34<286 308 286 311> -10 48<261.5 372.5 261.5 386> 648 48<261.5 372.5>
VStem: 62 54<330 356 356 368 204.5 493.5> 366 51<-118.5 -81.5> 521 53<166 251 434 520>
LayerCount: 2
Fore
SplineSet
521 251 m 1,0,-1
 574 251 l 1,1,2
 574 103.581081081 574 103.581081081 496 43.5 c 0,3,4
 426.543859649 -10 426.543859649 -10 320 -10 c 0,5,6
 261 -10 261 -10 217 5 c 128,-1,7
 173 20 173 20 136.5 56.5 c 0,8,9
 62 131 62 131 62 330 c 2,10,-1
 62 356 l 2,11,12
 62 555 62 555 136.5 629.5 c 0,13,14
 173 666 173 666 217 681 c 128,-1,15
 261 696 261 696 320 696 c 0,16,17
 574 696 574 696 574 434 c 1,18,-1
 521 434 l 1,19,20
 521 648 521 648 320 648 c 0,21,22
 222 648 222 648 169 587.5 c 128,-1,23
 116 527 116 527 116 368 c 2,24,-1
 116 318 l 2,25,26
 116 159 116 159 169 98.5 c 128,-1,27
 222 38 222 38 320 38 c 0,28,29
 521 38 521 38 521 251 c 1,0,-1
221 -184 m 1,30,-1
 221 -138 l 1,31,32
 245 -151 245 -151 290 -151 c 0,33,34
 366 -151 366 -151 366 -97 c 0,35,36
 366 -75 366 -75 348.5 -63 c 128,-1,37
 331 -51 331 -51 308 -51 c 2,38,-1
 286 -51 l 1,39,-1
 286 -17 l 1,40,-1
 311 -17 l 2,41,42
 417 -17 417 -17 417 -106 c 0,43,44
 417 -155 417 -155 380.5 -176 c 128,-1,45
 344 -197 344 -197 300 -197 c 128,-1,46
 256 -197 256 -197 221 -184 c 1,30,-1
EndSplineSet
Position2: "'cpsp' Capital Spacing lookup 0 subtable" dx=5 dy=0 dh=10 dv=0
EndChar

StartChar: D
Encoding: 68 68 17
Width: 675
GlyphClass: 2
Flags: MW
HStem: 0 48<146 312 146 312> 638 48<146 312 146 146>
VStem: 92 54<48 48 48 638> 524 54<322 331 331 356 202.5 365 202.5 471>
LayerCount: 2
Fore
SplineSet
92 686 m 1,0,-1
 312 686 l 2,1,2
 429.708333333 686 429.708333333 686 499.5 619 c 0,3,4
 578 543.64 578 543.64 578 356 c 2,5,-1
 578 331 l 2,6,7
 578 0 578 0 312 0 c 2,8,-1
 92 0 l 1,9,-1
 92 686 l 1,0,-1
146 48 m 1,10,-1
 312 48 l 2,11,12
 405.152542373 48 405.152542373 48 461.5 102.5 c 0,13,14
 524 162.950819672 524 162.950819672 524 322 c 2,15,-1
 524 365 l 2,16,17
 524 638 524 638 312 638 c 2,18,-1
 146 638 l 1,19,-1
 146 48 l 1,10,-1
EndSplineSet
Position2: "'cpsp' Capital Spacing lookup 0 subtable" dx=5 dy=0 dh=10 dv=0
EndChar

StartChar: Eth
Encoding: 208 208 18
Width: 681
GlyphClass: 2
Flags: MW
HStem: 0 48<159 325 159 325> 319 48<5 105 5 105 159 331> 638 48<159 325 159 159>
VStem: 105 54<48 48 48 319 367 638> 537 54<322 331 331 356 202.5 365 202.5 471>
LayerCount: 2
Fore
SplineSet
105 367 m 1,0,-1
 105 686 l 1,1,-1
 325 686 l 2,2,3
 442.708333333 686 442.708333333 686 512.5 619 c 0,4,5
 591 543.64 591 543.64 591 356 c 2,6,-1
 591 331 l 2,7,8
 591 0 591 0 325 0 c 2,9,-1
 105 0 l 1,10,-1
 105 319 l 1,11,-1
 5 319 l 1,12,-1
 5 367 l 1,13,-1
 105 367 l 1,0,-1
159 48 m 1,14,-1
 325 48 l 2,15,16
 418.152542373 48 418.152542373 48 474.5 102.5 c 0,17,18
 537 162.950819672 537 162.950819672 537 322 c 2,19,-1
 537 365 l 2,20,21
 537 638 537 638 325 638 c 2,22,-1
 159 638 l 1,23,-1
 159 367 l 1,24,-1
 331 367 l 1,25,-1
 331 319 l 1,26,-1
 159 319 l 1,27,-1
 159 48 l 1,14,-1
EndSplineSet
Position2: "'cpsp' Capital Spacing lookup 0 subtable" dx=5 dy=0 dh=10 dv=0
EndChar

StartChar: Dcaron
Encoding: 270 270 19
Width: 675
GlyphClass: 2
Flags: MW
HStem: 0 48<146 312 146 312> 638 48<146 312 146 146> 750 145<125 317 125 259>
VStem: 92 54<48 48 48 638> 524 54<322 331 331 356 202.5 365 202.5 471>
LayerCount: 2
Fore
SplineSet
185 895 m 1,0,-1
 288 798 l 1,1,-1
 391 895 l 1,2,-1
 451 895 l 1,3,-1
 317 750 l 1,4,-1
 259 750 l 1,5,-1
 125 895 l 1,6,-1
 185 895 l 1,0,-1
92 686 m 1,7,-1
 312 686 l 2,8,9
 429.708333333 686 429.708333333 686 499.5 619 c 0,10,11
 578 543.64 578 543.64 578 356 c 2,12,-1
 578 331 l 2,13,14
 578 0 578 0 312 0 c 2,15,-1
 92 0 l 1,16,-1
 92 686 l 1,7,-1
146 48 m 1,17,-1
 312 48 l 2,18,19
 405.152542373 48 405.152542373 48 461.5 102.5 c 0,20,21
 524 162.950819672 524 162.950819672 524 322 c 2,22,-1
 524 365 l 2,23,24
 524 638 524 638 312 638 c 2,25,-1
 146 638 l 1,26,-1
 146 48 l 1,17,-1
EndSplineSet
EndChar

StartChar: Dcroat
Encoding: 272 272 20
Width: 681
GlyphClass: 2
Flags: MW
HStem: 0 48<159 325 159 325> 319 48<5 105 5 105 159 331> 638 48<159 325 159 159>
VStem: 105 54<48 48 48 319 367 638> 537 54<322 331 331 356 202.5 365 202.5 471>
LayerCount: 2
Fore
SplineSet
105 367 m 1,0,-1
 105 686 l 1,1,-1
 325 686 l 2,2,3
 442.708333333 686 442.708333333 686 512.5 619 c 0,4,5
 591 543.64 591 543.64 591 356 c 2,6,-1
 591 331 l 2,7,8
 591 0 591 0 325 0 c 2,9,-1
 105 0 l 1,10,-1
 105 319 l 1,11,-1
 5 319 l 1,12,-1
 5 367 l 1,13,-1
 105 367 l 1,0,-1
159 48 m 1,14,-1
 325 48 l 2,15,16
 418.152542373 48 418.152542373 48 474.5 102.5 c 0,17,18
 537 162.950819672 537 162.950819672 537 322 c 2,19,-1
 537 365 l 2,20,21
 537 638 537 638 325 638 c 2,22,-1
 159 638 l 1,23,-1
 159 367 l 1,24,-1
 331 367 l 1,25,-1
 331 319 l 1,26,-1
 159 319 l 1,27,-1
 159 48 l 1,14,-1
EndSplineSet
EndChar

StartChar: E
Encoding: 69 69 21
Width: 593
GlyphClass: 2
Flags: MW
HStem: 0 48<146 515 146 526> 326 48<146 465 146 465> 638 48<146 506 146 146>
VStem: 92 54<48 326 374 638>
AnchorPoint: "Bottom" 297 0 basechar 0
LayerCount: 2
Fore
SplineSet
92 686 m 1,0,-1
 516 686 l 1,1,-1
 506 638 l 1,2,-1
 146 638 l 1,3,-1
 146 374 l 1,4,-1
 465 374 l 1,5,-1
 465 326 l 1,6,-1
 146 326 l 1,7,-1
 146 48 l 1,8,-1
 515 48 l 1,9,-1
 526 0 l 1,10,-1
 92 0 l 1,11,-1
 92 686 l 1,0,-1
EndSplineSet
Position2: "'cpsp' Capital Spacing lookup 0 subtable" dx=5 dy=0 dh=10 dv=0
EndChar

StartChar: Eacute
Encoding: 201 201 22
Width: 593
GlyphClass: 2
Flags: MW
HStem: 0 48<146 515 146 526> 326 48<146 465 146 465> 638 48<146 506 146 146> 750 145<283 444 283 444>
VStem: 92 54<48 326 374 638>
LayerCount: 2
Fore
SplineSet
379 895 m 1,0,-1
 444 895 l 1,1,-1
 444 892 l 1,2,-1
 333 750 l 1,3,-1
 283 750 l 1,4,-1
 379 895 l 1,0,-1
92 686 m 1,5,-1
 516 686 l 1,6,-1
 506 638 l 1,7,-1
 146 638 l 1,8,-1
 146 374 l 1,9,-1
 465 374 l 1,10,-1
 465 326 l 1,11,-1
 146 326 l 1,12,-1
 146 48 l 1,13,-1
 515 48 l 1,14,-1
 526 0 l 1,15,-1
 92 0 l 1,16,-1
 92 686 l 1,5,-1
EndSplineSet
Position2: "'cpsp' Capital Spacing lookup 0 subtable" dx=5 dy=0 dh=10 dv=0
EndChar

StartChar: Ecaron
Encoding: 282 282 23
Width: 593
GlyphClass: 2
Flags: MW
HStem: 0 48<146 515 146 526> 326 48<146 465 146 465> 638 48<146 506 146 146> 750 145<134 326 134 268>
VStem: 92 54<48 326 374 638>
AnchorPoint: "Bottom" 297 0 basechar 0
LayerCount: 2
Fore
SplineSet
194 895 m 1,0,-1
 297 798 l 1,1,-1
 400 895 l 1,2,-1
 460 895 l 1,3,-1
 326 750 l 1,4,-1
 268 750 l 1,5,-1
 134 895 l 1,6,-1
 194 895 l 1,0,-1
92 686 m 1,7,-1
 516 686 l 1,8,-1
 506 638 l 1,9,-1
 146 638 l 1,10,-1
 146 374 l 1,11,-1
 465 374 l 1,12,-1
 465 326 l 1,13,-1
 146 326 l 1,14,-1
 146 48 l 1,15,-1
 515 48 l 1,16,-1
 526 0 l 1,17,-1
 92 0 l 1,18,-1
 92 686 l 1,7,-1
EndSplineSet
EndChar

StartChar: Ecircumflex
Encoding: 202 202 24
Width: 593
GlyphClass: 2
Flags: MW
HStem: 0 48<146 515 146 526> 326 48<146 465 146 465> 638 48<146 506 146 146> 750 145<144 336 144 336 278 470 278 410>
VStem: 92 54<48 326 374 638>
LayerCount: 2
Fore
SplineSet
336 895 m 1,0,-1
 470 750 l 1,1,-1
 410 750 l 1,2,-1
 307 847 l 1,3,-1
 204 750 l 1,4,-1
 144 750 l 1,5,-1
 278 895 l 1,6,-1
 336 895 l 1,0,-1
92 686 m 1,7,-1
 516 686 l 1,8,-1
 506 638 l 1,9,-1
 146 638 l 1,10,-1
 146 374 l 1,11,-1
 465 374 l 1,12,-1
 465 326 l 1,13,-1
 146 326 l 1,14,-1
 146 48 l 1,15,-1
 515 48 l 1,16,-1
 526 0 l 1,17,-1
 92 0 l 1,18,-1
 92 686 l 1,7,-1
EndSplineSet
Position2: "'cpsp' Capital Spacing lookup 0 subtable" dx=5 dy=0 dh=10 dv=0
EndChar

StartChar: Edieresis
Encoding: 203 203 25
Width: 593
GlyphClass: 2
Flags: MW
HStem: 0 48<146 515 146 526> 326 48<146 465 146 465> 638 48<146 506 146 146> 750 69<182 247 182 247 358 423>
VStem: 92 54<48 326 374 638> 182 65<750 819 750 819> 358 65<750 819 750 819>
LayerCount: 2
Fore
SplineSet
247 819 m 1,0,-1
 247 750 l 1,1,-1
 182 750 l 1,2,-1
 182 819 l 1,3,-1
 247 819 l 1,0,-1
423 819 m 1,4,-1
 423 750 l 1,5,-1
 358 750 l 1,6,-1
 358 819 l 1,7,-1
 423 819 l 1,4,-1
92 686 m 1,8,-1
 516 686 l 1,9,-1
 506 638 l 1,10,-1
 146 638 l 1,11,-1
 146 374 l 1,12,-1
 465 374 l 1,13,-1
 465 326 l 1,14,-1
 146 326 l 1,15,-1
 146 48 l 1,16,-1
 515 48 l 1,17,-1
 526 0 l 1,18,-1
 92 0 l 1,19,-1
 92 686 l 1,8,-1
EndSplineSet
Position2: "'cpsp' Capital Spacing lookup 0 subtable" dx=5 dy=0 dh=10 dv=0
EndChar

StartChar: Edotaccent
Encoding: 278 278 26
Width: 593
GlyphClass: 2
Flags: MW
HStem: 0 48<146 515 146 526> 326 48<146 465 146 465> 638 48<146 506 146 146> 779 132<278.5 314.5>
VStem: 92 54<48 326 374 638> 231 132<827 863 826 863.5>
AnchorPoint: "Bottom" 297 0 basechar 0
LayerCount: 2
Fore
SplineSet
344 891.5 m 128,-1,1
 363 872 363 872 363 844.5 c 128,-1,2
 363 817 363 817 343.5 798 c 128,-1,3
 324 779 324 779 297 779 c 128,-1,4
 270 779 270 779 250.5 798.5 c 128,-1,5
 231 818 231 818 231 845.5 c 128,-1,6
 231 873 231 873 250 892 c 128,-1,7
 269 911 269 911 297 911 c 128,-1,0
 325 911 325 911 344 891.5 c 128,-1,1
92 686 m 1,8,-1
 516 686 l 1,9,-1
 506 638 l 1,10,-1
 146 638 l 1,11,-1
 146 374 l 1,12,-1
 465 374 l 1,13,-1
 465 326 l 1,14,-1
 146 326 l 1,15,-1
 146 48 l 1,16,-1
 515 48 l 1,17,-1
 526 0 l 1,18,-1
 92 0 l 1,19,-1
 92 686 l 1,8,-1
EndSplineSet
EndChar

StartChar: Egrave
Encoding: 200 200 27
Width: 593
GlyphClass: 2
Flags: MW
HStem: 0 48<146 515 146 526> 326 48<146 465 146 465> 638 48<146 506 146 146> 750 145<184 345 184 295>
VStem: 92 54<48 326 374 638>
LayerCount: 2
Fore
SplineSet
184 892 m 1,0,-1
 184 895 l 1,1,-1
 249 895 l 1,2,-1
 345 750 l 1,3,-1
 295 750 l 1,4,-1
 184 892 l 1,0,-1
92 686 m 1,5,-1
 516 686 l 1,6,-1
 506 638 l 1,7,-1
 146 638 l 1,8,-1
 146 374 l 1,9,-1
 465 374 l 1,10,-1
 465 326 l 1,11,-1
 146 326 l 1,12,-1
 146 48 l 1,13,-1
 515 48 l 1,14,-1
 526 0 l 1,15,-1
 92 0 l 1,16,-1
 92 686 l 1,5,-1
EndSplineSet
Position2: "'cpsp' Capital Spacing lookup 0 subtable" dx=5 dy=0 dh=10 dv=0
EndChar

StartChar: Emacron
Encoding: 274 274 28
Width: 593
GlyphClass: 2
Flags: MW
HStem: 0 48<146 515 146 526> 326 48<146 465 146 465> 638 48<146 506 146 146> 867 44<138 456 138 456>
VStem: 92 54<48 326 374 638>
AnchorPoint: "Bottom" 297 0 basechar 0
LayerCount: 2
Fore
SplineSet
138 911 m 1,0,-1
 456 911 l 1,1,-1
 456 867 l 1,2,-1
 138 867 l 1,3,-1
 138 911 l 1,0,-1
92 686 m 1,4,-1
 516 686 l 1,5,-1
 506 638 l 1,6,-1
 146 638 l 1,7,-1
 146 374 l 1,8,-1
 465 374 l 1,9,-1
 465 326 l 1,10,-1
 146 326 l 1,11,-1
 146 48 l 1,12,-1
 515 48 l 1,13,-1
 526 0 l 1,14,-1
 92 0 l 1,15,-1
 92 686 l 1,4,-1
EndSplineSet
EndChar

StartChar: Eogonek
Encoding: 280 280 29
Width: 593
GlyphClass: 2
Flags: MW
HStem: -143 43<498.5 519.5> 0 48<146 462 512 512 512 515 146 526> 326 48<146 465 146 465> 638 48<146 506 146 146>
VStem: 92 54<48 326 374 638> 408 57<-75.5 -55>
AnchorPoint: "Bottom" 297 0 basechar 0
LayerCount: 2
Fore
SplineSet
512 0 m 1,0,1
 465 -31.3333333333 465 -31.3333333333 465 -60 c 0,2,3
 465 -100 465 -100 509 -100 c 0,4,5
 534 -100 534 -100 576 -86 c 1,6,-1
 589 -119 l 1,7,8
 550 -143 550 -143 507.5 -143 c 128,-1,9
 465 -143 465 -143 436.5 -126 c 128,-1,10
 408 -109 408 -109 408 -72.5 c 128,-1,11
 408 -36 408 -36 462 0 c 1,12,-1
 92 0 l 1,13,-1
 92 686 l 1,14,-1
 516 686 l 1,15,-1
 506 638 l 1,16,-1
 146 638 l 1,17,-1
 146 374 l 1,18,-1
 465 374 l 1,19,-1
 465 326 l 1,20,-1
 146 326 l 1,21,-1
 146 48 l 1,22,-1
 515 48 l 1,23,-1
 526 0 l 1,24,-1
 512 0 l 1,0,1
EndSplineSet
EndChar

StartChar: F
Encoding: 70 70 30
Width: 550
GlyphClass: 2
Flags: MW
HStem: 0 21G<92 146 92 92> 326 48<146 439 146 439> 638 48<146 146 146 489>
VStem: 92 54<0 326 374 638>
LayerCount: 2
Fore
SplineSet
146 638 m 1,0,-1
 146 374 l 1,1,-1
 439 374 l 1,2,-1
 439 326 l 1,3,-1
 146 326 l 1,4,-1
 146 0 l 1,5,-1
 92 0 l 1,6,-1
 92 686 l 1,7,-1
 498 686 l 1,8,-1
 489 638 l 1,9,-1
 146 638 l 1,0,-1
EndSplineSet
Position2: "'cpsp' Capital Spacing lookup 0 subtable" dx=5 dy=0 dh=10 dv=0
EndChar

StartChar: G
Encoding: 71 71 31
Width: 677
GlyphClass: 2
Flags: MW
HStem: -10 48<261.5 362.5> 0 21G<543 580 543 543> 303 47<292 574 292 524> 648 48<261.5 371>
VStem: 62 54<330 356 356 368 204.5 493.5> 524 50<251 303 303 303>
AnchorPoint: "Bottom" 339 0 basechar 0
LayerCount: 2
Fore
SplineSet
292 303 m 1,0,-1
 292 350 l 1,1,-1
 574 350 l 1,2,-1
 574 119 l 2,3,4
 574 56 574 56 578.5 14 c 2,5,-1
 580 0 l 1,6,-1
 543 0 l 1,7,8
 535 30 535 30 527 92 c 1,9,10
 469 -10 469 -10 320 -10 c 0,11,12
 261 -10 261 -10 217 5 c 128,-1,13
 173 20 173 20 136.5 56.5 c 0,14,15
 62 131 62 131 62 330 c 2,16,-1
 62 356 l 2,17,18
 62 555 62 555 136.5 629.5 c 0,19,20
 173 666 173 666 217 681 c 128,-1,21
 261 696 261 696 316.5 696 c 128,-1,22
 372 696 372 696 414.5 684.5 c 128,-1,23
 457 673 457 673 494.5 646.5 c 0,24,25
 574 590.32 574 590.32 574 449 c 1,26,-1
 521 449 l 1,27,28
 521 648 521 648 320 648 c 0,29,30
 222 648 222 648 169 587.5 c 128,-1,31
 116 527 116 527 116 368 c 2,32,-1
 116 318 l 2,33,34
 116 159 116 159 169 98.5 c 128,-1,35
 222 38 222 38 320 38 c 0,36,37
 524 38 524 38 524 251 c 2,38,-1
 524 303 l 1,39,-1
 292 303 l 1,0,-1
EndSplineSet
Position2: "'cpsp' Capital Spacing lookup 0 subtable" dx=5 dy=0 dh=10 dv=0
EndChar

StartChar: Gbreve
Encoding: 286 286 32
Width: 677
GlyphClass: 2
Flags: MW
HStem: -10 48<261.5 362.5> 0 21G<543 580 543 543> 303 47<292 574 292 524> 648 48<261.5 371> 788 49<305.5 370.5 305.5 391.5>
VStem: 62 54<330 356 356 368 204.5 493.5> 524 50<251 303 303 303>
AnchorPoint: "Bottom" 339 0 basechar 0
LayerCount: 2
Fore
SplineSet
338 788 m 128,-1,1
 261 788 261 788 203.5 827.5 c 128,-1,2
 146 867 146 867 146 912 c 1,3,-1
 202 912 l 1,4,5
 214 876 214 876 250.5 856.5 c 128,-1,6
 287 837 287 837 337.5 837 c 128,-1,7
 388 837 388 837 425.5 856.5 c 128,-1,8
 463 876 463 876 475 912 c 1,9,-1
 531 912 l 1,10,11
 531 867 531 867 473 827.5 c 128,-1,0
 415 788 415 788 338 788 c 128,-1,1
292 303 m 1,12,-1
 292 350 l 1,13,-1
 574 350 l 1,14,-1
 574 119 l 2,15,16
 574 56 574 56 578.5 14 c 2,17,-1
 580 0 l 1,18,-1
 543 0 l 1,19,20
 535 30 535 30 527 92 c 1,21,22
 469 -10 469 -10 320 -10 c 0,23,24
 261 -10 261 -10 217 5 c 128,-1,25
 173 20 173 20 136.5 56.5 c 0,26,27
 62 131 62 131 62 330 c 2,28,-1
 62 356 l 2,29,30
 62 555 62 555 136.5 629.5 c 0,31,32
 173 666 173 666 217 681 c 128,-1,33
 261 696 261 696 316.5 696 c 128,-1,34
 372 696 372 696 414.5 684.5 c 128,-1,35
 457 673 457 673 494.5 646.5 c 0,36,37
 574 590.32 574 590.32 574 449 c 1,38,-1
 521 449 l 1,39,40
 521 648 521 648 320 648 c 0,41,42
 222 648 222 648 169 587.5 c 128,-1,43
 116 527 116 527 116 368 c 2,44,-1
 116 318 l 2,45,46
 116 159 116 159 169 98.5 c 128,-1,47
 222 38 222 38 320 38 c 0,48,49
 524 38 524 38 524 251 c 2,50,-1
 524 303 l 1,51,-1
 292 303 l 1,12,-1
EndSplineSet
EndChar

StartChar: Gcommaaccent
Encoding: 290 290 33
Width: 677
GlyphClass: 2
Flags: MW
HStem: -149 69<305 329 305 370> -10 48<261.5 362.5> 0 21G<543 580 543 543> 303 47<292 574 292 524> 648 48<261.5 371>
VStem: 62 54<330 356 356 368 204.5 493.5> 305 65<-138 -80 -138 -80 -138 -80> 524 50<251 303 303 303>
AnchorPoint: "Bottom" 339 0 basechar 0
LayerCount: 2
Fore
SplineSet
292 303 m 1,0,-1
 292 350 l 1,1,-1
 574 350 l 1,2,-1
 574 119 l 2,3,4
 574 56 574 56 578.5 14 c 2,5,-1
 580 0 l 1,6,-1
 543 0 l 1,7,8
 535 30 535 30 527 92 c 1,9,10
 469 -10 469 -10 320 -10 c 0,11,12
 261 -10 261 -10 217 5 c 128,-1,13
 173 20 173 20 136.5 56.5 c 0,14,15
 62 131 62 131 62 330 c 2,16,-1
 62 356 l 2,17,18
 62 555 62 555 136.5 629.5 c 0,19,20
 173 666 173 666 217 681 c 128,-1,21
 261 696 261 696 316.5 696 c 128,-1,22
 372 696 372 696 414.5 684.5 c 128,-1,23
 457 673 457 673 494.5 646.5 c 0,24,25
 574 590.32 574 590.32 574 449 c 1,26,-1
 521 449 l 1,27,28
 521 648 521 648 320 648 c 0,29,30
 222 648 222 648 169 587.5 c 128,-1,31
 116 527 116 527 116 368 c 2,32,-1
 116 318 l 2,33,34
 116 159 116 159 169 98.5 c 128,-1,35
 222 38 222 38 320 38 c 0,36,37
 524 38 524 38 524 251 c 2,38,-1
 524 303 l 1,39,-1
 292 303 l 1,0,-1
340 -250 m 1,40,-1
 306 -250 l 1,41,-1
 329 -149 l 1,42,-1
 305 -149 l 1,43,-1
 305 -80 l 1,44,-1
 370 -80 l 1,45,-1
 370 -138 l 1,46,-1
 340 -250 l 1,40,-1
EndSplineSet
EndChar

StartChar: H
Encoding: 72 72 34
Width: 693
GlyphClass: 2
Flags: MW
HStem: 0 21G<92 146 92 92 517 517 517 571> 326 48<146 517 146 517> 666 20G<92 146 146 146 517 571 571 571>
VStem: 92 54<0 326 0 374 374 686> 517 54<0 326 326 326 374 686 0 686>
LayerCount: 2
Fore
SplineSet
517 326 m 1,0,-1
 146 326 l 1,1,-1
 146 0 l 1,2,-1
 92 0 l 1,3,-1
 92 686 l 1,4,-1
 146 686 l 1,5,-1
 146 374 l 1,6,-1
 517 374 l 1,7,-1
 517 686 l 1,8,-1
 571 686 l 1,9,-1
 571 0 l 1,10,-1
 517 0 l 1,11,-1
 517 326 l 1,0,-1
EndSplineSet
Position2: "'cpsp' Capital Spacing lookup 0 subtable" dx=5 dy=0 dh=10 dv=0
EndChar

StartChar: I
Encoding: 73 73 35
Width: 364
GlyphClass: 2
Flags: MW
HStem: 0 49<53 132 186 265 53 132> 637 49<53 132 53 265 186 265 186 186>
VStem: 132 54<49 637 49 637>
LayerCount: 2
Fore
SplineSet
265 686 m 1,0,-1
 265 637 l 1,1,-1
 186 637 l 1,2,-1
 186 49 l 1,3,-1
 265 49 l 1,4,-1
 265 0 l 1,5,-1
 53 0 l 1,6,-1
 53 49 l 1,7,-1
 132 49 l 1,8,-1
 132 637 l 1,9,-1
 53 637 l 1,10,-1
 53 686 l 1,11,-1
 265 686 l 1,0,-1
EndSplineSet
Position2: "'cpsp' Capital Spacing lookup 0 subtable" dx=5 dy=0 dh=10 dv=0
EndChar

StartChar: Iacute
Encoding: 205 205 36
Width: 364
GlyphClass: 2
Flags: MW
HStem: 0 49<53 132 186 265 53 132> 637 49<53 132 53 265 186 265 186 186> 750 145<135 296 135 296>
VStem: 132 54<49 637 49 637>
LayerCount: 2
Fore
SplineSet
231 895 m 1,0,-1
 296 895 l 1,1,-1
 296 892 l 1,2,-1
 185 750 l 1,3,-1
 135 750 l 1,4,-1
 231 895 l 1,0,-1
265 686 m 1,5,-1
 265 637 l 1,6,-1
 186 637 l 1,7,-1
 186 49 l 1,8,-1
 265 49 l 1,9,-1
 265 0 l 1,10,-1
 53 0 l 1,11,-1
 53 49 l 1,12,-1
 132 49 l 1,13,-1
 132 637 l 1,14,-1
 53 637 l 1,15,-1
 53 686 l 1,16,-1
 265 686 l 1,5,-1
EndSplineSet
Position2: "'cpsp' Capital Spacing lookup 0 subtable" dx=5 dy=0 dh=10 dv=0
EndChar

StartChar: Icircumflex
Encoding: 206 206 37
Width: 364
GlyphClass: 2
Flags: MW
HStem: 0 49<30 109 163 242 30 109> 637 49<30 109 30 242 163 242 163 163> 750 145<-27 165 -27 165 107 299 107 239>
VStem: 109 54<49 637 49 637>
LayerCount: 2
Fore
SplineSet
165 895 m 1,0,-1
 299 750 l 1,1,-1
 239 750 l 1,2,-1
 136 847 l 1,3,-1
 33 750 l 1,4,-1
 -27 750 l 1,5,-1
 107 895 l 1,6,-1
 165 895 l 1,0,-1
242 686 m 1,7,-1
 242 637 l 1,8,-1
 163 637 l 1,9,-1
 163 49 l 1,10,-1
 242 49 l 1,11,-1
 242 0 l 1,12,-1
 30 0 l 1,13,-1
 30 49 l 1,14,-1
 109 49 l 1,15,-1
 109 637 l 1,16,-1
 30 637 l 1,17,-1
 30 686 l 1,18,-1
 242 686 l 1,7,-1
EndSplineSet
Position2: "'cpsp' Capital Spacing lookup 0 subtable" dx=5 dy=0 dh=10 dv=0
EndChar

StartChar: Idieresis
Encoding: 207 207 38
Width: 364
GlyphClass: 2
Flags: MW
HStem: 0 49<43 122 176 255 43 122> 637 49<43 122 43 255 176 255 176 176> 751 69<29 94 29 94 205 270>
VStem: 29 65<751 820 751 820> 122 54<49 637 49 637> 205 65<751 820 751 820>
LayerCount: 2
Fore
SplineSet
94 820 m 1,0,-1
 94 751 l 1,1,-1
 29 751 l 1,2,-1
 29 820 l 1,3,-1
 94 820 l 1,0,-1
270 820 m 1,4,-1
 270 751 l 1,5,-1
 205 751 l 1,6,-1
 205 820 l 1,7,-1
 270 820 l 1,4,-1
255 686 m 1,8,-1
 255 637 l 1,9,-1
 176 637 l 1,10,-1
 176 49 l 1,11,-1
 255 49 l 1,12,-1
 255 0 l 1,13,-1
 43 0 l 1,14,-1
 43 49 l 1,15,-1
 122 49 l 1,16,-1
 122 637 l 1,17,-1
 43 637 l 1,18,-1
 43 686 l 1,19,-1
 255 686 l 1,8,-1
EndSplineSet
Position2: "'cpsp' Capital Spacing lookup 0 subtable" dx=5 dy=0 dh=10 dv=0
EndChar

StartChar: Idotaccent
Encoding: 304 304 39
Width: 364
GlyphClass: 2
Flags: MW
HStem: 0 49<53 132 186 265 53 132> 637 49<53 132 53 265 186 265 186 186> 779 132<140.5 176.5>
VStem: 93 132<827 863 826 863.5> 132 54<49 637 49 637>
LayerCount: 2
Fore
SplineSet
206 891.5 m 128,-1,1
 225 872 225 872 225 844.5 c 128,-1,2
 225 817 225 817 205.5 798 c 128,-1,3
 186 779 186 779 159 779 c 128,-1,4
 132 779 132 779 112.5 798.5 c 128,-1,5
 93 818 93 818 93 845.5 c 128,-1,6
 93 873 93 873 112 892 c 128,-1,7
 131 911 131 911 159 911 c 128,-1,0
 187 911 187 911 206 891.5 c 128,-1,1
265 686 m 1,8,-1
 265 637 l 1,9,-1
 186 637 l 1,10,-1
 186 49 l 1,11,-1
 265 49 l 1,12,-1
 265 0 l 1,13,-1
 53 0 l 1,14,-1
 53 49 l 1,15,-1
 132 49 l 1,16,-1
 132 637 l 1,17,-1
 53 637 l 1,18,-1
 53 686 l 1,19,-1
 265 686 l 1,8,-1
EndSplineSet
EndChar

StartChar: Igrave
Encoding: 204 204 40
Width: 364
GlyphClass: 2
Flags: MW
HStem: 0 49<32 111 165 244 32 111> 637 49<32 111 32 244 165 244 165 165> 750 145<10 171 10 121>
VStem: 111 54<49 637 49 637>
LayerCount: 2
Fore
SplineSet
10 892 m 1,0,-1
 10 895 l 1,1,-1
 75 895 l 1,2,-1
 171 750 l 1,3,-1
 121 750 l 1,4,-1
 10 892 l 1,0,-1
244 686 m 1,5,-1
 244 637 l 1,6,-1
 165 637 l 1,7,-1
 165 49 l 1,8,-1
 244 49 l 1,9,-1
 244 0 l 1,10,-1
 32 0 l 1,11,-1
 32 49 l 1,12,-1
 111 49 l 1,13,-1
 111 637 l 1,14,-1
 32 637 l 1,15,-1
 32 686 l 1,16,-1
 244 686 l 1,5,-1
EndSplineSet
Position2: "'cpsp' Capital Spacing lookup 0 subtable" dx=5 dy=0 dh=10 dv=0
EndChar

StartChar: Imacron
Encoding: 298 298 41
Width: 364
GlyphClass: 2
Flags: MW
HStem: 0 49<53 132 186 265 53 132> 637 49<53 132 53 265 186 265 186 186> 867 44<0 318 0 318>
VStem: 132 54<49 637 49 637>
LayerCount: 2
Fore
SplineSet
0 911 m 1,0,-1
 318 911 l 1,1,-1
 318 867 l 1,2,-1
 0 867 l 1,3,-1
 0 911 l 1,0,-1
265 686 m 1,4,-1
 265 637 l 1,5,-1
 186 637 l 1,6,-1
 186 49 l 1,7,-1
 265 49 l 1,8,-1
 265 0 l 1,9,-1
 53 0 l 1,10,-1
 53 49 l 1,11,-1
 132 49 l 1,12,-1
 132 637 l 1,13,-1
 53 637 l 1,14,-1
 53 686 l 1,15,-1
 265 686 l 1,4,-1
EndSplineSet
EndChar

StartChar: Iogonek
Encoding: 302 302 42
Width: 364
GlyphClass: 2
Flags: MW
HStem: -143 43<232.5 253.5> 0 49<53 132 186 196 53 132 246 246 246 265> 637 49<53 132 53 265 186 186 186 265>
VStem: 132 54<49 637 49 637> 142 57<-75.5 -55>
LayerCount: 2
Fore
SplineSet
246 0 m 1,0,1
 199 -31.3333333333 199 -31.3333333333 199 -60 c 0,2,3
 199 -100 199 -100 243 -100 c 0,4,5
 268 -100 268 -100 310 -86 c 1,6,-1
 323 -119 l 1,7,8
 284 -143 284 -143 241.5 -143 c 128,-1,9
 199 -143 199 -143 170.5 -126 c 128,-1,10
 142 -109 142 -109 142 -72.5 c 128,-1,11
 142 -36 142 -36 196 0 c 1,12,-1
 53 0 l 1,13,-1
 53 49 l 1,14,-1
 132 49 l 1,15,-1
 132 637 l 1,16,-1
 53 637 l 1,17,-1
 53 686 l 1,18,-1
 265 686 l 1,19,-1
 265 637 l 1,20,-1
 186 637 l 1,21,-1
 186 49 l 1,22,-1
 265 49 l 1,23,-1
 265 0 l 1,24,-1
 246 0 l 1,0,1
EndSplineSet
EndChar

StartChar: J
Encoding: 74 74 43
Width: 526
GlyphClass: 2
Flags: MW
HStem: -10 48<179.5 256.5 179.5 271.5> 666 20G<357 411 411 411>
VStem: 29 50<166 172 172 185 124.5 185> 357 54<172 686>
LayerCount: 2
Fore
SplineSet
79 185 m 1,0,-1
 79 172 l 2,1,2
 79 104 79 104 117.5 71 c 128,-1,3
 156 38 156 38 218 38 c 128,-1,4
 280 38 280 38 318.5 71.5 c 128,-1,5
 357 105 357 105 357 172 c 2,6,-1
 357 686 l 1,7,-1
 411 686 l 1,8,-1
 411 166 l 2,9,10
 411 82 411 82 356.5 36 c 128,-1,11
 302 -10 302 -10 218 -10 c 128,-1,12
 134 -10 134 -10 81.5 36 c 128,-1,13
 29 82 29 82 29 166 c 2,14,-1
 29 185 l 1,15,-1
 79 185 l 1,0,-1
EndSplineSet
Position2: "'cpsp' Capital Spacing lookup 0 subtable" dx=5 dy=0 dh=10 dv=0
EndChar

StartChar: K
Encoding: 75 75 44
Width: 623
GlyphClass: 2
Flags: MW
HStem: 0 21G<92 146 92 92 513 581 513 513> 666 20G<92 146 146 146 509 573 573 573>
VStem: 92 54<0 208 279 686>
AnchorPoint: "Bottom" 312 0 basechar 0
LayerCount: 2
Fore
SplineSet
146 686 m 1,0,-1
 146 279 l 1,1,-1
 509 686 l 1,2,-1
 573 686 l 1,3,-1
 306 387 l 1,4,-1
 581 0 l 1,5,-1
 513 0 l 1,6,-1
 269 346 l 1,7,-1
 146 208 l 1,8,-1
 146 0 l 1,9,-1
 92 0 l 1,10,-1
 92 686 l 1,11,-1
 146 686 l 1,0,-1
EndSplineSet
Position2: "'cpsp' Capital Spacing lookup 0 subtable" dx=5 dy=0 dh=10 dv=0
EndChar

StartChar: Kcommaaccent
Encoding: 310 310 45
Width: 623
GlyphClass: 2
Flags: MW
HStem: -149 69<278 302 278 343> 0 21G<92 146 92 92 513 581 513 513> 666 20G<92 146 146 146 509 573 573 573>
VStem: 92 54<0 208 279 686> 278 65<-138 -80 -138 -80 -138 -80>
AnchorPoint: "Bottom" 312 0 basechar 0
LayerCount: 2
Fore
SplineSet
146 686 m 1,0,-1
 146 279 l 1,1,-1
 509 686 l 1,2,-1
 573 686 l 1,3,-1
 306 387 l 1,4,-1
 581 0 l 1,5,-1
 513 0 l 1,6,-1
 269 346 l 1,7,-1
 146 208 l 1,8,-1
 146 0 l 1,9,-1
 92 0 l 1,10,-1
 92 686 l 1,11,-1
 146 686 l 1,0,-1
313 -250 m 1,12,-1
 279 -250 l 1,13,-1
 302 -149 l 1,14,-1
 278 -149 l 1,15,-1
 278 -80 l 1,16,-1
 343 -80 l 1,17,-1
 343 -138 l 1,18,-1
 313 -250 l 1,12,-1
EndSplineSet
EndChar

StartChar: L
Encoding: 76 76 46
Width: 536
GlyphClass: 2
Flags: MW
HStem: 0 48<146 486 146 498> 666 20G<92 146 146 146>
VStem: 92 54<48 686 48 686 48 686>
AnchorPoint: "Bottom" 268 0 basechar 0
LayerCount: 2
Fore
SplineSet
92 686 m 1,0,-1
 146 686 l 1,1,-1
 146 48 l 1,2,-1
 486 48 l 1,3,-1
 498 0 l 1,4,-1
 92 0 l 1,5,-1
 92 686 l 1,0,-1
EndSplineSet
Position2: "'cpsp' Capital Spacing lookup 0 subtable" dx=5 dy=0 dh=10 dv=0
EndChar

StartChar: Lacute
Encoding: 313 313 47
Width: 536
GlyphClass: 2
Flags: MW
HStem: 0 48<146 486 146 498> 666 20G<92 146 146 146> 750 145<88 249 88 249>
VStem: 92 54<48 686 48 686 48 686>
AnchorPoint: "Bottom" 268 0 basechar 0
LayerCount: 2
Fore
SplineSet
184 895 m 1,0,-1
 249 895 l 1,1,-1
 249 892 l 1,2,-1
 138 750 l 1,3,-1
 88 750 l 1,4,-1
 184 895 l 1,0,-1
92 686 m 1,5,-1
 146 686 l 1,6,-1
 146 48 l 1,7,-1
 486 48 l 1,8,-1
 498 0 l 1,9,-1
 92 0 l 1,10,-1
 92 686 l 1,5,-1
EndSplineSet
EndChar

StartChar: Lcaron
Encoding: 317 317 48
Width: 536
GlyphClass: 2
Flags: MW
HStem: 0 48<146 486 146 498> 496 20G<486 520 486 486.5> 516 170<486 520 486 486.5> 617 69<485 509>
VStem: 92 54<48 686 48 686 48 686> 485 65<628 686 628 686 628 686>
AnchorPoint: "Bottom" 268 0 basechar 0
LayerCount: 2
Fore
SplineSet
92 686 m 1,0,-1
 146 686 l 1,1,-1
 146 48 l 1,2,-1
 486 48 l 1,3,-1
 498 0 l 1,4,-1
 92 0 l 1,5,-1
 92 686 l 1,0,-1
520 516 m 1,6,-1
 486 516 l 1,7,-1
 509 617 l 1,8,-1
 485 617 l 1,9,-1
 485 686 l 1,10,-1
 550 686 l 1,11,-1
 550 628 l 1,12,-1
 520 516 l 1,6,-1
EndSplineSet
EndChar

StartChar: Lcommaaccent
Encoding: 315 315 49
Width: 536
GlyphClass: 2
Flags: MW
HStem: -149 69<234 258 234 299> 0 48<146 486 146 498> 666 20G<92 146 146 146>
VStem: 92 54<48 686 48 686 48 686> 234 65<-138 -80 -138 -80 -138 -80>
AnchorPoint: "Bottom" 268 0 basechar 0
LayerCount: 2
Fore
SplineSet
92 686 m 1,0,-1
 146 686 l 1,1,-1
 146 48 l 1,2,-1
 486 48 l 1,3,-1
 498 0 l 1,4,-1
 92 0 l 1,5,-1
 92 686 l 1,0,-1
269 -250 m 1,6,-1
 235 -250 l 1,7,-1
 258 -149 l 1,8,-1
 234 -149 l 1,9,-1
 234 -80 l 1,10,-1
 299 -80 l 1,11,-1
 299 -138 l 1,12,-1
 269 -250 l 1,6,-1
EndSplineSet
EndChar

StartChar: Lslash
Encoding: 321 321 50
Width: 539
GlyphClass: 2
Flags: MW
HStem: 0 48<161 501 161 513> 666 20G<107 161 161 161>
VStem: 107 54<48 331 331 331 48 402 402 686>
LayerCount: 2
Fore
SplineSet
161 358 m 1,0,-1
 161 48 l 1,1,-1
 501 48 l 1,2,-1
 513 0 l 1,3,-1
 107 0 l 1,4,-1
 107 331 l 1,5,-1
 33 294 l 1,6,-1
 33 338 l 1,7,-1
 107 375 l 1,8,-1
 107 686 l 1,9,-1
 161 686 l 1,10,-1
 161 402 l 1,11,-1
 313 479 l 1,12,-1
 313 435 l 1,13,-1
 161 358 l 1,0,-1
EndSplineSet
Position2: "'cpsp' Capital Spacing lookup 0 subtable" dx=5 dy=0 dh=10 dv=0
EndChar

StartChar: M
Encoding: 77 77 51
Width: 938
GlyphClass: 2
Flags: MW
HStem: 0 21G<92 140 92 92 418 469 418 418 749 749 749 803> 0 69<446 447 446 469 418 447> 625 61<140 145 140 140 744 749 744 744>
VStem: 92 48<0 625 0 686> 749 54<0 625 625 625>
LayerCount: 2
Fore
SplineSet
749 625 m 1,0,-1
 744 625 l 1,1,-1
 469 0 l 1,2,-1
 418 0 l 1,3,-1
 145 625 l 1,4,-1
 140 625 l 1,5,-1
 140 0 l 1,6,-1
 92 0 l 1,7,-1
 92 686 l 1,8,-1
 178 686 l 1,9,-1
 446 69 l 1,10,-1
 447 69 l 1,11,-1
 718 686 l 1,12,-1
 803 686 l 1,13,-1
 803 0 l 1,14,-1
 749 0 l 1,15,-1
 749 625 l 1,0,-1
EndSplineSet
Position2: "'cpsp' Capital Spacing lookup 0 subtable" dx=5 dy=0 dh=10 dv=0
EndChar

StartChar: N
Encoding: 78 78 52
Width: 694
GlyphClass: 2
Flags: MW
HStem: 0 21G<92 140 92 92 523 523 523 571> 666 20G<92 138 138 138 523 571 571 571>
VStem: 92 48<0 583 0 686> 523 48<0 686 103 686 0 686>
AnchorPoint: "Bottom" 347 0 basechar 0
LayerCount: 2
Fore
SplineSet
143 583 m 1,0,-1
 140 583 l 1,1,-1
 140 0 l 1,2,-1
 92 0 l 1,3,-1
 92 686 l 1,4,-1
 138 686 l 1,5,-1
 520 103 l 1,6,-1
 523 103 l 1,7,-1
 523 686 l 1,8,-1
 571 686 l 1,9,-1
 571 0 l 1,10,-1
 523 0 l 1,11,-1
 143 583 l 1,0,-1
EndSplineSet
Position2: "'cpsp' Capital Spacing lookup 0 subtable" dx=5 dy=0 dh=10 dv=0
EndChar

StartChar: Nacute
Encoding: 323 323 53
Width: 694
GlyphClass: 2
Flags: MW
HStem: 0 21G<92 140 92 92 523 523 523 571> 666 20G<92 138 138 138 523 571 571 571> 750 145<316 477 316 477>
VStem: 92 48<0 583 0 686> 523 48<0 686 103 686 0 686>
AnchorPoint: "Bottom" 347 0 basechar 0
LayerCount: 2
Fore
SplineSet
412 895 m 1,0,-1
 477 895 l 1,1,-1
 477 892 l 1,2,-1
 366 750 l 1,3,-1
 316 750 l 1,4,-1
 412 895 l 1,0,-1
143 583 m 1,5,-1
 140 583 l 1,6,-1
 140 0 l 1,7,-1
 92 0 l 1,8,-1
 92 686 l 1,9,-1
 138 686 l 1,10,-1
 520 103 l 1,11,-1
 523 103 l 1,12,-1
 523 686 l 1,13,-1
 571 686 l 1,14,-1
 571 0 l 1,15,-1
 523 0 l 1,16,-1
 143 583 l 1,5,-1
EndSplineSet
EndChar

StartChar: Ncaron
Encoding: 327 327 54
Width: 694
GlyphClass: 2
Flags: MW
HStem: 0 21G<92 140 92 92 523 523 523 571> 666 20G<92 138 138 138 523 571 571 571> 750 145<184 376 184 318>
VStem: 92 48<0 583 0 686> 523 48<0 686 103 686 0 686>
AnchorPoint: "Bottom" 347 0 basechar 0
LayerCount: 2
Fore
SplineSet
244 895 m 1,0,-1
 347 798 l 1,1,-1
 450 895 l 1,2,-1
 510 895 l 1,3,-1
 376 750 l 1,4,-1
 318 750 l 1,5,-1
 184 895 l 1,6,-1
 244 895 l 1,0,-1
143 583 m 1,7,-1
 140 583 l 1,8,-1
 140 0 l 1,9,-1
 92 0 l 1,10,-1
 92 686 l 1,11,-1
 138 686 l 1,12,-1
 520 103 l 1,13,-1
 523 103 l 1,14,-1
 523 686 l 1,15,-1
 571 686 l 1,16,-1
 571 0 l 1,17,-1
 523 0 l 1,18,-1
 143 583 l 1,7,-1
EndSplineSet
EndChar

StartChar: Ncommaaccent
Encoding: 325 325 55
Width: 694
GlyphClass: 2
Flags: MW
HStem: -149 69<313 337 313 378> 0 21G<92 140 92 92 523 523 523 571> 666 20G<92 138 138 138 523 571 571 571>
VStem: 92 48<0 583 0 686> 313 65<-138 -80 -138 -80 -138 -80> 523 48<0 686 103 686 0 686>
AnchorPoint: "Bottom" 347 0 basechar 0
LayerCount: 2
Fore
SplineSet
143 583 m 1,0,-1
 140 583 l 1,1,-1
 140 0 l 1,2,-1
 92 0 l 1,3,-1
 92 686 l 1,4,-1
 138 686 l 1,5,-1
 520 103 l 1,6,-1
 523 103 l 1,7,-1
 523 686 l 1,8,-1
 571 686 l 1,9,-1
 571 0 l 1,10,-1
 523 0 l 1,11,-1
 143 583 l 1,0,-1
348 -250 m 1,12,-1
 314 -250 l 1,13,-1
 337 -149 l 1,14,-1
 313 -149 l 1,15,-1
 313 -80 l 1,16,-1
 378 -80 l 1,17,-1
 378 -138 l 1,18,-1
 348 -250 l 1,12,-1
EndSplineSet
EndChar

StartChar: Ntilde
Encoding: 209 209 56
Width: 694
GlyphClass: 2
Flags: MW
HStem: 0 21G<92 140 92 92 523 523 523 571> 666 20G<92 138 138 138 523 571 571 571> 750 50<400 443.5 400 459.5> 782 50<236.5 280>
VStem: 92 48<0 583 0 686> 523 48<0 686 103 686 0 686>
LayerCount: 2
Fore
SplineSet
484 832 m 1,0,-1
 521 832 l 1,1,2
 521 801 521 801 497 775.5 c 128,-1,3
 473 750 473 750 430 750 c 0,4,5
 387 750 387 750 333 766 c 128,-1,6
 279 782 279 782 253 782 c 0,7,8
 206 782 206 782 196 750 c 1,9,-1
 159 750 l 1,10,11
 159 780 159 780 183 806 c 128,-1,12
 207 832 207 832 250 832 c 0,13,14
 293 832 293 832 347 816 c 128,-1,15
 401 800 401 800 427 800 c 0,16,17
 474 800 474 800 484 832 c 1,0,-1
143 583 m 1,18,-1
 140 583 l 1,19,-1
 140 0 l 1,20,-1
 92 0 l 1,21,-1
 92 686 l 1,22,-1
 138 686 l 1,23,-1
 520 103 l 1,24,-1
 523 103 l 1,25,-1
 523 686 l 1,26,-1
 571 686 l 1,27,-1
 571 0 l 1,28,-1
 523 0 l 1,29,-1
 143 583 l 1,18,-1
EndSplineSet
Position2: "'cpsp' Capital Spacing lookup 0 subtable" dx=5 dy=0 dh=10 dv=0
EndChar

StartChar: O
Encoding: 79 79 57
Width: 690
GlyphClass: 2
Flags: MW
HStem: -10 48<268.5 385.5 268.5 400.5> 648 48<268.5 385.5>
VStem: 61 54<330 356 356 368 204.5 493.5> 539 54<318 330 330 356 192.5 368 192.5 481.5>
LayerCount: 2
Fore
SplineSet
327 -10 m 128,-1,1
 268 -10 268 -10 223 5 c 128,-1,2
 178 20 178 20 139.5 56.5 c 0,3,4
 61 130.922077922 61 130.922077922 61 330 c 2,5,-1
 61 356 l 2,6,7
 61 555.077922078 61 555.077922078 139.5 629.5 c 0,8,9
 178 666 178 666 223 681 c 128,-1,10
 268 696 268 696 327 696 c 128,-1,11
 386 696 386 696 431 681 c 128,-1,12
 476 666 476 666 514.5 629.5 c 0,13,14
 593 555.077922078 593 555.077922078 593 356 c 2,15,-1
 593 330 l 2,16,17
 593 130.922077922 593 130.922077922 514.5 56.5 c 0,18,19
 476 20 476 20 431 5 c 128,-1,0
 386 -10 386 -10 327 -10 c 128,-1,1
327 38 m 0,20,21
 374 38 374 38 410 50.5 c 128,-1,22
 446 63 446 63 476.5 92.5 c 0,23,24
 539 152.950819672 539 152.950819672 539 318 c 2,25,-1
 539 368 l 2,26,27
 539 533.049180328 539 533.049180328 476.5 593.5 c 0,28,29
 420.152542373 648 420.152542373 648 327 648 c 128,-1,30
 233.847457627 648 233.847457627 648 177.5 593.5 c 0,31,32
 115 533.049180328 115 533.049180328 115 368 c 2,33,-1
 115 318 l 2,34,35
 115 152.950819672 115 152.950819672 177.5 92.5 c 0,36,37
 233.847457627 38 233.847457627 38 327 38 c 0,20,21
EndSplineSet
Substitution2: "Single Substitution lookup 5 subtable" ordmasculine
Substitution2: "'aalt' Access All Alternates lookup 0 subtable" ordmasculine
Position2: "'cpsp' Capital Spacing lookup 0 subtable" dx=5 dy=0 dh=10 dv=0
EndChar

StartChar: Oacute
Encoding: 211 211 58
Width: 690
GlyphClass: 2
Flags: MW
HStem: -10 48<268.5 385.5 268.5 400.5> 648 48<268.5 385.5> 750 145<305 466 305 466>
VStem: 61 54<330 356 356 368 204.5 493.5> 539 54<318 330 330 356 192.5 368 192.5 481.5>
LayerCount: 2
Fore
SplineSet
401 895 m 1,0,-1
 466 895 l 1,1,-1
 466 892 l 1,2,-1
 355 750 l 1,3,-1
 305 750 l 1,4,-1
 401 895 l 1,0,-1
327 -10 m 128,-1,6
 268 -10 268 -10 223 5 c 128,-1,7
 178 20 178 20 139.5 56.5 c 0,8,9
 61 130.922077922 61 130.922077922 61 330 c 2,10,-1
 61 356 l 2,11,12
 61 555.077922078 61 555.077922078 139.5 629.5 c 0,13,14
 178 666 178 666 223 681 c 128,-1,15
 268 696 268 696 327 696 c 128,-1,16
 386 696 386 696 431 681 c 128,-1,17
 476 666 476 666 514.5 629.5 c 0,18,19
 593 555.077922078 593 555.077922078 593 356 c 2,20,-1
 593 330 l 2,21,22
 593 130.922077922 593 130.922077922 514.5 56.5 c 0,23,24
 476 20 476 20 431 5 c 128,-1,5
 386 -10 386 -10 327 -10 c 128,-1,6
327 38 m 0,25,26
 374 38 374 38 410 50.5 c 128,-1,27
 446 63 446 63 476.5 92.5 c 0,28,29
 539 152.950819672 539 152.950819672 539 318 c 2,30,-1
 539 368 l 2,31,32
 539 533.049180328 539 533.049180328 476.5 593.5 c 0,33,34
 420.152542373 648 420.152542373 648 327 648 c 128,-1,35
 233.847457627 648 233.847457627 648 177.5 593.5 c 0,36,37
 115 533.049180328 115 533.049180328 115 368 c 2,38,-1
 115 318 l 2,39,40
 115 152.950819672 115 152.950819672 177.5 92.5 c 0,41,42
 233.847457627 38 233.847457627 38 327 38 c 0,25,26
EndSplineSet
Position2: "'cpsp' Capital Spacing lookup 0 subtable" dx=5 dy=0 dh=10 dv=0
EndChar

StartChar: Ocircumflex
Encoding: 212 212 59
Width: 690
GlyphClass: 2
Flags: MW
HStem: -10 48<268.5 385.5 268.5 400.5> 648 48<268.5 385.5> 750 145<169 361 169 361 303 495 303 435>
VStem: 61 54<330 356 356 368 204.5 493.5> 539 54<318 330 330 356 192.5 368 192.5 481.5>
LayerCount: 2
Fore
SplineSet
361 895 m 1,0,-1
 495 750 l 1,1,-1
 435 750 l 1,2,-1
 332 847 l 1,3,-1
 229 750 l 1,4,-1
 169 750 l 1,5,-1
 303 895 l 1,6,-1
 361 895 l 1,0,-1
327 -10 m 128,-1,8
 268 -10 268 -10 223 5 c 128,-1,9
 178 20 178 20 139.5 56.5 c 0,10,11
 61 130.922077922 61 130.922077922 61 330 c 2,12,-1
 61 356 l 2,13,14
 61 555.077922078 61 555.077922078 139.5 629.5 c 0,15,16
 178 666 178 666 223 681 c 128,-1,17
 268 696 268 696 327 696 c 128,-1,18
 386 696 386 696 431 681 c 128,-1,19
 476 666 476 666 514.5 629.5 c 0,20,21
 593 555.077922078 593 555.077922078 593 356 c 2,22,-1
 593 330 l 2,23,24
 593 130.922077922 593 130.922077922 514.5 56.5 c 0,25,26
 476 20 476 20 431 5 c 128,-1,7
 386 -10 386 -10 327 -10 c 128,-1,8
327 38 m 0,27,28
 374 38 374 38 410 50.5 c 128,-1,29
 446 63 446 63 476.5 92.5 c 0,30,31
 539 152.950819672 539 152.950819672 539 318 c 2,32,-1
 539 368 l 2,33,34
 539 533.049180328 539 533.049180328 476.5 593.5 c 0,35,36
 420.152542373 648 420.152542373 648 327 648 c 128,-1,37
 233.847457627 648 233.847457627 648 177.5 593.5 c 0,38,39
 115 533.049180328 115 533.049180328 115 368 c 2,40,-1
 115 318 l 2,41,42
 115 152.950819672 115 152.950819672 177.5 92.5 c 0,43,44
 233.847457627 38 233.847457627 38 327 38 c 0,27,28
EndSplineSet
Position2: "'cpsp' Capital Spacing lookup 0 subtable" dx=5 dy=0 dh=10 dv=0
EndChar

StartChar: Odieresis
Encoding: 214 214 60
Width: 690
GlyphClass: 2
Flags: MW
HStem: -10 48<268.5 385.5 268.5 400.5> 648 48<268.5 385.5> 751 69<207 272 207 272 383 448>
VStem: 61 54<330 356 356 368 204.5 493.5> 207 65<751 820 751 820> 383 65<751 820 751 820> 539 54<318 330 330 356 192.5 368 192.5 481.5>
LayerCount: 2
Fore
SplineSet
272 820 m 1,0,-1
 272 751 l 1,1,-1
 207 751 l 1,2,-1
 207 820 l 1,3,-1
 272 820 l 1,0,-1
448 820 m 1,4,-1
 448 751 l 1,5,-1
 383 751 l 1,6,-1
 383 820 l 1,7,-1
 448 820 l 1,4,-1
327 -10 m 128,-1,9
 268 -10 268 -10 223 5 c 128,-1,10
 178 20 178 20 139.5 56.5 c 0,11,12
 61 130.922077922 61 130.922077922 61 330 c 2,13,-1
 61 356 l 2,14,15
 61 555.077922078 61 555.077922078 139.5 629.5 c 0,16,17
 178 666 178 666 223 681 c 128,-1,18
 268 696 268 696 327 696 c 128,-1,19
 386 696 386 696 431 681 c 128,-1,20
 476 666 476 666 514.5 629.5 c 0,21,22
 593 555.077922078 593 555.077922078 593 356 c 2,23,-1
 593 330 l 2,24,25
 593 130.922077922 593 130.922077922 514.5 56.5 c 0,26,27
 476 20 476 20 431 5 c 128,-1,8
 386 -10 386 -10 327 -10 c 128,-1,9
327 38 m 0,28,29
 374 38 374 38 410 50.5 c 128,-1,30
 446 63 446 63 476.5 92.5 c 0,31,32
 539 152.950819672 539 152.950819672 539 318 c 2,33,-1
 539 368 l 2,34,35
 539 533.049180328 539 533.049180328 476.5 593.5 c 0,36,37
 420.152542373 648 420.152542373 648 327 648 c 128,-1,38
 233.847457627 648 233.847457627 648 177.5 593.5 c 0,39,40
 115 533.049180328 115 533.049180328 115 368 c 2,41,-1
 115 318 l 2,42,43
 115 152.950819672 115 152.950819672 177.5 92.5 c 0,44,45
 233.847457627 38 233.847457627 38 327 38 c 0,28,29
EndSplineSet
Position2: "'cpsp' Capital Spacing lookup 0 subtable" dx=5 dy=0 dh=10 dv=0
EndChar

StartChar: Ograve
Encoding: 210 210 61
Width: 690
GlyphClass: 2
Flags: MW
HStem: -10 48<268.5 385.5 268.5 400.5> 648 48<268.5 385.5> 750 145<198 359 198 309>
VStem: 61 54<330 356 356 368 204.5 493.5> 539 54<318 330 330 356 192.5 368 192.5 481.5>
LayerCount: 2
Fore
SplineSet
198 892 m 1,0,-1
 198 895 l 1,1,-1
 263 895 l 1,2,-1
 359 750 l 1,3,-1
 309 750 l 1,4,-1
 198 892 l 1,0,-1
327 -10 m 128,-1,6
 268 -10 268 -10 223 5 c 128,-1,7
 178 20 178 20 139.5 56.5 c 0,8,9
 61 130.922077922 61 130.922077922 61 330 c 2,10,-1
 61 356 l 2,11,12
 61 555.077922078 61 555.077922078 139.5 629.5 c 0,13,14
 178 666 178 666 223 681 c 128,-1,15
 268 696 268 696 327 696 c 128,-1,16
 386 696 386 696 431 681 c 128,-1,17
 476 666 476 666 514.5 629.5 c 0,18,19
 593 555.077922078 593 555.077922078 593 356 c 2,20,-1
 593 330 l 2,21,22
 593 130.922077922 593 130.922077922 514.5 56.5 c 0,23,24
 476 20 476 20 431 5 c 128,-1,5
 386 -10 386 -10 327 -10 c 128,-1,6
327 38 m 0,25,26
 374 38 374 38 410 50.5 c 128,-1,27
 446 63 446 63 476.5 92.5 c 0,28,29
 539 152.950819672 539 152.950819672 539 318 c 2,30,-1
 539 368 l 2,31,32
 539 533.049180328 539 533.049180328 476.5 593.5 c 0,33,34
 420.152542373 648 420.152542373 648 327 648 c 128,-1,35
 233.847457627 648 233.847457627 648 177.5 593.5 c 0,36,37
 115 533.049180328 115 533.049180328 115 368 c 2,38,-1
 115 318 l 2,39,40
 115 152.950819672 115 152.950819672 177.5 92.5 c 0,41,42
 233.847457627 38 233.847457627 38 327 38 c 0,25,26
EndSplineSet
Position2: "'cpsp' Capital Spacing lookup 0 subtable" dx=5 dy=0 dh=10 dv=0
EndChar

StartChar: Ohungarumlaut
Encoding: 336 336 62
Width: 690
GlyphClass: 2
Flags: MW
HStem: -10 48<268.5 385.5 268.5 400.5> 648 48<268.5 385.5> 750 145<242 402 242 402 367 367 367 402 338 417>
VStem: 61 54<330 356 356 368 204.5 493.5> 539 54<318 330 330 356 192.5 368 192.5 481.5>
LayerCount: 2
Fore
SplineSet
338 895 m 1,0,-1
 402 895 l 1,1,-1
 403 892 l 1,2,-1
 292 750 l 1,3,-1
 242 750 l 1,4,-1
 338 895 l 1,0,-1
463 895 m 1,5,-1
 527 895 l 1,6,-1
 528 892 l 1,7,-1
 417 750 l 1,8,-1
 367 750 l 1,9,-1
 463 895 l 1,5,-1
327 -10 m 128,-1,11
 268 -10 268 -10 223 5 c 128,-1,12
 178 20 178 20 139.5 56.5 c 0,13,14
 61 130.922077922 61 130.922077922 61 330 c 2,15,-1
 61 356 l 2,16,17
 61 555.077922078 61 555.077922078 139.5 629.5 c 0,18,19
 178 666 178 666 223 681 c 128,-1,20
 268 696 268 696 327 696 c 128,-1,21
 386 696 386 696 431 681 c 128,-1,22
 476 666 476 666 514.5 629.5 c 0,23,24
 593 555.077922078 593 555.077922078 593 356 c 2,25,-1
 593 330 l 2,26,27
 593 130.922077922 593 130.922077922 514.5 56.5 c 0,28,29
 476 20 476 20 431 5 c 128,-1,10
 386 -10 386 -10 327 -10 c 128,-1,11
327 38 m 0,30,31
 374 38 374 38 410 50.5 c 128,-1,32
 446 63 446 63 476.5 92.5 c 0,33,34
 539 152.950819672 539 152.950819672 539 318 c 2,35,-1
 539 368 l 2,36,37
 539 533.049180328 539 533.049180328 476.5 593.5 c 0,38,39
 420.152542373 648 420.152542373 648 327 648 c 128,-1,40
 233.847457627 648 233.847457627 648 177.5 593.5 c 0,41,42
 115 533.049180328 115 533.049180328 115 368 c 2,43,-1
 115 318 l 2,44,45
 115 152.950819672 115 152.950819672 177.5 92.5 c 0,46,47
 233.847457627 38 233.847457627 38 327 38 c 0,30,31
EndSplineSet
EndChar

StartChar: Omacron
Encoding: 332 332 63
Width: 690
GlyphClass: 2
Flags: MW
HStem: -10 48<268.5 385.5 268.5 400.5> 648 48<268.5 385.5> 867 44<166 484 166 484>
VStem: 61 54<330 356 356 368 204.5 493.5> 539 54<318 330 330 356 192.5 368 192.5 481.5>
LayerCount: 2
Fore
SplineSet
166 911 m 1,0,-1
 484 911 l 1,1,-1
 484 867 l 1,2,-1
 166 867 l 1,3,-1
 166 911 l 1,0,-1
327 -10 m 128,-1,5
 268 -10 268 -10 223 5 c 128,-1,6
 178 20 178 20 139.5 56.5 c 0,7,8
 61 130.922077922 61 130.922077922 61 330 c 2,9,-1
 61 356 l 2,10,11
 61 555.077922078 61 555.077922078 139.5 629.5 c 0,12,13
 178 666 178 666 223 681 c 128,-1,14
 268 696 268 696 327 696 c 128,-1,15
 386 696 386 696 431 681 c 128,-1,16
 476 666 476 666 514.5 629.5 c 0,17,18
 593 555.077922078 593 555.077922078 593 356 c 2,19,-1
 593 330 l 2,20,21
 593 130.922077922 593 130.922077922 514.5 56.5 c 0,22,23
 476 20 476 20 431 5 c 128,-1,4
 386 -10 386 -10 327 -10 c 128,-1,5
327 38 m 0,24,25
 374 38 374 38 410 50.5 c 128,-1,26
 446 63 446 63 476.5 92.5 c 0,27,28
 539 152.950819672 539 152.950819672 539 318 c 2,29,-1
 539 368 l 2,30,31
 539 533.049180328 539 533.049180328 476.5 593.5 c 0,32,33
 420.152542373 648 420.152542373 648 327 648 c 128,-1,34
 233.847457627 648 233.847457627 648 177.5 593.5 c 0,35,36
 115 533.049180328 115 533.049180328 115 368 c 2,37,-1
 115 318 l 2,38,39
 115 152.950819672 115 152.950819672 177.5 92.5 c 0,40,41
 233.847457627 38 233.847457627 38 327 38 c 0,24,25
EndSplineSet
EndChar

StartChar: Oslash
Encoding: 216 216 64
Width: 690
GlyphClass: 2
Flags: MW
HStem: -10 48<301 385.5 301 400.5> 648 48<268.5 352.5>
VStem: 61 54<330 356 356 368 267.5 493.5> 539 54<318 330 330 356 192.5 368 192.5 418.5>
LayerCount: 2
Fore
SplineSet
594 754 m 1,0,-1
 517 626 l 1,1,2
 593 544 593 544 593 356 c 2,3,-1
 593 330 l 2,4,5
 593 130.922077922 593 130.922077922 514.5 56.5 c 0,6,7
 476 20 476 20 431 5 c 128,-1,8
 386 -10 386 -10 327 -10 c 0,9,10
 225 -10 225 -10 165 34 c 1,11,-1
 106 -65 l 1,12,-1
 61 -65 l 1,13,-1
 136 60 l 1,14,15
 61 143 61 143 61 330 c 2,16,-1
 61 356 l 2,17,18
 61 555.077922078 61 555.077922078 139.5 629.5 c 0,19,20
 178 666 178 666 223 681 c 128,-1,21
 268 696 268 696 327 696 c 0,22,23
 427 696 427 696 489 652 c 1,24,-1
 550 754 l 1,25,-1
 594 754 l 1,0,-1
115 368 m 2,26,-1
 115 318 l 2,27,28
 115 176 115 176 164 108 c 1,29,-1
 462 607 l 1,30,31
 413 648 413 648 327 648 c 0,32,33
 233.847457627 648 233.847457627 648 177.5 593.5 c 0,34,35
 115 533.049180328 115 533.049180328 115 368 c 2,26,-1
539 318 m 2,36,-1
 539 368 l 2,37,38
 539 509 539 509 489 578 c 1,39,-1
 191 79 l 1,40,41
 240 38 240 38 330.076271186 38 c 128,-1,42
 420.152542373 38 420.152542373 38 479.576271186 95.4754098361 c 128,-1,43
 539 152.950819672 539 152.950819672 539 318 c 2,36,-1
EndSplineSet
Position2: "'cpsp' Capital Spacing lookup 0 subtable" dx=5 dy=0 dh=10 dv=0
EndChar

StartChar: Otilde
Encoding: 213 213 65
Width: 690
GlyphClass: 2
Flags: MW
HStem: -10 48<268.5 385.5 268.5 400.5> 648 48<268.5 385.5> 751 50<393 436.5 393 452.5> 783 50<229.5 273>
VStem: 61 54<330 356 356 368 204.5 493.5> 539 54<318 330 330 356 192.5 368 192.5 481.5>
LayerCount: 2
Fore
SplineSet
477 833 m 1,0,-1
 514 833 l 1,1,2
 514 802 514 802 490 776.5 c 128,-1,3
 466 751 466 751 423 751 c 128,-1,4
 380 751 380 751 326 767 c 128,-1,5
 272 783 272 783 246 783 c 0,6,7
 199 783 199 783 189 751 c 1,8,-1
 152 751 l 1,9,10
 152 781 152 781 176 807 c 128,-1,11
 200 833 200 833 243 833 c 128,-1,12
 286 833 286 833 340 817 c 128,-1,13
 394 801 394 801 420 801 c 0,14,15
 467 801 467 801 477 833 c 1,0,-1
327 -10 m 128,-1,17
 268 -10 268 -10 223 5 c 128,-1,18
 178 20 178 20 139.5 56.5 c 0,19,20
 61 130.922077922 61 130.922077922 61 330 c 2,21,-1
 61 356 l 2,22,23
 61 555.077922078 61 555.077922078 139.5 629.5 c 0,24,25
 178 666 178 666 223 681 c 128,-1,26
 268 696 268 696 327 696 c 128,-1,27
 386 696 386 696 431 681 c 128,-1,28
 476 666 476 666 514.5 629.5 c 0,29,30
 593 555.077922078 593 555.077922078 593 356 c 2,31,-1
 593 330 l 2,32,33
 593 130.922077922 593 130.922077922 514.5 56.5 c 0,34,35
 476 20 476 20 431 5 c 128,-1,16
 386 -10 386 -10 327 -10 c 128,-1,17
327 38 m 0,36,37
 374 38 374 38 410 50.5 c 128,-1,38
 446 63 446 63 476.5 92.5 c 0,39,40
 539 152.950819672 539 152.950819672 539 318 c 2,41,-1
 539 368 l 2,42,43
 539 533.049180328 539 533.049180328 476.5 593.5 c 0,44,45
 420.152542373 648 420.152542373 648 327 648 c 128,-1,46
 233.847457627 648 233.847457627 648 177.5 593.5 c 0,47,48
 115 533.049180328 115 533.049180328 115 368 c 2,49,-1
 115 318 l 2,50,51
 115 152.950819672 115 152.950819672 177.5 92.5 c 0,52,53
 233.847457627 38 233.847457627 38 327 38 c 0,36,37
EndSplineSet
Position2: "'cpsp' Capital Spacing lookup 0 subtable" dx=5 dy=0 dh=10 dv=0
EndChar

StartChar: OE
Encoding: 338 338 66
Width: 1032
GlyphClass: 2
Flags: MW
HStem: -10 48<268.5 370> 0 48<593 962 593 973> 326 48<593 912 593 912> 638 48<593 953 593 593> 648 48<268.5 370 253.5 385.5>
VStem: 61 54<330 356 356 368 204.5 493.5> 539 54<48 87 87 87 318 326 48 368 374 481.5 598 638>
LayerCount: 2
Fore
SplineSet
539 0 m 1,0,-1
 539 87 l 1,1,2
 476 -10 476 -10 327 -10 c 0,3,4
 268 -10 268 -10 223 5 c 128,-1,5
 178 20 178 20 139.5 56.5 c 0,6,7
 61 130.922077922 61 130.922077922 61 330 c 2,8,-1
 61 356 l 2,9,10
 61 555.077922078 61 555.077922078 139.5 629.5 c 0,11,12
 178 666 178 666 223 681 c 128,-1,13
 268 696 268 696 327 696 c 0,14,15
 475 696 475 696 539 598 c 1,16,-1
 539 686 l 1,17,-1
 963 686 l 1,18,-1
 953 638 l 1,19,-1
 593 638 l 1,20,-1
 593 374 l 1,21,-1
 912 374 l 1,22,-1
 912 326 l 1,23,-1
 593 326 l 1,24,-1
 593 48 l 1,25,-1
 962 48 l 1,26,-1
 973 0 l 1,27,-1
 539 0 l 1,0,-1
327 38 m 0,28,29
 374 38 374 38 410 50.5 c 128,-1,30
 446 63 446 63 476.5 92.5 c 0,31,32
 539 152.950819672 539 152.950819672 539 318 c 2,33,-1
 539 368 l 2,34,35
 539 533.049180328 539 533.049180328 476.5 593.5 c 0,36,37
 420.152542373 648 420.152542373 648 327 648 c 128,-1,38
 233.847457627 648 233.847457627 648 177.5 593.5 c 0,39,40
 115 533.049180328 115 533.049180328 115 368 c 2,41,-1
 115 318 l 2,42,43
 115 152.950819672 115 152.950819672 177.5 92.5 c 0,44,45
 233.847457627 38 233.847457627 38 327 38 c 0,28,29
EndSplineSet
Position2: "'cpsp' Capital Spacing lookup 0 subtable" dx=5 dy=0 dh=10 dv=0
EndChar

StartChar: P
Encoding: 80 80 67
Width: 624
GlyphClass: 2
Flags: MW
HStem: 0 21G<92 146 92 92> 312 47<146 366 366 373 146 366> 638 48<146 366 146 146>
VStem: 92 54<0 312 359 638> 508 52<460 538>
LayerCount: 2
Fore
SplineSet
92 686 m 1,0,-1
 373 686 l 2,1,2
 450 686 450 686 505 631 c 128,-1,3
 560 576 560 576 560 499 c 128,-1,4
 560 422 560 422 505 367 c 128,-1,5
 450 312 450 312 373 312 c 2,6,-1
 146 312 l 1,7,-1
 146 0 l 1,8,-1
 92 0 l 1,9,-1
 92 686 l 1,0,-1
146 359 m 1,10,-1
 366 359 l 2,11,12
 425 359 425 359 466.5 400 c 128,-1,13
 508 441 508 441 508 499 c 128,-1,14
 508 557 508 557 466.5 597.5 c 128,-1,15
 425 638 425 638 366 638 c 2,16,-1
 146 638 l 1,17,-1
 146 359 l 1,10,-1
EndSplineSet
Position2: "'cpsp' Capital Spacing lookup 0 subtable" dx=5 dy=0 dh=10 dv=0
EndChar

StartChar: Thorn
Encoding: 222 222 68
Width: 633
GlyphClass: 2
Flags: MW
HStem: 0 21G<92 146 92 92> 177 47<146 366 366 373 146 366> 503 48<146 366 146 373> 503 183<92 366 92 146>
VStem: 92 54<0 177 224 503 551 686> 508 52<325 403>
LayerCount: 2
Fore
SplineSet
92 686 m 1,0,-1
 146 686 l 1,1,-1
 146 551 l 1,2,-1
 373 551 l 2,3,4
 450 551 450 551 505 496 c 128,-1,5
 560 441 560 441 560 364 c 128,-1,6
 560 287 560 287 505 232 c 128,-1,7
 450 177 450 177 373 177 c 2,8,-1
 146 177 l 1,9,-1
 146 0 l 1,10,-1
 92 0 l 1,11,-1
 92 686 l 1,0,-1
146 224 m 1,12,-1
 366 224 l 2,13,14
 425 224 425 224 466.5 265 c 128,-1,15
 508 306 508 306 508 364 c 128,-1,16
 508 422 508 422 466.5 462.5 c 128,-1,17
 425 503 425 503 366 503 c 2,18,-1
 146 503 l 1,19,-1
 146 224 l 1,12,-1
EndSplineSet
Position2: "'cpsp' Capital Spacing lookup 0 subtable" dx=5 dy=0 dh=10 dv=0
EndChar

StartChar: Q
Encoding: 81 81 69
Width: 690
GlyphClass: 2
Flags: MW
HStem: -137 47<425.5 486.5 425.5 495.5> -9 47 648 48<268.5 385.5>
VStem: 61 54<330 356 356 368 204.5 493.5> 539 54<318 330 330 356 201.5 368 201.5 481.5>
LayerCount: 2
Fore
SplineSet
593 356 m 2,0,-1
 593 330 l 2,1,2
 593 143.76119403 593 143.76119403 523.5 67 c 0,3,4
 490 30 490 30 449.5 12.5 c 128,-1,5
 409 -5 409 -5 355 -9 c 1,6,7
 361 -43 361 -43 386.5 -66.5 c 128,-1,8
 412 -90 412 -90 463 -90 c 0,9,10
 505 -90 505 -90 541 -76 c 128,-1,11
 577 -62 577 -62 577 -61 c 2,12,-1
 577 -110 l 1,13,14
 527 -137 527 -137 464 -137 c 0,15,16
 323 -137 323 -137 305 -9 c 1,17,18
 196.902339776 -5.06917599186 196.902339776 -5.06917599186 132.5 64 c 0,19,20
 61 140.68115942 61 140.68115942 61 330 c 2,21,-1
 61 356 l 2,22,23
 61 555.077922078 61 555.077922078 139.5 629.5 c 0,24,25
 178 666 178 666 223 681 c 128,-1,26
 268 696 268 696 327 696 c 128,-1,27
 386 696 386 696 431 681 c 128,-1,28
 476 666 476 666 514.5 629.5 c 0,29,30
 593 555.077922078 593 555.077922078 593 356 c 2,0,-1
327 38 m 0,31,32
 374 38 374 38 410 50.5 c 128,-1,33
 446 63 446 63 476.5 92.5 c 0,34,35
 539 152.950819672 539 152.950819672 539 318 c 2,36,-1
 539 368 l 2,37,38
 539 533.049180328 539 533.049180328 476.5 593.5 c 0,39,40
 420.152542373 648 420.152542373 648 327 648 c 128,-1,41
 233.847457627 648 233.847457627 648 177.5 593.5 c 0,42,43
 115 533.049180328 115 533.049180328 115 368 c 2,44,-1
 115 318 l 2,45,46
 115 152.950819672 115 152.950819672 177.5 92.5 c 0,47,48
 233.847457627 38 233.847457627 38 327 38 c 0,31,32
EndSplineSet
Position2: "'cpsp' Capital Spacing lookup 0 subtable" dx=5 dy=0 dh=10 dv=0
EndChar

StartChar: R
Encoding: 82 82 70
Width: 670
GlyphClass: 2
Flags: MW
HStem: -3 21G<558.5 581> 0 20 326 48<146 367 146 374> 638 48<146 371 371 374 146 146>
VStem: 92 54<0 326 374 638> 496 52<91.5 220> 508 53<479.5 544>
AnchorPoint: "Bottom" 335 0 basechar 0
LayerCount: 2
Fore
SplineSet
599 20 m 1,0,-1
 599 1 l 1,1,2
 588 -3 588 -3 574 -3 c 0,3,4
 496 -3 496 -3 496 127 c 0,5,6
 496 180 496 180 485.5 219 c 128,-1,7
 475 258 475 258 460.5 277.5 c 128,-1,8
 446 297 446 297 426 309 c 0,9,10
 397.666666667 326 397.666666667 326 367 326 c 2,11,-1
 146 326 l 1,12,-1
 146 0 l 1,13,-1
 92 0 l 1,14,-1
 92 686 l 1,15,-1
 371 686 l 2,16,17
 447 686 447 686 504 638.5 c 128,-1,18
 561 591 561 591 561 516 c 0,19,20
 561 460 561 460 525.5 412 c 128,-1,21
 490 364 490 364 438 354 c 1,22,-1
 438 349 l 1,23,24
 480.146341463 338.463414634 480.146341463 338.463414634 509.5 300 c 0,25,26
 524 281 524 281 536 242 c 128,-1,27
 548 203 548 203 548 165 c 128,-1,28
 548 127 548 127 549 107.5 c 128,-1,29
 550 88 550 88 554 74.5 c 128,-1,30
 558 61 558 61 559.5 53 c 128,-1,31
 561 45 561 45 568.5 38.5 c 128,-1,32
 576 32 576 32 577.5 30.5 c 128,-1,33
 579 29 579 29 589 24.5 c 2,34,-1
 599 20 l 1,0,-1
146 374 m 1,35,-1
 374 374 l 2,36,37
 430 374 430 374 469 413 c 128,-1,38
 508 452 508 452 508 507 c 128,-1,39
 508 562 508 562 469 600 c 128,-1,40
 430 638 430 638 374 638 c 2,41,-1
 146 638 l 1,42,-1
 146 374 l 1,35,-1
EndSplineSet
Position2: "'cpsp' Capital Spacing lookup 0 subtable" dx=5 dy=0 dh=10 dv=0
EndChar

StartChar: Racute
Encoding: 340 340 71
Width: 670
GlyphClass: 2
Flags: MW
HStem: -3 21G<558.5 581> 0 20 326 48<146 367 146 374> 638 48<146 371 371 374 146 146> 750 145<274 435 274 435>
VStem: 92 54<0 326 374 638> 496 52<91.5 220> 508 53<479.5 544>
AnchorPoint: "Bottom" 335 0 basechar 0
LayerCount: 2
Fore
SplineSet
370 895 m 1,0,-1
 435 895 l 1,1,-1
 435 892 l 1,2,-1
 324 750 l 1,3,-1
 274 750 l 1,4,-1
 370 895 l 1,0,-1
599 20 m 1,5,-1
 599 1 l 1,6,7
 588 -3 588 -3 574 -3 c 0,8,9
 496 -3 496 -3 496 127 c 0,10,11
 496 180 496 180 485.5 219 c 128,-1,12
 475 258 475 258 460.5 277.5 c 128,-1,13
 446 297 446 297 426 309 c 0,14,15
 397.666666667 326 397.666666667 326 367 326 c 2,16,-1
 146 326 l 1,17,-1
 146 0 l 1,18,-1
 92 0 l 1,19,-1
 92 686 l 1,20,-1
 371 686 l 2,21,22
 447 686 447 686 504 638.5 c 128,-1,23
 561 591 561 591 561 516 c 0,24,25
 561 460 561 460 525.5 412 c 128,-1,26
 490 364 490 364 438 354 c 1,27,-1
 438 349 l 1,28,29
 480.146341463 338.463414634 480.146341463 338.463414634 509.5 300 c 0,30,31
 524 281 524 281 536 242 c 128,-1,32
 548 203 548 203 548 165 c 128,-1,33
 548 127 548 127 549 107.5 c 128,-1,34
 550 88 550 88 554 74.5 c 128,-1,35
 558 61 558 61 559.5 53 c 128,-1,36
 561 45 561 45 568.5 38.5 c 128,-1,37
 576 32 576 32 577.5 30.5 c 128,-1,38
 579 29 579 29 589 24.5 c 2,39,-1
 599 20 l 1,5,-1
146 374 m 1,40,-1
 374 374 l 2,41,42
 430 374 430 374 469 413 c 128,-1,43
 508 452 508 452 508 507 c 128,-1,44
 508 562 508 562 469 600 c 128,-1,45
 430 638 430 638 374 638 c 2,46,-1
 146 638 l 1,47,-1
 146 374 l 1,40,-1
EndSplineSet
EndChar

StartChar: Rcaron
Encoding: 344 344 72
Width: 670
GlyphClass: 2
Flags: MW
HStem: -3 21G<558.5 581> 0 20 326 48<146 367 146 374> 638 48<146 371 371 374 146 146> 750 145<142 334 142 276>
VStem: 92 54<0 326 374 638> 496 52<91.5 220> 508 53<479.5 544>
AnchorPoint: "Bottom" 335 0 basechar 0
LayerCount: 2
Fore
SplineSet
202 895 m 1,0,-1
 305 798 l 1,1,-1
 408 895 l 1,2,-1
 468 895 l 1,3,-1
 334 750 l 1,4,-1
 276 750 l 1,5,-1
 142 895 l 1,6,-1
 202 895 l 1,0,-1
599 20 m 1,7,-1
 599 1 l 1,8,9
 588 -3 588 -3 574 -3 c 0,10,11
 496 -3 496 -3 496 127 c 0,12,13
 496 180 496 180 485.5 219 c 128,-1,14
 475 258 475 258 460.5 277.5 c 128,-1,15
 446 297 446 297 426 309 c 0,16,17
 397.666666667 326 397.666666667 326 367 326 c 2,18,-1
 146 326 l 1,19,-1
 146 0 l 1,20,-1
 92 0 l 1,21,-1
 92 686 l 1,22,-1
 371 686 l 2,23,24
 447 686 447 686 504 638.5 c 128,-1,25
 561 591 561 591 561 516 c 0,26,27
 561 460 561 460 525.5 412 c 128,-1,28
 490 364 490 364 438 354 c 1,29,-1
 438 349 l 1,30,31
 480.146341463 338.463414634 480.146341463 338.463414634 509.5 300 c 0,32,33
 524 281 524 281 536 242 c 128,-1,34
 548 203 548 203 548 165 c 128,-1,35
 548 127 548 127 549 107.5 c 128,-1,36
 550 88 550 88 554 74.5 c 128,-1,37
 558 61 558 61 559.5 53 c 128,-1,38
 561 45 561 45 568.5 38.5 c 128,-1,39
 576 32 576 32 577.5 30.5 c 128,-1,40
 579 29 579 29 589 24.5 c 2,41,-1
 599 20 l 1,7,-1
146 374 m 1,42,-1
 374 374 l 2,43,44
 430 374 430 374 469 413 c 128,-1,45
 508 452 508 452 508 507 c 128,-1,46
 508 562 508 562 469 600 c 128,-1,47
 430 638 430 638 374 638 c 2,48,-1
 146 638 l 1,49,-1
 146 374 l 1,42,-1
EndSplineSet
EndChar

StartChar: Rcommaaccent
Encoding: 342 342 73
Width: 670
GlyphClass: 2
Flags: MW
HStem: -149 69<301 325 301 366> -3 21G<558.5 581> 0 20 326 48<146 367 146 374> 638 48<146 371 371 374 146 146>
VStem: 92 54<0 326 374 638> 301 65<-138 -80 -138 -80 -138 -80> 496 52<91.5 220> 508 53<479.5 544>
AnchorPoint: "Bottom" 335 0 basechar 0
LayerCount: 2
Fore
SplineSet
599 20 m 1,0,-1
 599 1 l 1,1,2
 588 -3 588 -3 574 -3 c 0,3,4
 496 -3 496 -3 496 127 c 0,5,6
 496 180 496 180 485.5 219 c 128,-1,7
 475 258 475 258 460.5 277.5 c 128,-1,8
 446 297 446 297 426 309 c 0,9,10
 397.666666667 326 397.666666667 326 367 326 c 2,11,-1
 146 326 l 1,12,-1
 146 0 l 1,13,-1
 92 0 l 1,14,-1
 92 686 l 1,15,-1
 371 686 l 2,16,17
 447 686 447 686 504 638.5 c 128,-1,18
 561 591 561 591 561 516 c 0,19,20
 561 460 561 460 525.5 412 c 128,-1,21
 490 364 490 364 438 354 c 1,22,-1
 438 349 l 1,23,24
 480.146341463 338.463414634 480.146341463 338.463414634 509.5 300 c 0,25,26
 524 281 524 281 536 242 c 128,-1,27
 548 203 548 203 548 165 c 128,-1,28
 548 127 548 127 549 107.5 c 128,-1,29
 550 88 550 88 554 74.5 c 128,-1,30
 558 61 558 61 559.5 53 c 128,-1,31
 561 45 561 45 568.5 38.5 c 128,-1,32
 576 32 576 32 577.5 30.5 c 128,-1,33
 579 29 579 29 589 24.5 c 2,34,-1
 599 20 l 1,0,-1
146 374 m 1,35,-1
 374 374 l 2,36,37
 430 374 430 374 469 413 c 128,-1,38
 508 452 508 452 508 507 c 128,-1,39
 508 562 508 562 469 600 c 128,-1,40
 430 638 430 638 374 638 c 2,41,-1
 146 638 l 1,42,-1
 146 374 l 1,35,-1
336 -250 m 1,43,-1
 302 -250 l 1,44,-1
 325 -149 l 1,45,-1
 301 -149 l 1,46,-1
 301 -80 l 1,47,-1
 366 -80 l 1,48,-1
 366 -138 l 1,49,-1
 336 -250 l 1,43,-1
EndSplineSet
EndChar

StartChar: S
Encoding: 83 83 74
Width: 627
GlyphClass: 2
Flags: MW
HStem: -10 48<242.5 349.5 242.5 366> 648 48<248.5 345.5>
VStem: 52 51<126 178 126 190> 69 53<428.5 570 428.5 587> 473 50<503 516 503 525 503 566.5> 490 53<128.5 290.5>
AnchorPoint: "Bottom" 314 0 basechar 0
LayerCount: 2
Fore
SplineSet
473 503 m 1,0,-1
 473 525 l 2,1,2
 473 585 473 585 423.5 616.5 c 128,-1,3
 374 648 374 648 296 648 c 0,4,5
 218 648 218 648 170 618.5 c 128,-1,6
 122 589 122 589 122 530.5 c 0,7,8
 122 472 122 472 165.5 441.5 c 128,-1,9
 209 411 209 411 270.5 396.5 c 128,-1,10
 332 382 332 382 394 364 c 128,-1,11
 456 346 456 346 499.5 303 c 128,-1,12
 543 260 543 260 543 188 c 0,13,14
 543 85 543 85 475.5 37.5 c 128,-1,15
 408 -10 408 -10 298 -10 c 0,16,17
 188 -10 188 -10 120 36.5 c 128,-1,18
 52 83 52 83 52 187 c 1,19,-1
 53 205 l 1,20,-1
 104 205 l 1,21,-1
 103 178 l 1,22,23
 103 105 103 105 156 71.5 c 128,-1,24
 209 38 209 38 296 38 c 0,25,26
 490 38 490 38 490 185 c 0,27,28
 490 243 490 243 446.5 276.5 c 128,-1,29
 403 310 403 310 341.5 325.5 c 128,-1,30
 280 341 280 341 218 358.5 c 128,-1,31
 156 376 156 376 112.5 417.5 c 128,-1,32
 69 459 69 459 69 528 c 0,33,34
 69 612 69 612 133.5 654 c 128,-1,35
 198 696 198 696 297.5 696 c 0,36,37
 397 696 397 696 460 652 c 128,-1,38
 523 608 523 608 523 516 c 2,39,-1
 523 503 l 1,40,-1
 473 503 l 1,0,-1
EndSplineSet
Position2: "'cpsp' Capital Spacing lookup 0 subtable" dx=5 dy=0 dh=10 dv=0
EndChar

StartChar: Sacute
Encoding: 346 346 75
Width: 627
GlyphClass: 2
Flags: MW
HStem: -10 48<242.5 349.5 242.5 366> 648 48<248.5 345.5> 750 145<263 424 263 424>
VStem: 52 51<126 178 126 190> 69 53<428.5 570 428.5 587> 473 50<503 516 503 525 503 566.5> 490 53<128.5 290.5>
AnchorPoint: "Bottom" 314 0 basechar 0
LayerCount: 2
Fore
SplineSet
359 895 m 1,0,-1
 424 895 l 1,1,-1
 424 892 l 1,2,-1
 313 750 l 1,3,-1
 263 750 l 1,4,-1
 359 895 l 1,0,-1
473 503 m 1,5,-1
 473 525 l 2,6,7
 473 585 473 585 423.5 616.5 c 128,-1,8
 374 648 374 648 296 648 c 0,9,10
 218 648 218 648 170 618.5 c 128,-1,11
 122 589 122 589 122 530.5 c 0,12,13
 122 472 122 472 165.5 441.5 c 128,-1,14
 209 411 209 411 270.5 396.5 c 128,-1,15
 332 382 332 382 394 364 c 128,-1,16
 456 346 456 346 499.5 303 c 128,-1,17
 543 260 543 260 543 188 c 0,18,19
 543 85 543 85 475.5 37.5 c 128,-1,20
 408 -10 408 -10 298 -10 c 0,21,22
 188 -10 188 -10 120 36.5 c 128,-1,23
 52 83 52 83 52 187 c 1,24,-1
 53 205 l 1,25,-1
 104 205 l 1,26,-1
 103 178 l 1,27,28
 103 105 103 105 156 71.5 c 128,-1,29
 209 38 209 38 296 38 c 0,30,31
 490 38 490 38 490 185 c 0,32,33
 490 243 490 243 446.5 276.5 c 128,-1,34
 403 310 403 310 341.5 325.5 c 128,-1,35
 280 341 280 341 218 358.5 c 128,-1,36
 156 376 156 376 112.5 417.5 c 128,-1,37
 69 459 69 459 69 528 c 0,38,39
 69 612 69 612 133.5 654 c 128,-1,40
 198 696 198 696 297.5 696 c 0,41,42
 397 696 397 696 460 652 c 128,-1,43
 523 608 523 608 523 516 c 2,44,-1
 523 503 l 1,45,-1
 473 503 l 1,5,-1
EndSplineSet
EndChar

StartChar: Scaron
Encoding: 352 352 76
Width: 627
GlyphClass: 2
Flags: MW
HStem: -10 48<242.5 349.5 242.5 366> 648 48<248.5 345.5> 750 145<139 331 139 273>
VStem: 52 51<126 178 126 190> 69 53<428.5 570 428.5 587> 473 50<503 516 503 525 503 566.5> 490 53<128.5 290.5>
LayerCount: 2
Fore
SplineSet
199 895 m 1,0,-1
 302 798 l 1,1,-1
 405 895 l 1,2,-1
 465 895 l 1,3,-1
 331 750 l 1,4,-1
 273 750 l 1,5,-1
 139 895 l 1,6,-1
 199 895 l 1,0,-1
473 503 m 1,7,-1
 473 525 l 2,8,9
 473 585 473 585 423.5 616.5 c 128,-1,10
 374 648 374 648 296 648 c 0,11,12
 218 648 218 648 170 618.5 c 128,-1,13
 122 589 122 589 122 530.5 c 0,14,15
 122 472 122 472 165.5 441.5 c 128,-1,16
 209 411 209 411 270.5 396.5 c 128,-1,17
 332 382 332 382 394 364 c 128,-1,18
 456 346 456 346 499.5 303 c 128,-1,19
 543 260 543 260 543 188 c 0,20,21
 543 85 543 85 475.5 37.5 c 128,-1,22
 408 -10 408 -10 298 -10 c 0,23,24
 188 -10 188 -10 120 36.5 c 128,-1,25
 52 83 52 83 52 187 c 1,26,-1
 53 205 l 1,27,-1
 104 205 l 1,28,-1
 103 178 l 1,29,30
 103 105 103 105 156 71.5 c 128,-1,31
 209 38 209 38 296 38 c 0,32,33
 490 38 490 38 490 185 c 0,34,35
 490 243 490 243 446.5 276.5 c 128,-1,36
 403 310 403 310 341.5 325.5 c 128,-1,37
 280 341 280 341 218 358.5 c 128,-1,38
 156 376 156 376 112.5 417.5 c 128,-1,39
 69 459 69 459 69 528 c 0,40,41
 69 612 69 612 133.5 654 c 128,-1,42
 198 696 198 696 297.5 696 c 0,43,44
 397 696 397 696 460 652 c 128,-1,45
 523 608 523 608 523 516 c 2,46,-1
 523 503 l 1,47,-1
 473 503 l 1,7,-1
EndSplineSet
Position2: "'cpsp' Capital Spacing lookup 0 subtable" dx=5 dy=0 dh=10 dv=0
EndChar

StartChar: Scedilla
Encoding: 350 350 77
Width: 627
GlyphClass: 2
Flags: MW
HStem: -197 46<281.5 303.5 268.5 317> -184 21G<216 216> -51 34<281 303 281 306> -10 48<242.5 349.5 242.5 366> 648 48<248.5 345.5>
VStem: 52 51<126 178 126 190> 69 53<428.5 570 428.5 587> 361 51<-118.5 -81.5> 473 50<503 516 503 525 503 566.5> 490 53<128.5 290.5>
AnchorPoint: "Bottom" 314 0 basechar 0
LayerCount: 2
Fore
SplineSet
473 503 m 1,0,-1
 473 525 l 2,1,2
 473 585 473 585 423.5 616.5 c 128,-1,3
 374 648 374 648 296 648 c 0,4,5
 218 648 218 648 170 618.5 c 128,-1,6
 122 589 122 589 122 530.5 c 0,7,8
 122 472 122 472 165.5 441.5 c 128,-1,9
 209 411 209 411 270.5 396.5 c 128,-1,10
 332 382 332 382 394 364 c 128,-1,11
 456 346 456 346 499.5 303 c 128,-1,12
 543 260 543 260 543 188 c 0,13,14
 543 85 543 85 475.5 37.5 c 128,-1,15
 408 -10 408 -10 298 -10 c 0,16,17
 188 -10 188 -10 120 36.5 c 128,-1,18
 52 83 52 83 52 187 c 1,19,-1
 53 205 l 1,20,-1
 104 205 l 1,21,-1
 103 178 l 1,22,23
 103 105 103 105 156 71.5 c 128,-1,24
 209 38 209 38 296 38 c 0,25,26
 490 38 490 38 490 185 c 0,27,28
 490 243 490 243 446.5 276.5 c 128,-1,29
 403 310 403 310 341.5 325.5 c 128,-1,30
 280 341 280 341 218 358.5 c 128,-1,31
 156 376 156 376 112.5 417.5 c 128,-1,32
 69 459 69 459 69 528 c 0,33,34
 69 612 69 612 133.5 654 c 128,-1,35
 198 696 198 696 297.5 696 c 0,36,37
 397 696 397 696 460 652 c 128,-1,38
 523 608 523 608 523 516 c 2,39,-1
 523 503 l 1,40,-1
 473 503 l 1,0,-1
216 -184 m 1,41,-1
 216 -138 l 1,42,43
 240 -151 240 -151 285 -151 c 0,44,45
 361 -151 361 -151 361 -97 c 0,46,47
 361 -75 361 -75 343.5 -63 c 128,-1,48
 326 -51 326 -51 303 -51 c 2,49,-1
 281 -51 l 1,50,-1
 281 -17 l 1,51,-1
 306 -17 l 2,52,53
 412 -17 412 -17 412 -106 c 0,54,55
 412 -155 412 -155 375.5 -176 c 128,-1,56
 339 -197 339 -197 295 -197 c 0,57,58
 251 -197 251 -197 216 -184 c 1,41,-1
EndSplineSet
EndChar

StartChar: Scommaaccent
Encoding: 536 536 78
Width: 627
GlyphClass: 2
Flags: MW
HStem: -149 69<280 304 280 345> -10 48<242.5 349.5 242.5 366> 648 48<248.5 345.5>
VStem: 52 51<126 178 126 190> 69 53<428.5 570 428.5 587> 280 65<-138 -80 -138 -80 -138 -80> 473 50<503 516 503 525 503 566.5> 490 53<128.5 290.5>
AnchorPoint: "Bottom" 314 0 basechar 0
LayerCount: 2
Fore
SplineSet
473 503 m 1,0,-1
 473 525 l 2,1,2
 473 585 473 585 423.5 616.5 c 128,-1,3
 374 648 374 648 296 648 c 0,4,5
 218 648 218 648 170 618.5 c 128,-1,6
 122 589 122 589 122 530.5 c 0,7,8
 122 472 122 472 165.5 441.5 c 128,-1,9
 209 411 209 411 270.5 396.5 c 128,-1,10
 332 382 332 382 394 364 c 128,-1,11
 456 346 456 346 499.5 303 c 128,-1,12
 543 260 543 260 543 188 c 0,13,14
 543 85 543 85 475.5 37.5 c 128,-1,15
 408 -10 408 -10 298 -10 c 0,16,17
 188 -10 188 -10 120 36.5 c 128,-1,18
 52 83 52 83 52 187 c 1,19,-1
 53 205 l 1,20,-1
 104 205 l 1,21,-1
 103 178 l 1,22,23
 103 105 103 105 156 71.5 c 128,-1,24
 209 38 209 38 296 38 c 0,25,26
 490 38 490 38 490 185 c 0,27,28
 490 243 490 243 446.5 276.5 c 128,-1,29
 403 310 403 310 341.5 325.5 c 128,-1,30
 280 341 280 341 218 358.5 c 128,-1,31
 156 376 156 376 112.5 417.5 c 128,-1,32
 69 459 69 459 69 528 c 0,33,34
 69 612 69 612 133.5 654 c 128,-1,35
 198 696 198 696 297.5 696 c 0,36,37
 397 696 397 696 460 652 c 128,-1,38
 523 608 523 608 523 516 c 2,39,-1
 523 503 l 1,40,-1
 473 503 l 1,0,-1
315 -250 m 1,41,-1
 281 -250 l 1,42,-1
 304 -149 l 1,43,-1
 280 -149 l 1,44,-1
 280 -80 l 1,45,-1
 345 -80 l 1,46,-1
 345 -138 l 1,47,-1
 315 -250 l 1,41,-1
EndSplineSet
EndChar

StartChar: T
Encoding: 84 84 79
Width: 578
GlyphClass: 2
Flags: MW
HStem: 0 21G<257 309 257 257> 638 48<25 257 25 541 309 309 309 541>
VStem: 257 52<0 638>
AnchorPoint: "Bottom" 283 0 basechar 0
LayerCount: 2
Fore
SplineSet
309 0 m 1,0,-1
 257 0 l 1,1,-1
 257 638 l 1,2,-1
 25 638 l 1,3,-1
 25 686 l 1,4,-1
 541 686 l 1,5,-1
 541 638 l 1,6,-1
 309 638 l 1,7,-1
 309 0 l 1,0,-1
EndSplineSet
Position2: "'cpsp' Capital Spacing lookup 0 subtable" dx=5 dy=0 dh=10 dv=0
EndChar

StartChar: Tcaron
Encoding: 356 356 80
Width: 578
GlyphClass: 2
Flags: MW
HStem: 0 21G<257 309 257 257> 638 48<25 257 25 541 309 309 309 541> 750 145<120 312 120 254>
VStem: 257 52<0 638>
AnchorPoint: "Bottom" 283 0 basechar 0
LayerCount: 2
Fore
SplineSet
180 895 m 1,0,-1
 283 798 l 1,1,-1
 386 895 l 1,2,-1
 446 895 l 1,3,-1
 312 750 l 1,4,-1
 254 750 l 1,5,-1
 120 895 l 1,6,-1
 180 895 l 1,0,-1
309 0 m 1,7,-1
 257 0 l 1,8,-1
 257 638 l 1,9,-1
 25 638 l 1,10,-1
 25 686 l 1,11,-1
 541 686 l 1,12,-1
 541 638 l 1,13,-1
 309 638 l 1,14,-1
 309 0 l 1,7,-1
EndSplineSet
EndChar

StartChar: Tcedilla
Encoding: 354 354 81
Width: 578
GlyphClass: 2
Flags: MW
HStem: -197 46<250.5 272.5 237.5 286> -184 21G<185 185> -51 34<250 272 250 275> 0 21G<257 309 257 257> 638 48<25 257 25 541 309 309 309 541>
VStem: 257 52<0 638> 330 51<-118.5 -81.5>
AnchorPoint: "Bottom" 283 0 basechar 0
LayerCount: 2
Fore
SplineSet
309 0 m 1,0,-1
 257 0 l 1,1,-1
 257 638 l 1,2,-1
 25 638 l 1,3,-1
 25 686 l 1,4,-1
 541 686 l 1,5,-1
 541 638 l 1,6,-1
 309 638 l 1,7,-1
 309 0 l 1,0,-1
185 -184 m 1,8,-1
 185 -138 l 1,9,10
 209 -151 209 -151 254 -151 c 0,11,12
 330 -151 330 -151 330 -97 c 0,13,14
 330 -75 330 -75 312.5 -63 c 128,-1,15
 295 -51 295 -51 272 -51 c 2,16,-1
 250 -51 l 1,17,-1
 250 -17 l 1,18,-1
 275 -17 l 2,19,20
 381 -17 381 -17 381 -106 c 0,21,22
 381 -155 381 -155 344.5 -176 c 128,-1,23
 308 -197 308 -197 264 -197 c 0,24,25
 220 -197 220 -197 185 -184 c 1,8,-1
EndSplineSet
EndChar

StartChar: Tcommaaccent
Encoding: 538 538 82
Width: 578
GlyphClass: 2
Flags: MW
HStem: -149 69<249 273 249 314> 0 21G<257 309 257 257> 638 48<25 257 25 541 309 309 309 541>
VStem: 249 65<-138 -80 -138 -80 -138 -80> 257 52<0 638>
AnchorPoint: "Bottom" 283 0 basechar 0
LayerCount: 2
Fore
SplineSet
309 0 m 1,0,-1
 257 0 l 1,1,-1
 257 638 l 1,2,-1
 25 638 l 1,3,-1
 25 686 l 1,4,-1
 541 686 l 1,5,-1
 541 638 l 1,6,-1
 309 638 l 1,7,-1
 309 0 l 1,0,-1
284 -250 m 1,8,-1
 250 -250 l 1,9,-1
 273 -149 l 1,10,-1
 249 -149 l 1,11,-1
 249 -80 l 1,12,-1
 314 -80 l 1,13,-1
 314 -138 l 1,14,-1
 284 -250 l 1,8,-1
EndSplineSet
EndChar

StartChar: U
Encoding: 85 85 83
Width: 680
GlyphClass: 2
Flags: MW
HStem: -10 48<265 383.5 265 396> 666 20G<86 140 140 140 509 563 563 563>
VStem: 86 54<220 222 222 686> 509 54<222 686>
LayerCount: 2
Fore
SplineSet
563 686 m 1,0,-1
 563 220 l 2,1,2
 563 116 563 116 497.5 53 c 128,-1,3
 432 -10 432 -10 324 -10 c 128,-1,4
 216 -10 216 -10 151 53 c 128,-1,5
 86 116 86 116 86 220 c 2,6,-1
 86 686 l 1,7,-1
 140 686 l 1,8,-1
 140 222 l 2,9,10
 140 137 140 137 188.5 87.5 c 128,-1,11
 237 38 237 38 324 38 c 128,-1,12
 411 38 411 38 460 88.5 c 128,-1,13
 509 139 509 139 509 222 c 2,14,-1
 509 686 l 1,15,-1
 563 686 l 1,0,-1
EndSplineSet
Position2: "'cpsp' Capital Spacing lookup 0 subtable" dx=5 dy=0 dh=10 dv=0
EndChar

StartChar: Uacute
Encoding: 218 218 84
Width: 680
GlyphClass: 2
Flags: MW
HStem: -10 48<265 383.5 265 396> 666 20G<86 140 140 140 509 563 563 563> 750 145<298 459 298 459>
VStem: 86 54<220 222 222 686> 509 54<222 686>
LayerCount: 2
Fore
SplineSet
394 895 m 1,0,-1
 459 895 l 1,1,-1
 459 892 l 1,2,-1
 348 750 l 1,3,-1
 298 750 l 1,4,-1
 394 895 l 1,0,-1
563 686 m 1,5,-1
 563 220 l 2,6,7
 563 116 563 116 497.5 53 c 128,-1,8
 432 -10 432 -10 324 -10 c 128,-1,9
 216 -10 216 -10 151 53 c 128,-1,10
 86 116 86 116 86 220 c 2,11,-1
 86 686 l 1,12,-1
 140 686 l 1,13,-1
 140 222 l 2,14,15
 140 137 140 137 188.5 87.5 c 128,-1,16
 237 38 237 38 324 38 c 128,-1,17
 411 38 411 38 460 88.5 c 128,-1,18
 509 139 509 139 509 222 c 2,19,-1
 509 686 l 1,20,-1
 563 686 l 1,5,-1
EndSplineSet
Position2: "'cpsp' Capital Spacing lookup 0 subtable" dx=5 dy=0 dh=10 dv=0
EndChar

StartChar: Ucircumflex
Encoding: 219 219 85
Width: 680
GlyphClass: 2
Flags: MW
HStem: -10 48<265 383.5 265 396> 666 20G<86 140 140 140 509 563 563 563> 750 145<162 354 162 354 296 488 296 428>
VStem: 86 54<220 222 222 686> 509 54<222 686>
LayerCount: 2
Fore
SplineSet
354 895 m 1,0,-1
 488 750 l 1,1,-1
 428 750 l 1,2,-1
 325 847 l 1,3,-1
 222 750 l 1,4,-1
 162 750 l 1,5,-1
 296 895 l 1,6,-1
 354 895 l 1,0,-1
563 686 m 1,7,-1
 563 220 l 2,8,9
 563 116 563 116 497.5 53 c 128,-1,10
 432 -10 432 -10 324 -10 c 128,-1,11
 216 -10 216 -10 151 53 c 128,-1,12
 86 116 86 116 86 220 c 2,13,-1
 86 686 l 1,14,-1
 140 686 l 1,15,-1
 140 222 l 2,16,17
 140 137 140 137 188.5 87.5 c 128,-1,18
 237 38 237 38 324 38 c 128,-1,19
 411 38 411 38 460 88.5 c 128,-1,20
 509 139 509 139 509 222 c 2,21,-1
 509 686 l 1,22,-1
 563 686 l 1,7,-1
EndSplineSet
Position2: "'cpsp' Capital Spacing lookup 0 subtable" dx=5 dy=0 dh=10 dv=0
EndChar

StartChar: Udieresis
Encoding: 220 220 86
Width: 680
GlyphClass: 2
Flags: MW
HStem: -10 48<265 383.5 265 396> 666 20G<86 140 140 140 509 563 563 563> 751 69<204 269 204 269 380 445>
VStem: 86 54<220 222 222 686> 204 65<751 820 751 820> 380 65<751 820 751 820> 509 54<222 686>
LayerCount: 2
Fore
SplineSet
269 820 m 1,0,-1
 269 751 l 1,1,-1
 204 751 l 1,2,-1
 204 820 l 1,3,-1
 269 820 l 1,0,-1
445 820 m 1,4,-1
 445 751 l 1,5,-1
 380 751 l 1,6,-1
 380 820 l 1,7,-1
 445 820 l 1,4,-1
563 686 m 1,8,-1
 563 220 l 2,9,10
 563 116 563 116 497.5 53 c 128,-1,11
 432 -10 432 -10 324 -10 c 128,-1,12
 216 -10 216 -10 151 53 c 128,-1,13
 86 116 86 116 86 220 c 2,14,-1
 86 686 l 1,15,-1
 140 686 l 1,16,-1
 140 222 l 2,17,18
 140 137 140 137 188.5 87.5 c 128,-1,19
 237 38 237 38 324 38 c 128,-1,20
 411 38 411 38 460 88.5 c 128,-1,21
 509 139 509 139 509 222 c 2,22,-1
 509 686 l 1,23,-1
 563 686 l 1,8,-1
EndSplineSet
Position2: "'cpsp' Capital Spacing lookup 0 subtable" dx=5 dy=0 dh=10 dv=0
EndChar

StartChar: Ugrave
Encoding: 217 217 87
Width: 680
GlyphClass: 2
Flags: MW
HStem: -10 48<265 383.5 265 396> 666 20G<86 140 140 140 509 563 563 563> 750 145<195 356 195 306>
VStem: 86 54<220 222 222 686> 509 54<222 686>
LayerCount: 2
Fore
SplineSet
195 892 m 1,0,-1
 195 895 l 1,1,-1
 260 895 l 1,2,-1
 356 750 l 1,3,-1
 306 750 l 1,4,-1
 195 892 l 1,0,-1
563 686 m 1,5,-1
 563 220 l 2,6,7
 563 116 563 116 497.5 53 c 128,-1,8
 432 -10 432 -10 324 -10 c 128,-1,9
 216 -10 216 -10 151 53 c 128,-1,10
 86 116 86 116 86 220 c 2,11,-1
 86 686 l 1,12,-1
 140 686 l 1,13,-1
 140 222 l 2,14,15
 140 137 140 137 188.5 87.5 c 128,-1,16
 237 38 237 38 324 38 c 128,-1,17
 411 38 411 38 460 88.5 c 128,-1,18
 509 139 509 139 509 222 c 2,19,-1
 509 686 l 1,20,-1
 563 686 l 1,5,-1
EndSplineSet
Position2: "'cpsp' Capital Spacing lookup 0 subtable" dx=5 dy=0 dh=10 dv=0
EndChar

StartChar: Uhungarumlaut
Encoding: 368 368 88
Width: 680
GlyphClass: 2
Flags: MW
HStem: -10 48<265 383.5 265 396> 666 20G<86 140 140 140 509 563 563 563> 750 145<242 402 242 402 367 367 367 402 338 417>
VStem: 86 54<220 222 222 686> 509 54<222 686>
LayerCount: 2
Fore
SplineSet
338 895 m 1,0,-1
 402 895 l 1,1,-1
 403 892 l 1,2,-1
 292 750 l 1,3,-1
 242 750 l 1,4,-1
 338 895 l 1,0,-1
463 895 m 1,5,-1
 527 895 l 1,6,-1
 528 892 l 1,7,-1
 417 750 l 1,8,-1
 367 750 l 1,9,-1
 463 895 l 1,5,-1
563 686 m 1,10,-1
 563 220 l 2,11,12
 563 116 563 116 497.5 53 c 128,-1,13
 432 -10 432 -10 324 -10 c 128,-1,14
 216 -10 216 -10 151 53 c 128,-1,15
 86 116 86 116 86 220 c 2,16,-1
 86 686 l 1,17,-1
 140 686 l 1,18,-1
 140 222 l 2,19,20
 140 137 140 137 188.5 87.5 c 128,-1,21
 237 38 237 38 324 38 c 128,-1,22
 411 38 411 38 460 88.5 c 128,-1,23
 509 139 509 139 509 222 c 2,24,-1
 509 686 l 1,25,-1
 563 686 l 1,10,-1
EndSplineSet
EndChar

StartChar: Umacron
Encoding: 362 362 89
Width: 680
GlyphClass: 2
Flags: MW
HStem: -10 48<265 383.5 265 396> 666 20G<86 140 140 140 509 563 563 563> 867 44<166 484 166 484>
VStem: 86 54<220 222 222 686> 509 54<222 686>
LayerCount: 2
Fore
SplineSet
166 911 m 1,0,-1
 484 911 l 1,1,-1
 484 867 l 1,2,-1
 166 867 l 1,3,-1
 166 911 l 1,0,-1
563 686 m 1,4,-1
 563 220 l 2,5,6
 563 116 563 116 497.5 53 c 128,-1,7
 432 -10 432 -10 324 -10 c 128,-1,8
 216 -10 216 -10 151 53 c 128,-1,9
 86 116 86 116 86 220 c 2,10,-1
 86 686 l 1,11,-1
 140 686 l 1,12,-1
 140 222 l 2,13,14
 140 137 140 137 188.5 87.5 c 128,-1,15
 237 38 237 38 324 38 c 128,-1,16
 411 38 411 38 460 88.5 c 128,-1,17
 509 139 509 139 509 222 c 2,18,-1
 509 686 l 1,19,-1
 563 686 l 1,4,-1
EndSplineSet
EndChar

StartChar: Uogonek
Encoding: 370 370 90
Width: 680
GlyphClass: 2
Flags: MW
HStem: -143 43<386.5 407.5> -10 48<265 324 324 336> -2 21G<397 397> 666 20G<86 140 140 140 509 563 563 563>
VStem: 86 54<220 222 222 686> 296 57<-75.5 -58> 509 54<222 686>
LayerCount: 2
Fore
SplineSet
563 686 m 1,0,-1
 563 220 l 2,1,2
 563 136 563 136 519 77.5 c 128,-1,3
 475 19 475 19 399 -1 c 1,4,-1
 397 -2 l 1,5,6
 353 -33 353 -33 353 -60 c 0,7,8
 353 -100 353 -100 397 -100 c 0,9,10
 422 -100 422 -100 464 -86 c 1,11,-1
 477 -119 l 1,12,13
 438 -143 438 -143 395.5 -143 c 0,14,15
 353 -143 353 -143 324.5 -126 c 128,-1,16
 296 -109 296 -109 296 -74.5 c 0,17,18
 296 -40 296 -40 336 -10 c 1,19,-1
 324 -10 l 2,20,21
 216 -10 216 -10 151 53 c 128,-1,22
 86 116 86 116 86 220 c 2,23,-1
 86 686 l 1,24,-1
 140 686 l 1,25,-1
 140 222 l 2,26,27
 140 137 140 137 188.5 87.5 c 128,-1,28
 237 38 237 38 324 38 c 128,-1,29
 411 38 411 38 460 88.5 c 128,-1,30
 509 139 509 139 509 222 c 2,31,-1
 509 686 l 1,32,-1
 563 686 l 1,0,-1
EndSplineSet
EndChar

StartChar: Uring
Encoding: 366 366 91
Width: 680
GlyphClass: 2
Flags: MW
HStem: -10 48<265 383.5 265 396> 666 20G<86 140 140 140 509 563 563 563> 720 36<307.5 343 307.5 353> 885 36<307 342.5>
VStem: 86 54<220 222 222 686> 224 36<802 838 802 848> 390 36<802.5 838.5> 509 54<222 686>
LayerCount: 2
Fore
SplineSet
396.5 891.5 m 128,-1,1
 426 862 426 862 426 820.5 c 128,-1,2
 426 779 426 779 396.5 749.5 c 128,-1,3
 367 720 367 720 325 720 c 128,-1,4
 283 720 283 720 253.5 749 c 128,-1,5
 224 778 224 778 224 820 c 128,-1,6
 224 862 224 862 253.5 891.5 c 128,-1,7
 283 921 283 921 325 921 c 128,-1,0
 367 921 367 921 396.5 891.5 c 128,-1,1
371 775 m 128,-1,9
 390 794 390 794 390 820.5 c 128,-1,10
 390 847 390 847 371 866 c 128,-1,11
 352 885 352 885 325 885 c 128,-1,12
 298 885 298 885 279 866 c 128,-1,13
 260 847 260 847 260 820 c 128,-1,14
 260 793 260 793 279 774.5 c 128,-1,15
 298 756 298 756 325 756 c 128,-1,8
 352 756 352 756 371 775 c 128,-1,9
563 686 m 1,16,-1
 563 220 l 2,17,18
 563 116 563 116 497.5 53 c 128,-1,19
 432 -10 432 -10 324 -10 c 128,-1,20
 216 -10 216 -10 151 53 c 128,-1,21
 86 116 86 116 86 220 c 2,22,-1
 86 686 l 1,23,-1
 140 686 l 1,24,-1
 140 222 l 2,25,26
 140 137 140 137 188.5 87.5 c 128,-1,27
 237 38 237 38 324 38 c 128,-1,28
 411 38 411 38 460 88.5 c 128,-1,29
 509 139 509 139 509 222 c 2,30,-1
 509 686 l 1,31,-1
 563 686 l 1,16,-1
EndSplineSet
EndChar

StartChar: V
Encoding: 86 86 92
Width: 603
GlyphClass: 2
Flags: MW
HStem: 0 21G<265 313 265 265> 0 86<289 294 289 313 265 294> 666 20G<5 64 64 64 519 572 572 572>
VStem: 5 567<686 686>
LayerCount: 2
Fore
SplineSet
572 686 m 1,0,-1
 313 0 l 1,1,-1
 265 0 l 1,2,-1
 5 686 l 1,3,-1
 64 686 l 1,4,-1
 289 86 l 1,5,-1
 294 86 l 1,6,-1
 519 686 l 1,7,-1
 572 686 l 1,0,-1
EndSplineSet
Position2: "'cpsp' Capital Spacing lookup 0 subtable" dx=5 dy=0 dh=10 dv=0
EndChar

StartChar: W
Encoding: 87 87 93
Width: 916
GlyphClass: 2
Flags: MW
HStem: 0 21G<214 260 214 214 602 648 602 602> 0 107<239 243 239 260 214 243 627 631> 581 105<429 433 429 429> 666 20G<14 72 72 72 410 460 460 460 798 848 848 848>
VStem: 14 834<686 686>
LayerCount: 2
Fore
SplineSet
848 686 m 1,0,-1
 648 0 l 1,1,-1
 602 0 l 1,2,-1
 433 581 l 1,3,-1
 429 581 l 1,4,-1
 260 0 l 1,5,-1
 214 0 l 1,6,-1
 14 686 l 1,7,-1
 72 686 l 1,8,-1
 239 107 l 1,9,-1
 243 107 l 1,10,-1
 410 686 l 1,11,-1
 460 686 l 1,12,-1
 627 107 l 1,13,-1
 631 107 l 1,14,-1
 798 686 l 1,15,-1
 848 686 l 1,0,-1
EndSplineSet
Position2: "'cpsp' Capital Spacing lookup 0 subtable" dx=5 dy=0 dh=10 dv=0
EndChar

StartChar: X
Encoding: 88 88 94
Width: 631
GlyphClass: 2
Flags: MW
HStem: 0 21G<9 68 9 9 516 581 516 516> 666 20G<32 97 97 97 500 559 559 559>
VStem: 9 572<0 0>
LayerCount: 2
Fore
SplineSet
581 0 m 1,0,-1
 516 0 l 1,1,-1
 294 315 l 1,2,-1
 292 315 l 1,3,-1
 68 0 l 1,4,-1
 9 0 l 1,5,-1
 264 359 l 1,6,-1
 32 686 l 1,7,-1
 97 686 l 1,8,-1
 296 402 l 1,9,-1
 298 402 l 1,10,-1
 500 686 l 1,11,-1
 559 686 l 1,12,-1
 326 359 l 1,13,-1
 581 0 l 1,0,-1
EndSplineSet
Position2: "'cpsp' Capital Spacing lookup 0 subtable" dx=5 dy=0 dh=10 dv=0
EndChar

StartChar: Y
Encoding: 89 89 95
Width: 572
GlyphClass: 2
Flags: MW
HStem: 0 21G<241 295 241 241> 666 20G<-5 58 58 58 486 541 541 541>
VStem: 241 54<0 266>
LayerCount: 2
Fore
SplineSet
295 0 m 1,0,-1
 241 0 l 1,1,-1
 241 266 l 1,2,-1
 -5 686 l 1,3,-1
 58 686 l 1,4,-1
 269 321 l 1,5,-1
 272 321 l 1,6,-1
 486 686 l 1,7,-1
 541 686 l 1,8,-1
 295 266 l 1,9,-1
 295 0 l 1,0,-1
EndSplineSet
Position2: "'cpsp' Capital Spacing lookup 0 subtable" dx=5 dy=0 dh=10 dv=0
EndChar

StartChar: Yacute
Encoding: 221 221 96
Width: 572
GlyphClass: 2
Flags: MW
HStem: 0 21G<241 295 241 241> 666 20G<-5 58 58 58 486 541 541 541> 750 145<255 416 255 416>
VStem: 241 54<0 266>
LayerCount: 2
Fore
SplineSet
351 895 m 1,0,-1
 416 895 l 1,1,-1
 416 892 l 1,2,-1
 305 750 l 1,3,-1
 255 750 l 1,4,-1
 351 895 l 1,0,-1
295 0 m 1,5,-1
 241 0 l 1,6,-1
 241 266 l 1,7,-1
 -5 686 l 1,8,-1
 58 686 l 1,9,-1
 269 321 l 1,10,-1
 272 321 l 1,11,-1
 486 686 l 1,12,-1
 541 686 l 1,13,-1
 295 266 l 1,14,-1
 295 0 l 1,5,-1
EndSplineSet
Position2: "'cpsp' Capital Spacing lookup 0 subtable" dx=5 dy=0 dh=10 dv=0
EndChar

StartChar: Ydieresis
Encoding: 376 376 97
Width: 572
GlyphClass: 2
Flags: MW
HStem: 0 21G<241 295 241 241> 666 20G<-5 58 58 58 486 541 541 541> 750 69<151 216 151 216 327 392>
VStem: 151 65<750 819 750 819> 241 54<0 266> 327 65<750 819 750 819>
LayerCount: 2
Fore
SplineSet
216 819 m 1,0,-1
 216 750 l 1,1,-1
 151 750 l 1,2,-1
 151 819 l 1,3,-1
 216 819 l 1,0,-1
392 819 m 1,4,-1
 392 750 l 1,5,-1
 327 750 l 1,6,-1
 327 819 l 1,7,-1
 392 819 l 1,4,-1
295 0 m 1,8,-1
 241 0 l 1,9,-1
 241 266 l 1,10,-1
 -5 686 l 1,11,-1
 58 686 l 1,12,-1
 269 321 l 1,13,-1
 272 321 l 1,14,-1
 486 686 l 1,15,-1
 541 686 l 1,16,-1
 295 266 l 1,17,-1
 295 0 l 1,8,-1
EndSplineSet
Position2: "'cpsp' Capital Spacing lookup 0 subtable" dx=5 dy=0 dh=10 dv=0
EndChar

StartChar: Z
Encoding: 90 90 98
Width: 596
GlyphClass: 2
Flags: MW
HStem: 0 48<113 535 113 535> 638 48<56 445 56 527>
VStem: 32 503<0 25 25 25>
LayerCount: 2
Fore
SplineSet
32 25 m 1,0,-1
 445 638 l 1,1,-1
 56 638 l 1,2,-1
 56 686 l 1,3,-1
 527 686 l 1,4,-1
 527 662 l 1,5,-1
 113 48 l 1,6,-1
 535 48 l 1,7,-1
 535 0 l 1,8,-1
 32 0 l 1,9,-1
 32 25 l 1,0,-1
EndSplineSet
Position2: "'cpsp' Capital Spacing lookup 0 subtable" dx=5 dy=0 dh=10 dv=0
EndChar

StartChar: Zacute
Encoding: 377 377 99
Width: 596
GlyphClass: 2
Flags: MW
HStem: 0 48<113 535 113 535> 638 48<56 445 56 527> 750 145<267 428 267 428>
VStem: 32 503<0 25 25 25>
LayerCount: 2
Fore
SplineSet
363 895 m 1,0,-1
 428 895 l 1,1,-1
 428 892 l 1,2,-1
 317 750 l 1,3,-1
 267 750 l 1,4,-1
 363 895 l 1,0,-1
32 25 m 1,5,-1
 445 638 l 1,6,-1
 56 638 l 1,7,-1
 56 686 l 1,8,-1
 527 686 l 1,9,-1
 527 662 l 1,10,-1
 113 48 l 1,11,-1
 535 48 l 1,12,-1
 535 0 l 1,13,-1
 32 0 l 1,14,-1
 32 25 l 1,5,-1
EndSplineSet
EndChar

StartChar: Zcaron
Encoding: 381 381 100
Width: 596
GlyphClass: 2
Flags: MW
HStem: 0 48<113 535 113 535> 638 48<56 445 56 527> 750 145<127 319 127 261>
VStem: 32 503<0 25 25 25>
LayerCount: 2
Fore
SplineSet
187 895 m 1,0,-1
 290 798 l 1,1,-1
 393 895 l 1,2,-1
 453 895 l 1,3,-1
 319 750 l 1,4,-1
 261 750 l 1,5,-1
 127 895 l 1,6,-1
 187 895 l 1,0,-1
32 25 m 1,7,-1
 445 638 l 1,8,-1
 56 638 l 1,9,-1
 56 686 l 1,10,-1
 527 686 l 1,11,-1
 527 662 l 1,12,-1
 113 48 l 1,13,-1
 535 48 l 1,14,-1
 535 0 l 1,15,-1
 32 0 l 1,16,-1
 32 25 l 1,7,-1
EndSplineSet
Position2: "'cpsp' Capital Spacing lookup 0 subtable" dx=5 dy=0 dh=10 dv=0
EndChar

StartChar: Zdotaccent
Encoding: 379 379 101
Width: 596
GlyphClass: 2
Flags: MW
HStem: 0 48<113 535 113 535> 638 48<56 445 56 527> 779 132<279.5 315.5>
VStem: 232 132<827 863 826 863.5>
LayerCount: 2
Fore
SplineSet
345 891.5 m 128,-1,1
 364 872 364 872 364 844.5 c 128,-1,2
 364 817 364 817 344.5 798 c 128,-1,3
 325 779 325 779 298 779 c 128,-1,4
 271 779 271 779 251.5 798.5 c 128,-1,5
 232 818 232 818 232 845.5 c 128,-1,6
 232 873 232 873 251 892 c 128,-1,7
 270 911 270 911 298 911 c 128,-1,0
 326 911 326 911 345 891.5 c 128,-1,1
32 25 m 1,8,-1
 445 638 l 1,9,-1
 56 638 l 1,10,-1
 56 686 l 1,11,-1
 527 686 l 1,12,-1
 527 662 l 1,13,-1
 113 48 l 1,14,-1
 535 48 l 1,15,-1
 535 0 l 1,16,-1
 32 0 l 1,17,-1
 32 25 l 1,8,-1
EndSplineSet
EndChar

StartChar: a
Encoding: 97 97 102
Width: 585
GlyphClass: 2
Flags: MW
HStem: -10 46<176.5 250 466.5 472> 250 46<306 396> 475 46<222 310.5>
VStem: 48 51<99 187.5 99 207.5> 66 51<355 426> 396 51<61.5 69 69 89 216 250 250 250 296 360 360 370>
LayerCount: 2
Fore
SplineSet
447 370 m 2,0,-1
 447 69 l 2,1,2
 447 36 447 36 474 36 c 0,3,4
 497 36 497 36 524 52 c 1,5,-1
 524 9 l 1,6,7
 496 -10 496 -10 460 -10 c 0,8,9
 396 -10 396 -10 396 89 c 1,10,11
 337 -10 337 -10 209 -10 c 0,12,13
 48 -10 48 -10 48 133 c 0,14,15
 48 215.745454545 48 215.745454545 111.5 255 c 0,16,17
 163.271018092 287.003902093 163.271018092 287.003902093 281.5 293.5 c 0,18,19
 327 296 327 296 396 296 c 1,20,-1
 396 360 l 2,21,22
 396 424 396 424 365.5 449.5 c 128,-1,23
 335 475 335 475 266 475 c 128,-1,24
 197 475 197 475 157 449.5 c 128,-1,25
 117 424 117 424 117 371 c 2,26,-1
 117 355 l 1,27,-1
 68 355 l 1,28,29
 66 371 66 371 66 381 c 0,30,31
 66 446 66 446 121.5 483.5 c 128,-1,32
 177 521 177 521 266.5 521 c 0,33,34
 447 521 447 521 447 370 c 2,0,-1
396 216 m 2,35,-1
 396 250 l 1,36,37
 201.8 250 201.8 250 150.5 221.5 c 0,38,39
 99 192.888888889 99 192.888888889 99 137.444444444 c 128,-1,40
 99 82 99 82 127.5 59 c 128,-1,41
 156 36 156 36 223 36 c 128,-1,42
 290 36 290 36 343 82.5 c 128,-1,43
 396 129 396 129 396 216 c 2,35,-1
EndSplineSet
Substitution2: "Single Substitution lookup 5 subtable" ordfeminine
Substitution2: "'aalt' Access All Alternates lookup 0 subtable" ordfeminine
EndChar

StartChar: aacute
Encoding: 225 225 103
Width: 585
GlyphClass: 2
Flags: MW
HStem: -10 46<176.5 250 466.5 472> 250 46<306 396> 475 46<222 310.5> 575 145<251 412 251 412>
VStem: 48 51<99 187.5 99 207.5> 66 51<355 426> 396 51<61.5 69 69 89 216 250 250 250 296 360 360 370>
LayerCount: 2
Fore
SplineSet
347 720 m 1,0,-1
 412 720 l 1,1,-1
 412 717 l 1,2,-1
 301 575 l 1,3,-1
 251 575 l 1,4,-1
 347 720 l 1,0,-1
447 370 m 2,5,-1
 447 69 l 2,6,7
 447 36 447 36 474 36 c 0,8,9
 497 36 497 36 524 52 c 1,10,-1
 524 9 l 1,11,12
 496 -10 496 -10 460 -10 c 0,13,14
 396 -10 396 -10 396 89 c 1,15,16
 337 -10 337 -10 209 -10 c 0,17,18
 48 -10 48 -10 48 133 c 0,19,20
 48 215.745454545 48 215.745454545 111.5 255 c 0,21,22
 163.271018092 287.003902093 163.271018092 287.003902093 281.5 293.5 c 0,23,24
 327 296 327 296 396 296 c 1,25,-1
 396 360 l 2,26,27
 396 424 396 424 365.5 449.5 c 128,-1,28
 335 475 335 475 266 475 c 128,-1,29
 197 475 197 475 157 449.5 c 128,-1,30
 117 424 117 424 117 371 c 2,31,-1
 117 355 l 1,32,-1
 68 355 l 1,33,34
 66 371 66 371 66 381 c 0,35,36
 66 446 66 446 121.5 483.5 c 128,-1,37
 177 521 177 521 266.5 521 c 0,38,39
 447 521 447 521 447 370 c 2,5,-1
396 216 m 2,40,-1
 396 250 l 1,41,42
 201.8 250 201.8 250 150.5 221.5 c 0,43,44
 99 192.888888889 99 192.888888889 99 137.444444444 c 128,-1,45
 99 82 99 82 127.5 59 c 128,-1,46
 156 36 156 36 223 36 c 128,-1,47
 290 36 290 36 343 82.5 c 128,-1,48
 396 129 396 129 396 216 c 2,40,-1
EndSplineSet
EndChar

StartChar: abreve
Encoding: 259 259 104
Width: 585
GlyphClass: 2
Flags: MW
HStem: -10 46<176.5 250 466.5 472> 250 46<306 396> 475 46<222 310.5> 613 49<229.5 294.5 229.5 315.5>
VStem: 48 51<99 187.5 99 207.5> 66 51<355 426> 396 51<61.5 69 69 89 216 250 250 250 296 360 360 370>
LayerCount: 2
Fore
SplineSet
262 613 m 128,-1,1
 185 613 185 613 127.5 652.5 c 128,-1,2
 70 692 70 692 70 737 c 1,3,-1
 126 737 l 1,4,5
 138 701 138 701 174.5 681.5 c 128,-1,6
 211 662 211 662 261.5 662 c 128,-1,7
 312 662 312 662 349.5 681.5 c 128,-1,8
 387 701 387 701 399 737 c 1,9,-1
 455 737 l 1,10,11
 455 692 455 692 397 652.5 c 128,-1,0
 339 613 339 613 262 613 c 128,-1,1
447 370 m 2,12,-1
 447 69 l 2,13,14
 447 36 447 36 474 36 c 0,15,16
 497 36 497 36 524 52 c 1,17,-1
 524 9 l 1,18,19
 496 -10 496 -10 460 -10 c 0,20,21
 396 -10 396 -10 396 89 c 1,22,23
 337 -10 337 -10 209 -10 c 0,24,25
 48 -10 48 -10 48 133 c 0,26,27
 48 215.745454545 48 215.745454545 111.5 255 c 0,28,29
 163.271018092 287.003902093 163.271018092 287.003902093 281.5 293.5 c 0,30,31
 327 296 327 296 396 296 c 1,32,-1
 396 360 l 2,33,34
 396 424 396 424 365.5 449.5 c 128,-1,35
 335 475 335 475 266 475 c 128,-1,36
 197 475 197 475 157 449.5 c 128,-1,37
 117 424 117 424 117 371 c 2,38,-1
 117 355 l 1,39,-1
 68 355 l 1,40,41
 66 371 66 371 66 381 c 0,42,43
 66 446 66 446 121.5 483.5 c 128,-1,44
 177 521 177 521 266.5 521 c 0,45,46
 447 521 447 521 447 370 c 2,12,-1
396 216 m 2,47,-1
 396 250 l 1,48,49
 201.8 250 201.8 250 150.5 221.5 c 0,50,51
 99 192.888888889 99 192.888888889 99 137.444444444 c 128,-1,52
 99 82 99 82 127.5 59 c 128,-1,53
 156 36 156 36 223 36 c 128,-1,54
 290 36 290 36 343 82.5 c 128,-1,55
 396 129 396 129 396 216 c 2,47,-1
EndSplineSet
EndChar

StartChar: acircumflex
Encoding: 226 226 105
Width: 585
GlyphClass: 2
Flags: MW
HStem: -10 46<176.5 250 466.5 472> 250 46<306 396> 475 46<222 310.5> 575 145<109 301 109 301 243 435 243 375>
VStem: 48 51<99 187.5 99 207.5> 66 51<355 426> 396 51<61.5 69 69 89 216 250 250 250 296 360 360 370>
LayerCount: 2
Fore
SplineSet
301 720 m 1,0,-1
 435 575 l 1,1,-1
 375 575 l 1,2,-1
 272 672 l 1,3,-1
 169 575 l 1,4,-1
 109 575 l 1,5,-1
 243 720 l 1,6,-1
 301 720 l 1,0,-1
447 370 m 2,7,-1
 447 69 l 2,8,9
 447 36 447 36 474 36 c 0,10,11
 497 36 497 36 524 52 c 1,12,-1
 524 9 l 1,13,14
 496 -10 496 -10 460 -10 c 0,15,16
 396 -10 396 -10 396 89 c 1,17,18
 337 -10 337 -10 209 -10 c 0,19,20
 48 -10 48 -10 48 133 c 0,21,22
 48 215.745454545 48 215.745454545 111.5 255 c 0,23,24
 163.271018092 287.003902093 163.271018092 287.003902093 281.5 293.5 c 0,25,26
 327 296 327 296 396 296 c 1,27,-1
 396 360 l 2,28,29
 396 424 396 424 365.5 449.5 c 128,-1,30
 335 475 335 475 266 475 c 128,-1,31
 197 475 197 475 157 449.5 c 128,-1,32
 117 424 117 424 117 371 c 2,33,-1
 117 355 l 1,34,-1
 68 355 l 1,35,36
 66 371 66 371 66 381 c 0,37,38
 66 446 66 446 121.5 483.5 c 128,-1,39
 177 521 177 521 266.5 521 c 0,40,41
 447 521 447 521 447 370 c 2,7,-1
396 216 m 2,42,-1
 396 250 l 1,43,44
 201.8 250 201.8 250 150.5 221.5 c 0,45,46
 99 192.888888889 99 192.888888889 99 137.444444444 c 128,-1,47
 99 82 99 82 127.5 59 c 128,-1,48
 156 36 156 36 223 36 c 128,-1,49
 290 36 290 36 343 82.5 c 128,-1,50
 396 129 396 129 396 216 c 2,42,-1
EndSplineSet
EndChar

StartChar: adieresis
Encoding: 228 228 106
Width: 585
GlyphClass: 2
Flags: MW
HStem: -10 46<176.5 250 466.5 472> 250 46<306 396> 475 46<222 310.5> 651 69<143 208 143 208 319 384>
VStem: 48 51<99 187.5 99 207.5> 66 51<355 426> 143 65<651 720 651 720> 319 65<651 720 651 720> 396 51<61.5 69 69 89 216 250 250 250 296 360 360 370>
LayerCount: 2
Fore
SplineSet
208 720 m 1,0,-1
 208 651 l 1,1,-1
 143 651 l 1,2,-1
 143 720 l 1,3,-1
 208 720 l 1,0,-1
384 720 m 1,4,-1
 384 651 l 1,5,-1
 319 651 l 1,6,-1
 319 720 l 1,7,-1
 384 720 l 1,4,-1
447 370 m 2,8,-1
 447 69 l 2,9,10
 447 36 447 36 474 36 c 0,11,12
 497 36 497 36 524 52 c 1,13,-1
 524 9 l 1,14,15
 496 -10 496 -10 460 -10 c 0,16,17
 396 -10 396 -10 396 89 c 1,18,19
 337 -10 337 -10 209 -10 c 0,20,21
 48 -10 48 -10 48 133 c 0,22,23
 48 215.745454545 48 215.745454545 111.5 255 c 0,24,25
 163.271018092 287.003902093 163.271018092 287.003902093 281.5 293.5 c 0,26,27
 327 296 327 296 396 296 c 1,28,-1
 396 360 l 2,29,30
 396 424 396 424 365.5 449.5 c 128,-1,31
 335 475 335 475 266 475 c 128,-1,32
 197 475 197 475 157 449.5 c 128,-1,33
 117 424 117 424 117 371 c 2,34,-1
 117 355 l 1,35,-1
 68 355 l 1,36,37
 66 371 66 371 66 381 c 0,38,39
 66 446 66 446 121.5 483.5 c 128,-1,40
 177 521 177 521 266.5 521 c 0,41,42
 447 521 447 521 447 370 c 2,8,-1
396 216 m 2,43,-1
 396 250 l 1,44,45
 201.8 250 201.8 250 150.5 221.5 c 0,46,47
 99 192.888888889 99 192.888888889 99 137.444444444 c 128,-1,48
 99 82 99 82 127.5 59 c 128,-1,49
 156 36 156 36 223 36 c 128,-1,50
 290 36 290 36 343 82.5 c 128,-1,51
 396 129 396 129 396 216 c 2,43,-1
EndSplineSet
EndChar

StartChar: agrave
Encoding: 224 224 107
Width: 585
GlyphClass: 2
Flags: MW
HStem: -10 46<176.5 250 466.5 472> 250 46<306 396> 475 46<222 310.5> 575 145<139 300 139 250>
VStem: 48 51<99 187.5 99 207.5> 66 51<355 426> 396 51<61.5 69 69 89 216 250 250 250 296 360 360 370>
LayerCount: 2
Fore
SplineSet
139 717 m 1,0,-1
 139 720 l 1,1,-1
 204 720 l 1,2,-1
 300 575 l 1,3,-1
 250 575 l 1,4,-1
 139 717 l 1,0,-1
447 370 m 2,5,-1
 447 69 l 2,6,7
 447 36 447 36 474 36 c 0,8,9
 497 36 497 36 524 52 c 1,10,-1
 524 9 l 1,11,12
 496 -10 496 -10 460 -10 c 0,13,14
 396 -10 396 -10 396 89 c 1,15,16
 337 -10 337 -10 209 -10 c 0,17,18
 48 -10 48 -10 48 133 c 0,19,20
 48 215.745454545 48 215.745454545 111.5 255 c 0,21,22
 163.271018092 287.003902093 163.271018092 287.003902093 281.5 293.5 c 0,23,24
 327 296 327 296 396 296 c 1,25,-1
 396 360 l 2,26,27
 396 424 396 424 365.5 449.5 c 128,-1,28
 335 475 335 475 266 475 c 128,-1,29
 197 475 197 475 157 449.5 c 128,-1,30
 117 424 117 424 117 371 c 2,31,-1
 117 355 l 1,32,-1
 68 355 l 1,33,34
 66 371 66 371 66 381 c 0,35,36
 66 446 66 446 121.5 483.5 c 128,-1,37
 177 521 177 521 266.5 521 c 0,38,39
 447 521 447 521 447 370 c 2,5,-1
396 216 m 2,40,-1
 396 250 l 1,41,42
 201.8 250 201.8 250 150.5 221.5 c 0,43,44
 99 192.888888889 99 192.888888889 99 137.444444444 c 128,-1,45
 99 82 99 82 127.5 59 c 128,-1,46
 156 36 156 36 223 36 c 128,-1,47
 290 36 290 36 343 82.5 c 128,-1,48
 396 129 396 129 396 216 c 2,40,-1
EndSplineSet
EndChar

StartChar: amacron
Encoding: 257 257 108
Width: 585
GlyphClass: 2
Flags: MW
HStem: -10 46<176.5 250 466.5 472> 250 46<306 396> 475 46<222 310.5> 692 44<104 422 104 422>
VStem: 48 51<99 187.5 99 207.5> 66 51<355 426> 396 51<61.5 69 69 89 216 250 250 250 296 360 360 370>
LayerCount: 2
Fore
SplineSet
104 736 m 1,0,-1
 422 736 l 1,1,-1
 422 692 l 1,2,-1
 104 692 l 1,3,-1
 104 736 l 1,0,-1
447 370 m 2,4,-1
 447 69 l 2,5,6
 447 36 447 36 474 36 c 0,7,8
 497 36 497 36 524 52 c 1,9,-1
 524 9 l 1,10,11
 496 -10 496 -10 460 -10 c 0,12,13
 396 -10 396 -10 396 89 c 1,14,15
 337 -10 337 -10 209 -10 c 0,16,17
 48 -10 48 -10 48 133 c 0,18,19
 48 215.745454545 48 215.745454545 111.5 255 c 0,20,21
 163.271018092 287.003902093 163.271018092 287.003902093 281.5 293.5 c 0,22,23
 327 296 327 296 396 296 c 1,24,-1
 396 360 l 2,25,26
 396 424 396 424 365.5 449.5 c 128,-1,27
 335 475 335 475 266 475 c 128,-1,28
 197 475 197 475 157 449.5 c 128,-1,29
 117 424 117 424 117 371 c 2,30,-1
 117 355 l 1,31,-1
 68 355 l 1,32,33
 66 371 66 371 66 381 c 0,34,35
 66 446 66 446 121.5 483.5 c 128,-1,36
 177 521 177 521 266.5 521 c 0,37,38
 447 521 447 521 447 370 c 2,4,-1
396 216 m 2,39,-1
 396 250 l 1,40,41
 201.8 250 201.8 250 150.5 221.5 c 0,42,43
 99 192.888888889 99 192.888888889 99 137.444444444 c 128,-1,44
 99 82 99 82 127.5 59 c 128,-1,45
 156 36 156 36 223 36 c 128,-1,46
 290 36 290 36 343 82.5 c 128,-1,47
 396 129 396 129 396 216 c 2,39,-1
EndSplineSet
EndChar

StartChar: aogonek
Encoding: 261 261 109
Width: 585
GlyphClass: 2
Flags: MW
HStem: -143 43<510.5 531.5> -10 46<176.5 250> 0 21G<508 524 524 524> 250 46<306 396> 475 46<222 310.5>
VStem: 48 51<99 187.5 99 207.5> 66 51<355 426> 396 51<61.5 69 69 89 216 250 250 250 296 360 360 370> 420 57<-75.5 -58>
LayerCount: 2
Fore
SplineSet
524 0 m 1,0,1
 477 -31.3333333333 477 -31.3333333333 477 -60 c 0,2,3
 477 -100 477 -100 521 -100 c 0,4,5
 546 -100 546 -100 588 -86 c 1,6,-1
 601 -119 l 1,7,8
 562 -143 562 -143 519.5 -143 c 128,-1,9
 477 -143 477 -143 448.5 -126 c 128,-1,10
 420 -109 420 -109 420 -74.5 c 128,-1,11
 420 -40 420 -40 460 -10 c 1,12,13
 396 -10 396 -10 396 89 c 1,14,15
 337 -10 337 -10 209 -10 c 0,16,17
 48 -10 48 -10 48 133 c 0,18,19
 48 215.745454545 48 215.745454545 111.5 255 c 0,20,21
 163.271018092 287.003902093 163.271018092 287.003902093 281.5 293.5 c 0,22,23
 327 296 327 296 396 296 c 1,24,-1
 396 360 l 2,25,26
 396 424 396 424 365.5 449.5 c 128,-1,27
 335 475 335 475 266 475 c 128,-1,28
 197 475 197 475 157 449.5 c 128,-1,29
 117 424 117 424 117 371 c 2,30,-1
 117 355 l 1,31,-1
 68 355 l 1,32,33
 66 371 66 371 66 381 c 0,34,35
 66 446 66 446 121.5 483.5 c 128,-1,36
 177 521 177 521 266.5 521 c 0,37,38
 447 521 447 521 447 370 c 2,39,-1
 447 69 l 2,40,41
 447 36 447 36 474 36 c 0,42,43
 497 36 497 36 524 52 c 1,44,-1
 524 9 l 1,45,46
 519 7.33333333333 519 7.33333333333 508 0 c 1,47,-1
 524 0 l 1,0,1
396 216 m 2,48,-1
 396 250 l 1,49,50
 201.8 250 201.8 250 150.5 221.5 c 0,51,52
 99 192.888888889 99 192.888888889 99 137.444444444 c 128,-1,53
 99 82 99 82 127.5 59 c 128,-1,54
 156 36 156 36 223 36 c 128,-1,55
 290 36 290 36 343 82.5 c 128,-1,56
 396 129 396 129 396 216 c 2,48,-1
EndSplineSet
EndChar

StartChar: aring
Encoding: 229 229 110
Width: 585
GlyphClass: 2
Flags: MW
HStem: -10 46<176.5 250 466.5 472> 250 46<306 396> 475 46<222 310.5> 555 36<246.5 282 246.5 292> 720 36<246 281.5>
VStem: 48 51<99 187.5 99 207.5> 66 51<355 426> 163 36<637 673 637 683> 329 36<637.5 673.5> 396 51<61.5 69 69 89 216 250 250 250 296 360 360 370>
LayerCount: 2
Fore
SplineSet
335.5 726.5 m 128,-1,1
 365 697 365 697 365 655.5 c 128,-1,2
 365 614 365 614 335.5 584.5 c 128,-1,3
 306 555 306 555 264 555 c 128,-1,4
 222 555 222 555 192.5 584 c 128,-1,5
 163 613 163 613 163 655 c 128,-1,6
 163 697 163 697 192.5 726.5 c 128,-1,7
 222 756 222 756 264 756 c 128,-1,0
 306 756 306 756 335.5 726.5 c 128,-1,1
310 610 m 128,-1,9
 329 629 329 629 329 655.5 c 128,-1,10
 329 682 329 682 310 701 c 128,-1,11
 291 720 291 720 264 720 c 128,-1,12
 237 720 237 720 218 701 c 128,-1,13
 199 682 199 682 199 655 c 128,-1,14
 199 628 199 628 218 609.5 c 128,-1,15
 237 591 237 591 264 591 c 128,-1,8
 291 591 291 591 310 610 c 128,-1,9
447 370 m 2,16,-1
 447 69 l 2,17,18
 447 36 447 36 474 36 c 0,19,20
 497 36 497 36 524 52 c 1,21,-1
 524 9 l 1,22,23
 496 -10 496 -10 460 -10 c 0,24,25
 396 -10 396 -10 396 89 c 1,26,27
 337 -10 337 -10 209 -10 c 0,28,29
 48 -10 48 -10 48 133 c 0,30,31
 48 215.745454545 48 215.745454545 111.5 255 c 0,32,33
 163.271018092 287.003902093 163.271018092 287.003902093 281.5 293.5 c 0,34,35
 327 296 327 296 396 296 c 1,36,-1
 396 360 l 2,37,38
 396 424 396 424 365.5 449.5 c 128,-1,39
 335 475 335 475 266 475 c 128,-1,40
 197 475 197 475 157 449.5 c 128,-1,41
 117 424 117 424 117 371 c 2,42,-1
 117 355 l 1,43,-1
 68 355 l 1,44,45
 66 371 66 371 66 381 c 0,46,47
 66 446 66 446 121.5 483.5 c 128,-1,48
 177 521 177 521 266.5 521 c 0,49,50
 447 521 447 521 447 370 c 2,16,-1
396 216 m 2,51,-1
 396 250 l 1,52,53
 201.8 250 201.8 250 150.5 221.5 c 0,54,55
 99 192.888888889 99 192.888888889 99 137.444444444 c 128,-1,56
 99 82 99 82 127.5 59 c 128,-1,57
 156 36 156 36 223 36 c 128,-1,58
 290 36 290 36 343 82.5 c 128,-1,59
 396 129 396 129 396 216 c 2,51,-1
EndSplineSet
EndChar

StartChar: atilde
Encoding: 227 227 111
Width: 585
GlyphClass: 2
Flags: MW
HStem: -10 46<176.5 250 466.5 472> 250 46<306 396> 475 46<222 310.5> 638 50<322 365.5 322 381.5> 670 50<158.5 202>
VStem: 48 51<99 187.5 99 207.5> 66 51<355 426> 396 51<61.5 69 69 89 216 250 250 250 296 360 360 370>
LayerCount: 2
Fore
SplineSet
406 720 m 1,0,-1
 443 720 l 1,1,2
 443 689 443 689 419 663.5 c 128,-1,3
 395 638 395 638 352 638 c 128,-1,4
 309 638 309 638 255 654 c 128,-1,5
 201 670 201 670 175 670 c 0,6,7
 128 670 128 670 118 638 c 1,8,-1
 81 638 l 1,9,10
 81 668 81 668 105 694 c 128,-1,11
 129 720 129 720 172 720 c 128,-1,12
 215 720 215 720 269 704 c 128,-1,13
 323 688 323 688 349 688 c 0,14,15
 396 688 396 688 406 720 c 1,0,-1
447 370 m 2,16,-1
 447 69 l 2,17,18
 447 36 447 36 474 36 c 0,19,20
 497 36 497 36 524 52 c 1,21,-1
 524 9 l 1,22,23
 496 -10 496 -10 460 -10 c 0,24,25
 396 -10 396 -10 396 89 c 1,26,27
 337 -10 337 -10 209 -10 c 0,28,29
 48 -10 48 -10 48 133 c 0,30,31
 48 215.745454545 48 215.745454545 111.5 255 c 0,32,33
 163.271018092 287.003902093 163.271018092 287.003902093 281.5 293.5 c 0,34,35
 327 296 327 296 396 296 c 1,36,-1
 396 360 l 2,37,38
 396 424 396 424 365.5 449.5 c 128,-1,39
 335 475 335 475 266 475 c 128,-1,40
 197 475 197 475 157 449.5 c 128,-1,41
 117 424 117 424 117 371 c 2,42,-1
 117 355 l 1,43,-1
 68 355 l 1,44,45
 66 371 66 371 66 381 c 0,46,47
 66 446 66 446 121.5 483.5 c 128,-1,48
 177 521 177 521 266.5 521 c 0,49,50
 447 521 447 521 447 370 c 2,16,-1
396 216 m 2,51,-1
 396 250 l 1,52,53
 201.8 250 201.8 250 150.5 221.5 c 0,54,55
 99 192.888888889 99 192.888888889 99 137.444444444 c 128,-1,56
 99 82 99 82 127.5 59 c 128,-1,57
 156 36 156 36 223 36 c 128,-1,58
 290 36 290 36 343 82.5 c 128,-1,59
 396 129 396 129 396 216 c 2,51,-1
EndSplineSet
EndChar

StartChar: ae
Encoding: 230 230 112
Width: 895
GlyphClass: 2
Flags: MW
HStem: -10 46<173.5 247.5 566.5 649.5> 250 46<306 396 448 759> 475 46<222 310.5 572.5 650>
VStem: 48 51<99 187.5 99 207.5> 66 51<355 426> 396 51<216 242 242 250 172.5 250> 759 50<136.5 189 296 314>
LayerCount: 2
Fore
SplineSet
759 189 m 1,0,-1
 809 189 l 1,1,2
 809 96 809 96 752.5 43 c 128,-1,3
 696 -10 696 -10 610 -10 c 0,4,5
 545 -10 545 -10 495.5 22 c 128,-1,6
 446 54 446 54 420 115 c 1,7,8
 390 50 390 50 332 20 c 128,-1,9
 274 -10 274 -10 204 -10 c 128,-1,10
 134 -10 134 -10 91 22 c 128,-1,11
 48 54 48 54 48 133 c 0,12,13
 48 215.745454545 48 215.745454545 111.5 255 c 0,14,15
 163.271018092 287.003902093 163.271018092 287.003902093 281.5 293.5 c 0,16,17
 327 296 327 296 396 296 c 1,18,-1
 396 360 l 2,19,20
 396 424 396 424 365.5 449.5 c 128,-1,21
 335 475 335 475 266 475 c 128,-1,22
 197 475 197 475 157 449.5 c 128,-1,23
 117 424 117 424 117 371 c 2,24,-1
 117 355 l 1,25,-1
 68 355 l 1,26,27
 66 371 66 371 66 381 c 0,28,29
 66 446 66 446 121.5 483.5 c 128,-1,30
 177 521 177 521 263 521 c 0,31,32
 407 521 407 521 438 430 c 1,33,34
 497 521 497 521 609 521 c 0,35,36
 696 521 696 521 752.5 466 c 128,-1,37
 809 411 809 411 809 314 c 2,38,-1
 809 250 l 1,39,-1
 447 250 l 1,40,-1
 447 242 l 2,41,42
 447 142 447 142 492.5 89 c 128,-1,43
 538 36 538 36 606 36 c 128,-1,44
 674 36 674 36 716.5 75 c 128,-1,45
 759 114 759 114 759 189 c 1,0,-1
716.5 433.5 m 128,-1,47
 674 475 674 475 608 475 c 128,-1,48
 542 475 542 475 498 429 c 128,-1,49
 454 383 454 383 448 296 c 1,50,-1
 759 296 l 1,51,-1
 759 314 l 2,52,46
 759 392 759 392 716.5 433.5 c 128,-1,47
396 216 m 2,53,-1
 396 250 l 1,54,55
 201.8 250 201.8 250 150.5 221.5 c 0,56,57
 99 192.888888889 99 192.888888889 99 136.944444444 c 128,-1,58
 99 81 99 81 125.5 58.5 c 128,-1,59
 152 36 152 36 221 36 c 128,-1,60
 290 36 290 36 343 82.5 c 128,-1,61
 396 129 396 129 396 216 c 2,53,-1
EndSplineSet
EndChar

StartChar: b
Encoding: 98 98 113
Width: 583
GlyphClass: 2
Flags: MW
HStem: -10 46<258 335.5 249 353> 0 21G<83 104 83 83> 475 46<261 335.5>
VStem: 83 51<440 720 440 720 440 720> 449 51<258 260 260 269 269 271 165 340.5>
LayerCount: 2
Fore
SplineSet
134 720 m 1,0,-1
 134 440 l 1,1,2
 187 521 187 521 297 521 c 0,3,4
 385 521 385 521 442.5 454.5 c 128,-1,5
 500 388 500 388 500 271 c 2,6,-1
 500 260 l 2,7,8
 500 125 500 125 443.5 57.5 c 128,-1,9
 387 -10 387 -10 297 -10 c 0,10,11
 179 -10 179 -10 123 85 c 1,12,-1
 104 0 l 1,13,-1
 83 0 l 1,14,-1
 83 720 l 1,15,-1
 134 720 l 1,0,-1
133 269 m 2,16,-1
 133 257 l 2,17,18
 133 36 133 36 292 36 c 0,19,20
 363 36 363 36 406 88.5 c 128,-1,21
 449 141 449 141 449 258 c 2,22,-1
 449 269 l 2,23,24
 449 371 449 371 405 423 c 128,-1,25
 361 475 361 475 291.5 475 c 0,26,27
 222 475 222 475 177.5 423.5 c 128,-1,28
 133 372 133 372 133 269 c 2,16,-1
EndSplineSet
EndChar

StartChar: c
Encoding: 99 99 114
Width: 544
GlyphClass: 2
Flags: MW
HStem: -10 46<219 305.5 219 321> 475 46<218 305>
VStem: 51 51<248 263 263 269 172.5 345.5> 414 50<141.5 197 314 368.5>
AnchorPoint: "Bottom" 272 0 basechar 0
LayerCount: 2
Fore
SplineSet
414 197 m 1,0,-1
 464 197 l 1,1,2
 464 100 464 100 408 45 c 128,-1,3
 352 -10 352 -10 260.5 -10 c 0,4,5
 169 -10 169 -10 110 58.5 c 128,-1,6
 51 127 51 127 51 248 c 2,7,-1
 51 263 l 2,8,9
 51 385 51 385 109.5 453 c 128,-1,10
 168 521 168 521 259.5 521 c 0,11,12
 351 521 351 521 407.5 466 c 128,-1,13
 464 411 464 411 464 314 c 1,14,-1
 414 314 l 1,15,16
 414 392 414 392 371.5 433.5 c 128,-1,17
 329 475 329 475 260.5 475 c 0,18,19
 192 475 192 475 147 422 c 128,-1,20
 102 369 102 369 102 269 c 2,21,-1
 102 242 l 2,22,23
 102 142 102 142 147.5 89 c 128,-1,24
 193 36 193 36 261.5 36 c 0,25,26
 330 36 330 36 372 77 c 128,-1,27
 414 118 414 118 414 197 c 1,0,-1
EndSplineSet
EndChar

StartChar: cacute
Encoding: 263 263 115
Width: 544
GlyphClass: 2
Flags: MW
HStem: -10 46<219 305.5 219 321> 475 46<218 305> 575 145<231 392 231 392>
VStem: 51 51<248 263 263 269 172.5 345.5> 414 50<141.5 197 314 368.5>
AnchorPoint: "Bottom" 272 0 basechar 0
LayerCount: 2
Fore
SplineSet
327 720 m 1,0,-1
 392 720 l 1,1,-1
 392 717 l 1,2,-1
 281 575 l 1,3,-1
 231 575 l 1,4,-1
 327 720 l 1,0,-1
414 197 m 1,5,-1
 464 197 l 1,6,7
 464 100 464 100 408 45 c 128,-1,8
 352 -10 352 -10 260.5 -10 c 0,9,10
 169 -10 169 -10 110 58.5 c 128,-1,11
 51 127 51 127 51 248 c 2,12,-1
 51 263 l 2,13,14
 51 385 51 385 109.5 453 c 128,-1,15
 168 521 168 521 259.5 521 c 0,16,17
 351 521 351 521 407.5 466 c 128,-1,18
 464 411 464 411 464 314 c 1,19,-1
 414 314 l 1,20,21
 414 392 414 392 371.5 433.5 c 128,-1,22
 329 475 329 475 260.5 475 c 0,23,24
 192 475 192 475 147 422 c 128,-1,25
 102 369 102 369 102 269 c 2,26,-1
 102 242 l 2,27,28
 102 142 102 142 147.5 89 c 128,-1,29
 193 36 193 36 261.5 36 c 0,30,31
 330 36 330 36 372 77 c 128,-1,32
 414 118 414 118 414 197 c 1,5,-1
EndSplineSet
EndChar

StartChar: ccaron
Encoding: 269 269 116
Width: 544
GlyphClass: 2
Flags: MW
HStem: -10 46<219 305.5 219 321> 475 46<218 305> 575 145<99 291 99 233>
VStem: 51 51<248 263 263 269 172.5 345.5> 414 50<141.5 197 314 368.5>
AnchorPoint: "Bottom" 272 0 basechar 0
LayerCount: 2
Fore
SplineSet
159 720 m 1,0,-1
 262 623 l 1,1,-1
 365 720 l 1,2,-1
 425 720 l 1,3,-1
 291 575 l 1,4,-1
 233 575 l 1,5,-1
 99 720 l 1,6,-1
 159 720 l 1,0,-1
414 197 m 1,7,-1
 464 197 l 1,8,9
 464 100 464 100 408 45 c 128,-1,10
 352 -10 352 -10 260.5 -10 c 0,11,12
 169 -10 169 -10 110 58.5 c 128,-1,13
 51 127 51 127 51 248 c 2,14,-1
 51 263 l 2,15,16
 51 385 51 385 109.5 453 c 128,-1,17
 168 521 168 521 259.5 521 c 0,18,19
 351 521 351 521 407.5 466 c 128,-1,20
 464 411 464 411 464 314 c 1,21,-1
 414 314 l 1,22,23
 414 392 414 392 371.5 433.5 c 128,-1,24
 329 475 329 475 260.5 475 c 0,25,26
 192 475 192 475 147 422 c 128,-1,27
 102 369 102 369 102 269 c 2,28,-1
 102 242 l 2,29,30
 102 142 102 142 147.5 89 c 128,-1,31
 193 36 193 36 261.5 36 c 0,32,33
 330 36 330 36 372 77 c 128,-1,34
 414 118 414 118 414 197 c 1,7,-1
EndSplineSet
EndChar

StartChar: ccedilla
Encoding: 231 231 117
Width: 544
GlyphClass: 2
Flags: MW
HStem: -197 46<231.5 253.5 218.5 267> -184 21G<166 166> -51 34<231 253 231 256> -10 46<219 305.5 219 321> 475 46<218 305>
VStem: 51 51<248 263 263 269 172.5 345.5> 311 51<-118.5 -81.5> 414 50<141.5 197 314 368.5>
LayerCount: 2
Fore
SplineSet
414 197 m 1,0,-1
 464 197 l 1,1,2
 464 100 464 100 408 45 c 128,-1,3
 352 -10 352 -10 260.5 -10 c 0,4,5
 169 -10 169 -10 110 58.5 c 128,-1,6
 51 127 51 127 51 248 c 2,7,-1
 51 263 l 2,8,9
 51 385 51 385 109.5 453 c 128,-1,10
 168 521 168 521 259.5 521 c 0,11,12
 351 521 351 521 407.5 466 c 128,-1,13
 464 411 464 411 464 314 c 1,14,-1
 414 314 l 1,15,16
 414 392 414 392 371.5 433.5 c 128,-1,17
 329 475 329 475 260.5 475 c 0,18,19
 192 475 192 475 147 422 c 128,-1,20
 102 369 102 369 102 269 c 2,21,-1
 102 242 l 2,22,23
 102 142 102 142 147.5 89 c 128,-1,24
 193 36 193 36 261.5 36 c 0,25,26
 330 36 330 36 372 77 c 128,-1,27
 414 118 414 118 414 197 c 1,0,-1
166 -184 m 1,28,-1
 166 -138 l 1,29,30
 190 -151 190 -151 235 -151 c 0,31,32
 311 -151 311 -151 311 -97 c 0,33,34
 311 -75 311 -75 293.5 -63 c 128,-1,35
 276 -51 276 -51 253 -51 c 2,36,-1
 231 -51 l 1,37,-1
 231 -17 l 1,38,-1
 256 -17 l 2,39,40
 362 -17 362 -17 362 -106 c 0,41,42
 362 -155 362 -155 325.5 -176 c 128,-1,43
 289 -197 289 -197 245 -197 c 0,44,45
 201 -197 201 -197 166 -184 c 1,28,-1
EndSplineSet
EndChar

StartChar: d
Encoding: 100 100 118
Width: 583
GlyphClass: 2
Flags: MW
HStem: -10 46<216.5 292.5> 0 21G<435 435 435 469> 475 46<216.5 291 199 303.5>
VStem: 52 51<260 269 175 271 175 352> 418 51<440 720 0 720>
LayerCount: 2
Fore
SplineSet
435 0 m 1,0,-1
 424 77 l 1,1,2
 368 -10 368 -10 255 -10 c 0,3,4
 165 -10 165 -10 108.5 57.5 c 128,-1,5
 52 125 52 125 52 260 c 2,6,-1
 52 271 l 2,7,8
 52 388 52 388 109.5 454.5 c 128,-1,9
 167 521 167 521 255 521 c 0,10,11
 365 521 365 521 418 440 c 1,12,-1
 418 720 l 1,13,-1
 469 720 l 1,14,-1
 469 0 l 1,15,-1
 435 0 l 1,0,-1
419 257 m 2,16,-1
 419 269 l 2,17,18
 419 372 419 372 374.5 423.5 c 128,-1,19
 330 475 330 475 260.5 475 c 0,20,21
 191 475 191 475 147 423 c 128,-1,22
 103 371 103 371 103 269 c 2,23,-1
 103 258 l 2,24,25
 103 141 103 141 146 88.5 c 128,-1,26
 189 36 189 36 260 36 c 0,27,28
 419 36 419 36 419 257 c 2,16,-1
EndSplineSet
EndChar

StartChar: eth
Encoding: 240 240 119
Width: 575
GlyphClass: 2
Flags: MW
HStem: -10 46<222 314 222 331> 475 46<222 281.5 205 314> 668 20G<370 370>
VStem: 52 51<248 263 263 269 172.5 345.5> 433 51<242 248 248 263 165.5 269 165.5 338.5>
LayerCount: 2
Fore
SplineSet
111 707 m 1,0,-1
 148 724 l 1,1,2
 210 685 210 685 243 661 c 1,3,-1
 347 711 l 1,4,-1
 370 688 l 1,5,-1
 271 640 l 1,6,7
 484 475 484 475 484 263 c 2,8,-1
 484 248 l 2,9,10
 484 127 484 127 424.5 58.5 c 128,-1,11
 365 -10 365 -10 268 -10 c 128,-1,12
 171 -10 171 -10 111.5 58.5 c 128,-1,13
 52 127 52 127 52 248 c 2,14,-1
 52 263 l 2,15,16
 52 384 52 384 111.5 452.5 c 128,-1,17
 171 521 171 521 268 521 c 0,18,19
 306 521 306 521 343 508 c 1,20,21
 297 563 297 563 230 620 c 1,22,-1
 128 570 l 1,23,-1
 102 593 l 1,24,-1
 203 642 l 1,25,26
 168 669 168 669 111 707 c 1,0,-1
268 36 m 128,-1,28
 341 36 341 36 387 89 c 128,-1,29
 433 142 433 142 433 242 c 2,30,-1
 433 269 l 2,31,32
 433 369 433 369 387 422 c 128,-1,33
 341 475 341 475 268 475 c 128,-1,34
 195 475 195 475 149 422 c 128,-1,35
 103 369 103 369 103 269 c 2,36,-1
 103 242 l 2,37,38
 103 142 103 142 149 89 c 128,-1,27
 195 36 195 36 268 36 c 128,-1,28
EndSplineSet
EndChar

StartChar: dcaron
Encoding: 271 271 120
Width: 583
GlyphClass: 2
Flags: MW
HStem: -10 46<216.5 292.5> 0 21G<435 435 435 469> 475 46<216.5 291 199 303.5> 496 20G<533 567 533 533.5> 516 170<533 567 533 533.5> 617 69<532 556 532 597>
VStem: 52 51<260 269 175 271 175 352> 418 51<440 720 0 720> 532 65<628 686 628 686 628 686>
LayerCount: 2
Fore
SplineSet
435 0 m 1,0,-1
 424 77 l 1,1,2
 368 -10 368 -10 255 -10 c 0,3,4
 165 -10 165 -10 108.5 57.5 c 128,-1,5
 52 125 52 125 52 260 c 2,6,-1
 52 271 l 2,7,8
 52 388 52 388 109.5 454.5 c 128,-1,9
 167 521 167 521 255 521 c 0,10,11
 365 521 365 521 418 440 c 1,12,-1
 418 720 l 1,13,-1
 469 720 l 1,14,-1
 469 0 l 1,15,-1
 435 0 l 1,0,-1
567 516 m 1,16,-1
 533 516 l 1,17,-1
 556 617 l 1,18,-1
 532 617 l 1,19,-1
 532 686 l 1,20,-1
 597 686 l 1,21,-1
 597 628 l 1,22,-1
 567 516 l 1,16,-1
419 257 m 2,23,-1
 419 269 l 2,24,25
 419 372 419 372 374.5 423.5 c 128,-1,26
 330 475 330 475 260.5 475 c 0,27,28
 191 475 191 475 147 423 c 128,-1,29
 103 371 103 371 103 269 c 2,30,-1
 103 258 l 2,31,32
 103 141 103 141 146 88.5 c 128,-1,33
 189 36 189 36 260 36 c 0,34,35
 419 36 419 36 419 257 c 2,23,-1
EndSplineSet
EndChar

StartChar: dcroat
Encoding: 273 273 121
Width: 583
GlyphClass: 2
Flags: MW
HStem: -10 46<216.5 292.5> 0 21G<435 469 435 435> 475 46<216.5 291 199 303.5> 623 43<241 418 241 418 469 559>
VStem: 52 51<260 269 175 271 175 352> 418 51<440 623 0 623 666 720>
LayerCount: 2
Fore
SplineSet
559 623 m 1,0,-1
 469 623 l 1,1,-1
 469 0 l 1,2,-1
 435 0 l 1,3,-1
 424 77 l 1,4,5
 368 -10 368 -10 255 -10 c 0,6,7
 165 -10 165 -10 108.5 57.5 c 128,-1,8
 52 125 52 125 52 260 c 2,9,-1
 52 271 l 2,10,11
 52 388 52 388 109.5 454.5 c 128,-1,12
 167 521 167 521 255 521 c 0,13,14
 365 521 365 521 418 440 c 1,15,-1
 418 623 l 1,16,-1
 241 623 l 1,17,-1
 241 666 l 1,18,-1
 418 666 l 1,19,-1
 418 720 l 1,20,-1
 469 720 l 1,21,-1
 469 666 l 1,22,-1
 559 666 l 1,23,-1
 559 623 l 1,0,-1
419 257 m 2,24,-1
 419 269 l 2,25,26
 419 372 419 372 374.5 423.5 c 128,-1,27
 330 475 330 475 260.5 475 c 0,28,29
 191 475 191 475 147 423 c 128,-1,30
 103 371 103 371 103 269 c 2,31,-1
 103 258 l 2,32,33
 103 141 103 141 146 88.5 c 128,-1,34
 189 36 189 36 260 36 c 0,35,36
 419 36 419 36 419 257 c 2,24,-1
EndSplineSet
EndChar

StartChar: e
Encoding: 101 101 122
Width: 556
GlyphClass: 2
Flags: MW
HStem: -10 46<219 304.5 219 320> 250 46<103 414 103 464 102 414> 475 46<221 305>
VStem: 51 51<248 250 172.5 263 172.5 345.5> 414 50<136.5 189 296 314>
AnchorPoint: "Bottom" 278 0 basechar 0
LayerCount: 2
Fore
SplineSet
414 189 m 1,0,-1
 464 189 l 1,1,2
 464 96 464 96 407.5 43 c 128,-1,3
 351 -10 351 -10 260 -10 c 128,-1,4
 169 -10 169 -10 110 58.5 c 128,-1,5
 51 127 51 127 51 248 c 2,6,-1
 51 263 l 2,7,8
 51 385 51 385 109.5 453 c 128,-1,9
 168 521 168 521 259.5 521 c 128,-1,10
 351 521 351 521 407.5 466 c 128,-1,11
 464 411 464 411 464 314 c 2,12,-1
 464 250 l 1,13,-1
 102 250 l 1,14,-1
 102 242 l 2,15,16
 102 142 102 142 147.5 89 c 128,-1,17
 193 36 193 36 261 36 c 128,-1,18
 329 36 329 36 371.5 75 c 128,-1,19
 414 114 414 114 414 189 c 1,0,-1
371.5 433.5 m 128,-1,21
 329 475 329 475 263 475 c 128,-1,22
 197 475 197 475 153 429 c 128,-1,23
 109 383 109 383 103 296 c 1,24,-1
 414 296 l 1,25,-1
 414 314 l 2,26,20
 414 392 414 392 371.5 433.5 c 128,-1,21
EndSplineSet
EndChar

StartChar: eacute
Encoding: 233 233 123
Width: 556
GlyphClass: 2
Flags: MW
HStem: -10 46<219 304.5 219 320> 250 46<103 414 103 464 102 414> 475 46<221 305> 575 145<245 406 245 406>
VStem: 51 51<248 250 172.5 263 172.5 345.5> 414 50<136.5 189 296 314>
LayerCount: 2
Fore
SplineSet
341 720 m 1,0,-1
 406 720 l 1,1,-1
 406 717 l 1,2,-1
 295 575 l 1,3,-1
 245 575 l 1,4,-1
 341 720 l 1,0,-1
414 189 m 1,5,-1
 464 189 l 1,6,7
 464 96 464 96 407.5 43 c 128,-1,8
 351 -10 351 -10 260 -10 c 128,-1,9
 169 -10 169 -10 110 58.5 c 128,-1,10
 51 127 51 127 51 248 c 2,11,-1
 51 263 l 2,12,13
 51 385 51 385 109.5 453 c 128,-1,14
 168 521 168 521 259.5 521 c 128,-1,15
 351 521 351 521 407.5 466 c 128,-1,16
 464 411 464 411 464 314 c 2,17,-1
 464 250 l 1,18,-1
 102 250 l 1,19,-1
 102 242 l 2,20,21
 102 142 102 142 147.5 89 c 128,-1,22
 193 36 193 36 261 36 c 128,-1,23
 329 36 329 36 371.5 75 c 128,-1,24
 414 114 414 114 414 189 c 1,5,-1
371.5 433.5 m 128,-1,26
 329 475 329 475 263 475 c 128,-1,27
 197 475 197 475 153 429 c 128,-1,28
 109 383 109 383 103 296 c 1,29,-1
 414 296 l 1,30,-1
 414 314 l 2,31,25
 414 392 414 392 371.5 433.5 c 128,-1,26
EndSplineSet
EndChar

StartChar: ecaron
Encoding: 283 283 124
Width: 556
GlyphClass: 2
Flags: MW
HStem: -10 46<219 304.5 219 320> 250 46<103 414 103 464 102 414> 475 46<221 305> 575 145<115 307 115 249>
VStem: 51 51<248 250 172.5 263 172.5 345.5> 414 50<136.5 189 296 314>
AnchorPoint: "Bottom" 278 0 basechar 0
LayerCount: 2
Fore
SplineSet
175 720 m 1,0,-1
 278 623 l 1,1,-1
 381 720 l 1,2,-1
 441 720 l 1,3,-1
 307 575 l 1,4,-1
 249 575 l 1,5,-1
 115 720 l 1,6,-1
 175 720 l 1,0,-1
414 189 m 1,7,-1
 464 189 l 1,8,9
 464 96 464 96 407.5 43 c 128,-1,10
 351 -10 351 -10 260 -10 c 128,-1,11
 169 -10 169 -10 110 58.5 c 128,-1,12
 51 127 51 127 51 248 c 2,13,-1
 51 263 l 2,14,15
 51 385 51 385 109.5 453 c 128,-1,16
 168 521 168 521 259.5 521 c 128,-1,17
 351 521 351 521 407.5 466 c 128,-1,18
 464 411 464 411 464 314 c 2,19,-1
 464 250 l 1,20,-1
 102 250 l 1,21,-1
 102 242 l 2,22,23
 102 142 102 142 147.5 89 c 128,-1,24
 193 36 193 36 261 36 c 128,-1,25
 329 36 329 36 371.5 75 c 128,-1,26
 414 114 414 114 414 189 c 1,7,-1
371.5 433.5 m 128,-1,28
 329 475 329 475 263 475 c 128,-1,29
 197 475 197 475 153 429 c 128,-1,30
 109 383 109 383 103 296 c 1,31,-1
 414 296 l 1,32,-1
 414 314 l 2,33,27
 414 392 414 392 371.5 433.5 c 128,-1,28
EndSplineSet
EndChar

StartChar: ecircumflex
Encoding: 234 234 125
Width: 556
GlyphClass: 2
Flags: MW
HStem: -10 46<219 304.5 219 320> 250 46<103 414 103 464 102 414> 475 46<221 305> 575 145<103 295 103 295 237 429 237 369>
VStem: 51 51<248 250 172.5 263 172.5 345.5> 414 50<136.5 189 296 314>
LayerCount: 2
Fore
SplineSet
295 720 m 1,0,-1
 429 575 l 1,1,-1
 369 575 l 1,2,-1
 266 672 l 1,3,-1
 163 575 l 1,4,-1
 103 575 l 1,5,-1
 237 720 l 1,6,-1
 295 720 l 1,0,-1
414 189 m 1,7,-1
 464 189 l 1,8,9
 464 96 464 96 407.5 43 c 128,-1,10
 351 -10 351 -10 260 -10 c 128,-1,11
 169 -10 169 -10 110 58.5 c 128,-1,12
 51 127 51 127 51 248 c 2,13,-1
 51 263 l 2,14,15
 51 385 51 385 109.5 453 c 128,-1,16
 168 521 168 521 259.5 521 c 128,-1,17
 351 521 351 521 407.5 466 c 128,-1,18
 464 411 464 411 464 314 c 2,19,-1
 464 250 l 1,20,-1
 102 250 l 1,21,-1
 102 242 l 2,22,23
 102 142 102 142 147.5 89 c 128,-1,24
 193 36 193 36 261 36 c 128,-1,25
 329 36 329 36 371.5 75 c 128,-1,26
 414 114 414 114 414 189 c 1,7,-1
371.5 433.5 m 128,-1,28
 329 475 329 475 263 475 c 128,-1,29
 197 475 197 475 153 429 c 128,-1,30
 109 383 109 383 103 296 c 1,31,-1
 414 296 l 1,32,-1
 414 314 l 2,33,27
 414 392 414 392 371.5 433.5 c 128,-1,28
EndSplineSet
EndChar

StartChar: edieresis
Encoding: 235 235 126
Width: 556
GlyphClass: 2
Flags: MW
HStem: -10 46<219 304.5 219 320> 250 46<103 414 103 464 102 414> 475 46<221 305> 651 69<150 215 150 215 326 391>
VStem: 51 51<248 250 172.5 263 172.5 345.5> 150 65<651 720 651 720> 326 65<651 720 651 720> 414 50<136.5 189 296 314>
LayerCount: 2
Fore
SplineSet
215 720 m 1,0,-1
 215 651 l 1,1,-1
 150 651 l 1,2,-1
 150 720 l 1,3,-1
 215 720 l 1,0,-1
391 720 m 1,4,-1
 391 651 l 1,5,-1
 326 651 l 1,6,-1
 326 720 l 1,7,-1
 391 720 l 1,4,-1
414 189 m 1,8,-1
 464 189 l 1,9,10
 464 96 464 96 407.5 43 c 128,-1,11
 351 -10 351 -10 260 -10 c 128,-1,12
 169 -10 169 -10 110 58.5 c 128,-1,13
 51 127 51 127 51 248 c 2,14,-1
 51 263 l 2,15,16
 51 385 51 385 109.5 453 c 128,-1,17
 168 521 168 521 259.5 521 c 128,-1,18
 351 521 351 521 407.5 466 c 128,-1,19
 464 411 464 411 464 314 c 2,20,-1
 464 250 l 1,21,-1
 102 250 l 1,22,-1
 102 242 l 2,23,24
 102 142 102 142 147.5 89 c 128,-1,25
 193 36 193 36 261 36 c 128,-1,26
 329 36 329 36 371.5 75 c 128,-1,27
 414 114 414 114 414 189 c 1,8,-1
371.5 433.5 m 128,-1,29
 329 475 329 475 263 475 c 128,-1,30
 197 475 197 475 153 429 c 128,-1,31
 109 383 109 383 103 296 c 1,32,-1
 414 296 l 1,33,-1
 414 314 l 2,34,28
 414 392 414 392 371.5 433.5 c 128,-1,29
EndSplineSet
EndChar

StartChar: edotaccent
Encoding: 279 279 127
Width: 556
GlyphClass: 2
Flags: MW
HStem: -10 46<219 304.5 219 320> 250 46<103 414 103 464 102 414> 475 46<221 305> 604 132<259.5 295.5>
VStem: 51 51<248 250 172.5 263 172.5 345.5> 212 132<652 688 651 688.5> 414 50<136.5 189 296 314>
AnchorPoint: "Bottom" 278 0 basechar 0
LayerCount: 2
Fore
SplineSet
325 716.5 m 128,-1,1
 344 697 344 697 344 669.5 c 128,-1,2
 344 642 344 642 324.5 623 c 128,-1,3
 305 604 305 604 278 604 c 128,-1,4
 251 604 251 604 231.5 623.5 c 128,-1,5
 212 643 212 643 212 670.5 c 128,-1,6
 212 698 212 698 231 717 c 128,-1,7
 250 736 250 736 278 736 c 128,-1,0
 306 736 306 736 325 716.5 c 128,-1,1
414 189 m 1,8,-1
 464 189 l 1,9,10
 464 96 464 96 407.5 43 c 128,-1,11
 351 -10 351 -10 260 -10 c 128,-1,12
 169 -10 169 -10 110 58.5 c 128,-1,13
 51 127 51 127 51 248 c 2,14,-1
 51 263 l 2,15,16
 51 385 51 385 109.5 453 c 128,-1,17
 168 521 168 521 259.5 521 c 128,-1,18
 351 521 351 521 407.5 466 c 128,-1,19
 464 411 464 411 464 314 c 2,20,-1
 464 250 l 1,21,-1
 102 250 l 1,22,-1
 102 242 l 2,23,24
 102 142 102 142 147.5 89 c 128,-1,25
 193 36 193 36 261 36 c 128,-1,26
 329 36 329 36 371.5 75 c 128,-1,27
 414 114 414 114 414 189 c 1,8,-1
371.5 433.5 m 128,-1,29
 329 475 329 475 263 475 c 128,-1,30
 197 475 197 475 153 429 c 128,-1,31
 109 383 109 383 103 296 c 1,32,-1
 414 296 l 1,33,-1
 414 314 l 2,34,28
 414 392 414 392 371.5 433.5 c 128,-1,29
EndSplineSet
EndChar

StartChar: egrave
Encoding: 232 232 128
Width: 556
GlyphClass: 2
Flags: MW
HStem: -10 46<219 304.5 219 320> 250 46<103 414 103 464 102 414> 475 46<221 305> 575 145<134 295 134 245>
VStem: 51 51<248 250 172.5 263 172.5 345.5> 414 50<136.5 189 296 314>
LayerCount: 2
Fore
SplineSet
134 717 m 1,0,-1
 134 720 l 1,1,-1
 199 720 l 1,2,-1
 295 575 l 1,3,-1
 245 575 l 1,4,-1
 134 717 l 1,0,-1
414 189 m 1,5,-1
 464 189 l 1,6,7
 464 96 464 96 407.5 43 c 128,-1,8
 351 -10 351 -10 260 -10 c 128,-1,9
 169 -10 169 -10 110 58.5 c 128,-1,10
 51 127 51 127 51 248 c 2,11,-1
 51 263 l 2,12,13
 51 385 51 385 109.5 453 c 128,-1,14
 168 521 168 521 259.5 521 c 128,-1,15
 351 521 351 521 407.5 466 c 128,-1,16
 464 411 464 411 464 314 c 2,17,-1
 464 250 l 1,18,-1
 102 250 l 1,19,-1
 102 242 l 2,20,21
 102 142 102 142 147.5 89 c 128,-1,22
 193 36 193 36 261 36 c 128,-1,23
 329 36 329 36 371.5 75 c 128,-1,24
 414 114 414 114 414 189 c 1,5,-1
371.5 433.5 m 128,-1,26
 329 475 329 475 263 475 c 128,-1,27
 197 475 197 475 153 429 c 128,-1,28
 109 383 109 383 103 296 c 1,29,-1
 414 296 l 1,30,-1
 414 314 l 2,31,25
 414 392 414 392 371.5 433.5 c 128,-1,26
EndSplineSet
EndChar

StartChar: emacron
Encoding: 275 275 129
Width: 556
GlyphClass: 2
Flags: MW
HStem: -10 46<219 304.5 219 320> 250 46<103 414 103 464 102 414> 475 46<221 305> 692 44<119 437 119 437>
VStem: 51 51<248 250 172.5 263 172.5 345.5> 414 50<136.5 189 296 314>
AnchorPoint: "Bottom" 278 0 basechar 0
LayerCount: 2
Fore
SplineSet
119 736 m 1,0,-1
 437 736 l 1,1,-1
 437 692 l 1,2,-1
 119 692 l 1,3,-1
 119 736 l 1,0,-1
414 189 m 1,4,-1
 464 189 l 1,5,6
 464 96 464 96 407.5 43 c 128,-1,7
 351 -10 351 -10 260 -10 c 128,-1,8
 169 -10 169 -10 110 58.5 c 128,-1,9
 51 127 51 127 51 248 c 2,10,-1
 51 263 l 2,11,12
 51 385 51 385 109.5 453 c 128,-1,13
 168 521 168 521 259.5 521 c 128,-1,14
 351 521 351 521 407.5 466 c 128,-1,15
 464 411 464 411 464 314 c 2,16,-1
 464 250 l 1,17,-1
 102 250 l 1,18,-1
 102 242 l 2,19,20
 102 142 102 142 147.5 89 c 128,-1,21
 193 36 193 36 261 36 c 128,-1,22
 329 36 329 36 371.5 75 c 128,-1,23
 414 114 414 114 414 189 c 1,4,-1
371.5 433.5 m 128,-1,25
 329 475 329 475 263 475 c 128,-1,26
 197 475 197 475 153 429 c 128,-1,27
 109 383 109 383 103 296 c 1,28,-1
 414 296 l 1,29,-1
 414 314 l 2,30,24
 414 392 414 392 371.5 433.5 c 128,-1,25
EndSplineSet
EndChar

StartChar: eogonek
Encoding: 281 281 130
Width: 556
GlyphClass: 2
Flags: MW
HStem: -143 43<324.5 345.5> -10 46<219 265 265 274> 0 21G<333 338 338 338> 250 46<102 414 103 414 103 464> 475 46<221 305>
VStem: 51 51<248 250 172.5 263 172.5 345.5> 234 57<-75.5 -58> 414 50<139 189 139 189 296 314>
AnchorPoint: "Bottom" 278 0 basechar 0
LayerCount: 2
Fore
SplineSet
338 0 m 1,0,1
 291 -31.3333333333 291 -31.3333333333 291 -60 c 0,2,3
 291 -100 291 -100 335 -100 c 0,4,5
 360 -100 360 -100 402 -86 c 1,6,-1
 415 -119 l 1,7,8
 376 -143 376 -143 333.5 -143 c 128,-1,9
 291 -143 291 -143 262.5 -126 c 128,-1,10
 234 -109 234 -109 234 -74.5 c 128,-1,11
 234 -40 234 -40 274 -10 c 1,12,-1
 265 -10 l 2,13,14
 169 -10 169 -10 110 58.5 c 128,-1,15
 51 127 51 127 51 248 c 2,16,-1
 51 263 l 2,17,18
 51 385 51 385 109.5 453 c 128,-1,19
 168 521 168 521 259.5 521 c 128,-1,20
 351 521 351 521 407.5 466 c 128,-1,21
 464 411 464 411 464 314 c 2,22,-1
 464 250 l 1,23,-1
 102 250 l 1,24,-1
 102 242 l 2,25,26
 102 142 102 142 147.5 89 c 128,-1,27
 193 36 193 36 261 36 c 128,-1,28
 329 36 329 36 371.5 75 c 128,-1,29
 414 114 414 114 414 189 c 1,30,-1
 464 189 l 1,31,32
 464 116 464 116 428.5 67.5 c 128,-1,33
 393 19 393 19 333 0 c 1,34,-1
 338 0 l 1,0,1
371.5 433.5 m 128,-1,36
 329 475 329 475 263 475 c 128,-1,37
 197 475 197 475 153 429 c 128,-1,38
 109 383 109 383 103 296 c 1,39,-1
 414 296 l 1,40,-1
 414 314 l 2,41,35
 414 392 414 392 371.5 433.5 c 128,-1,36
EndSplineSet
EndChar

StartChar: f
Encoding: 102 102 131
Width: 338
GlyphClass: 2
Flags: MW
HStem: 0 21G<103 154 103 103> 465 46<47 103 47 103 154 273> 682 46<197 217.5 175.5 218.5>
VStem: 103 51<0 465 0 465 511 615>
LayerCount: 2
Fore
SplineSet
273 711 m 1,0,-1
 273 666 l 1,1,2
 236 682 236 682 210.5 682 c 0,3,4
 185 682 185 682 169.5 668.5 c 128,-1,5
 154 655 154 655 154 615 c 2,6,-1
 154 511 l 1,7,-1
 273 511 l 1,8,-1
 273 465 l 1,9,-1
 154 465 l 1,10,-1
 154 0 l 1,11,-1
 103 0 l 1,12,-1
 103 465 l 1,13,-1
 47 465 l 1,14,-1
 47 511 l 1,15,-1
 103 511 l 1,16,-1
 103 617 l 2,17,18
 103 672 103 672 130.5 700 c 128,-1,19
 158 728 158 728 201 728 c 0,20,21
 244 728 244 728 273 711 c 1,0,-1
EndSplineSet
EndChar

StartChar: g
Encoding: 103 103 132
Width: 568
GlyphClass: 2
Flags: MW
HStem: -188 46<125.5 382 166 379> 18 49<144 404 191 400> 200 45<170 319.5 226.5 273> 475 46<226.5 295.5 205 319.5>
VStem: 36 50<-84 -40 -84 -37> 65 51<118 154 112 159> 78 51<335 391.5 328.5 404.5> 417 51<328.5 383 316 391.5> 471 51<-79 -35.5>
LayerCount: 2
Fore
SplineSet
191 67 m 2,0,-1
 404 67 l 2,1,2
 456 67 456 67 489 33 c 128,-1,3
 522 -1 522 -1 522 -55.5 c 0,4,5
 522 -110 522 -110 481.5 -149 c 128,-1,6
 441 -188 441 -188 379 -188 c 2,7,-1
 162 -188 l 2,8,9
 109 -188 109 -188 72.5 -149.5 c 128,-1,10
 36 -111 36 -111 36 -67.5 c 0,11,12
 36 -24 36 -24 56 8.5 c 128,-1,13
 76 41 76 41 110 55 c 1,14,15
 65 82 65 82 65 135 c 0,16,17
 65 205 65 205 146 236 c 1,18,19
 78 286 78 286 78 358.5 c 0,20,21
 78 431 78 431 127 476 c 128,-1,22
 176 521 176 521 273 521 c 0,23,24
 338 521 338 521 384 499 c 1,25,26
 464 521 464 521 474 603 c 1,27,-1
 522 603 l 1,28,29
 522 559 522 559 494.5 521 c 128,-1,30
 467 483 467 483 423 477 c 1,31,-1
 422 473 l 1,32,33
 468 433 468 433 468 361 c 0,34,35
 468 289 468 289 419 244.5 c 128,-1,36
 370 200 370 200 273 200 c 2,37,-1
 191 200 l 2,38,39
 159 200 159 200 137.5 182 c 128,-1,40
 116 164 116 164 116 133 c 128,-1,41
 116 102 116 102 137 84.5 c 128,-1,42
 158 67 158 67 191 67 c 2,0,-1
417 360 m 128,-1,44
 417 409 417 409 378.5 442 c 128,-1,45
 340 475 340 475 273 475 c 128,-1,46
 206 475 206 475 167.5 442 c 128,-1,47
 129 409 129 409 129 360 c 128,-1,48
 129 311 129 311 167.5 278 c 128,-1,49
 206 245 206 245 273 245 c 128,-1,50
 340 245 340 245 378.5 278 c 128,-1,43
 417 311 417 311 417 360 c 128,-1,44
166 -142 m 2,51,-1
 382 -142 l 2,52,53
 418 -142 418 -142 444.5 -116.5 c 128,-1,54
 471 -91 471 -91 471 -58.5 c 0,55,56
 471 -26 471 -26 450 -4 c 128,-1,57
 429 18 429 18 400 18 c 2,58,-1
 166 18 l 2,59,60
 133 18 133 18 109.5 -5.5 c 128,-1,61
 86 -29 86 -29 86 -62 c 128,-1,62
 86 -95 86 -95 109.5 -118.5 c 128,-1,63
 133 -142 133 -142 166 -142 c 2,51,-1
EndSplineSet
EndChar

StartChar: gbreve
Encoding: 287 287 133
Width: 568
GlyphClass: 2
Flags: MW
HStem: -188 46<125.5 382 166 379> 18 49<144 404 191 400> 200 45<170 319.5 226.5 273> 475 46<226.5 295.5 205 319.5> 613 49<250.5 315.5 250.5 336.5>
VStem: 36 50<-84 -40 -84 -37> 65 51<118 154 112 159> 78 51<335 391.5 328.5 404.5> 417 51<328.5 383 316 391.5> 471 51<-79 -35.5>
LayerCount: 2
Fore
SplineSet
283 613 m 128,-1,1
 206 613 206 613 148.5 652.5 c 128,-1,2
 91 692 91 692 91 737 c 1,3,-1
 147 737 l 1,4,5
 159 701 159 701 195.5 681.5 c 128,-1,6
 232 662 232 662 283 662 c 128,-1,7
 334 662 334 662 371 681.5 c 128,-1,8
 408 701 408 701 420 737 c 1,9,-1
 476 737 l 1,10,11
 476 692 476 692 418 652.5 c 128,-1,0
 360 613 360 613 283 613 c 128,-1,1
191 67 m 2,12,-1
 404 67 l 2,13,14
 456 67 456 67 489 33 c 128,-1,15
 522 -1 522 -1 522 -55.5 c 0,16,17
 522 -110 522 -110 481.5 -149 c 128,-1,18
 441 -188 441 -188 379 -188 c 2,19,-1
 162 -188 l 2,20,21
 109 -188 109 -188 72.5 -149.5 c 128,-1,22
 36 -111 36 -111 36 -67.5 c 0,23,24
 36 -24 36 -24 56 8.5 c 128,-1,25
 76 41 76 41 110 55 c 1,26,27
 65 82 65 82 65 135 c 0,28,29
 65 205 65 205 146 236 c 1,30,31
 78 286 78 286 78 358.5 c 0,32,33
 78 431 78 431 127 476 c 128,-1,34
 176 521 176 521 273 521 c 0,35,36
 338 521 338 521 384 499 c 1,37,38
 464 521 464 521 474 603 c 1,39,-1
 522 603 l 1,40,41
 522 559 522 559 494.5 521 c 128,-1,42
 467 483 467 483 423 477 c 1,43,-1
 422 473 l 1,44,45
 468 433 468 433 468 361 c 0,46,47
 468 289 468 289 419 244.5 c 128,-1,48
 370 200 370 200 273 200 c 2,49,-1
 191 200 l 2,50,51
 159 200 159 200 137.5 182 c 128,-1,52
 116 164 116 164 116 133 c 128,-1,53
 116 102 116 102 137 84.5 c 128,-1,54
 158 67 158 67 191 67 c 2,12,-1
417 360 m 128,-1,56
 417 409 417 409 378.5 442 c 128,-1,57
 340 475 340 475 273 475 c 128,-1,58
 206 475 206 475 167.5 442 c 128,-1,59
 129 409 129 409 129 360 c 128,-1,60
 129 311 129 311 167.5 278 c 128,-1,61
 206 245 206 245 273 245 c 128,-1,62
 340 245 340 245 378.5 278 c 128,-1,55
 417 311 417 311 417 360 c 128,-1,56
166 -142 m 2,63,-1
 382 -142 l 2,64,65
 418 -142 418 -142 444.5 -116.5 c 128,-1,66
 471 -91 471 -91 471 -58.5 c 0,67,68
 471 -26 471 -26 450 -4 c 128,-1,69
 429 18 429 18 400 18 c 2,70,-1
 166 18 l 2,71,72
 133 18 133 18 109.5 -5.5 c 128,-1,73
 86 -29 86 -29 86 -62 c 128,-1,74
 86 -95 86 -95 109.5 -118.5 c 128,-1,75
 133 -142 133 -142 166 -142 c 2,63,-1
EndSplineSet
EndChar

StartChar: gcommaaccent
Encoding: 291 291 134
Width: 568
GlyphClass: 2
Flags: MW
HStem: -188 46<125.5 382 166 379> 18 49<144 404 191 400> 200 45<170 319.5 226.5 273> 475 46<226.5 295.5 205 319.5> 591 69<294 318 294 318 253 318>
VStem: 36 50<-84 -40 -84 -37> 65 51<118 154 112 159> 78 51<335 391.5 328.5 404.5> 253 65<591 649 649 649> 417 51<328.5 383 316 391.5> 471 51<-79 -35.5>
LayerCount: 2
Fore
SplineSet
283 761 m 1,0,-1
 317 761 l 1,1,-1
 294 660 l 1,2,-1
 318 660 l 1,3,-1
 318 591 l 1,4,-1
 253 591 l 1,5,-1
 253 649 l 1,6,-1
 283 761 l 1,0,-1
191 67 m 2,7,-1
 404 67 l 2,8,9
 456 67 456 67 489 33 c 128,-1,10
 522 -1 522 -1 522 -55.5 c 0,11,12
 522 -110 522 -110 481.5 -149 c 128,-1,13
 441 -188 441 -188 379 -188 c 2,14,-1
 162 -188 l 2,15,16
 109 -188 109 -188 72.5 -149.5 c 128,-1,17
 36 -111 36 -111 36 -67.5 c 0,18,19
 36 -24 36 -24 56 8.5 c 128,-1,20
 76 41 76 41 110 55 c 1,21,22
 65 82 65 82 65 135 c 0,23,24
 65 205 65 205 146 236 c 1,25,26
 78 286 78 286 78 358.5 c 0,27,28
 78 431 78 431 127 476 c 128,-1,29
 176 521 176 521 273 521 c 0,30,31
 338 521 338 521 384 499 c 1,32,33
 464 521 464 521 474 603 c 1,34,-1
 522 603 l 1,35,36
 522 559 522 559 494.5 521 c 128,-1,37
 467 483 467 483 423 477 c 1,38,-1
 422 473 l 1,39,40
 468 433 468 433 468 361 c 0,41,42
 468 289 468 289 419 244.5 c 128,-1,43
 370 200 370 200 273 200 c 2,44,-1
 191 200 l 2,45,46
 159 200 159 200 137.5 182 c 128,-1,47
 116 164 116 164 116 133 c 128,-1,48
 116 102 116 102 137 84.5 c 128,-1,49
 158 67 158 67 191 67 c 2,7,-1
417 360 m 128,-1,51
 417 409 417 409 378.5 442 c 128,-1,52
 340 475 340 475 273 475 c 128,-1,53
 206 475 206 475 167.5 442 c 128,-1,54
 129 409 129 409 129 360 c 128,-1,55
 129 311 129 311 167.5 278 c 128,-1,56
 206 245 206 245 273 245 c 128,-1,57
 340 245 340 245 378.5 278 c 128,-1,50
 417 311 417 311 417 360 c 128,-1,51
166 -142 m 2,58,-1
 382 -142 l 2,59,60
 418 -142 418 -142 444.5 -116.5 c 128,-1,61
 471 -91 471 -91 471 -58.5 c 0,62,63
 471 -26 471 -26 450 -4 c 128,-1,64
 429 18 429 18 400 18 c 2,65,-1
 166 18 l 2,66,67
 133 18 133 18 109.5 -5.5 c 128,-1,68
 86 -29 86 -29 86 -62 c 128,-1,69
 86 -95 86 -95 109.5 -118.5 c 128,-1,70
 133 -142 133 -142 166 -142 c 2,58,-1
EndSplineSet
EndChar

StartChar: h
Encoding: 104 104 135
Width: 593
GlyphClass: 2
Flags: MW
HStem: 0 21G<83 134 83 83 435 486 435 435> 475 46<266.5 336>
VStem: 83 51<0 314 439 720> 435 51<0 314 314 329 0 369.5>
LayerCount: 2
Fore
SplineSet
435 0 m 1,0,-1
 435 314 l 2,1,2
 435 475 435 475 291 475 c 0,3,4
 224 475 224 475 179 429 c 128,-1,5
 134 383 134 383 134 314 c 2,6,-1
 134 0 l 1,7,-1
 83 0 l 1,8,-1
 83 720 l 1,9,-1
 134 720 l 1,10,-1
 134 439 l 1,11,12
 159 478 159 478 204 499.5 c 128,-1,13
 249 521 249 521 296 521 c 0,14,15
 380 521 380 521 433 472.5 c 128,-1,16
 486 424 486 424 486 329 c 2,17,-1
 486 0 l 1,18,-1
 435 0 l 1,0,-1
EndSplineSet
EndChar

StartChar: i
Encoding: 105 105 136
Width: 260
GlyphClass: 2
Flags: MW
HStem: 0 21G<85 136 85 85> 491 20G<85 136 136 136> 666 54<81 140 81 140>
VStem: 81 59<666 720 666 720> 85 51<0 511 0 511>
LayerCount: 2
Fore
SplineSet
140 720 m 1,0,-1
 140 666 l 1,1,-1
 81 666 l 1,2,-1
 81 720 l 1,3,-1
 140 720 l 1,0,-1
85 511 m 1,4,-1
 136 511 l 1,5,-1
 136 0 l 1,6,-1
 85 0 l 1,7,-1
 85 511 l 1,4,-1
EndSplineSet
EndChar

StartChar: dotlessi
Encoding: 305 305 137
Width: 260
GlyphClass: 2
Flags: MW
HStem: 0 21G<83 134 83 83> 491 20G<83 134 134 134>
VStem: 83 51<0 511 0 511>
LayerCount: 2
Fore
SplineSet
83 511 m 1,0,-1
 134 511 l 1,1,-1
 134 0 l 1,2,-1
 83 0 l 1,3,-1
 83 511 l 1,0,-1
EndSplineSet
EndChar

StartChar: iacute
Encoding: 237 237 138
Width: 260
GlyphClass: 2
Flags: MW
HStem: 0 21G<95 146 95 95> 491 20G<95 146 146 146> 575 145<93 254 93 254>
VStem: 95 51<0 511 0 511>
LayerCount: 2
Fore
SplineSet
189 720 m 1,0,-1
 254 720 l 1,1,-1
 254 717 l 1,2,-1
 143 575 l 1,3,-1
 93 575 l 1,4,-1
 189 720 l 1,0,-1
95 511 m 1,5,-1
 146 511 l 1,6,-1
 146 0 l 1,7,-1
 95 0 l 1,8,-1
 95 511 l 1,5,-1
EndSplineSet
EndChar

StartChar: icircumflex
Encoding: 238 238 139
Width: 260
GlyphClass: 2
Flags: MW
HStem: 0 21G<108 159 108 108> 491 20G<108 159 159 159> 575 145<-31 161 -31 161 103 295 103 235>
VStem: 108 51<0 511 0 511>
LayerCount: 2
Fore
SplineSet
161 720 m 1,0,-1
 295 575 l 1,1,-1
 235 575 l 1,2,-1
 132 672 l 1,3,-1
 29 575 l 1,4,-1
 -31 575 l 1,5,-1
 103 720 l 1,6,-1
 161 720 l 1,0,-1
108 511 m 1,7,-1
 159 511 l 1,8,-1
 159 0 l 1,9,-1
 108 0 l 1,10,-1
 108 511 l 1,7,-1
EndSplineSet
EndChar

StartChar: idieresis
Encoding: 239 239 140
Width: 260
GlyphClass: 2
Flags: MW
HStem: 0 21G<106 157 106 106> 491 20G<106 157 157 157> 651 69<11 76 11 76 187 252>
VStem: 11 65<651 720 651 720> 106 51<0 511 0 511> 187 65<651 720 651 720>
LayerCount: 2
Fore
SplineSet
76 720 m 1,0,-1
 76 651 l 1,1,-1
 11 651 l 1,2,-1
 11 720 l 1,3,-1
 76 720 l 1,0,-1
252 720 m 1,4,-1
 252 651 l 1,5,-1
 187 651 l 1,6,-1
 187 720 l 1,7,-1
 252 720 l 1,4,-1
106 511 m 1,8,-1
 157 511 l 1,9,-1
 157 0 l 1,10,-1
 106 0 l 1,11,-1
 106 511 l 1,8,-1
EndSplineSet
EndChar

StartChar: igrave
Encoding: 236 236 141
Width: 260
GlyphClass: 2
Flags: MW
HStem: 0 21G<114 165 114 114> 491 20G<114 165 165 165> 575 145<6 167 6 117>
VStem: 114 51<0 511 0 511>
LayerCount: 2
Fore
SplineSet
6 717 m 1,0,-1
 6 720 l 1,1,-1
 71 720 l 1,2,-1
 167 575 l 1,3,-1
 117 575 l 1,4,-1
 6 717 l 1,0,-1
114 511 m 1,5,-1
 165 511 l 1,6,-1
 165 0 l 1,7,-1
 114 0 l 1,8,-1
 114 511 l 1,5,-1
EndSplineSet
EndChar

StartChar: imacron
Encoding: 299 299 142
Width: 260
GlyphClass: 2
Flags: MW
HStem: 0 21G<83 134 83 83> 491 20G<83 134 134 134> 692 44<-50 268 -50 268>
VStem: 83 51<0 511 0 511>
LayerCount: 2
Fore
SplineSet
-50 736 m 1,0,-1
 268 736 l 1,1,-1
 268 692 l 1,2,-1
 -50 692 l 1,3,-1
 -50 736 l 1,0,-1
83 511 m 1,4,-1
 134 511 l 1,5,-1
 134 0 l 1,6,-1
 83 0 l 1,7,-1
 83 511 l 1,4,-1
EndSplineSet
EndChar

StartChar: iogonek
Encoding: 303 303 143
Width: 260
GlyphClass: 2
Flags: MW
HStem: -143 43<113.5 134.5> 0 21G<77 83 83 83 127 127 127 134> 491 20G<83 134 134 134> 666 54<81 140 81 140>
VStem: 23 57<-75.5 -55> 81 59<666 720 666 720> 83 51<0 511 0 511>
LayerCount: 2
Fore
SplineSet
140 666 m 1,0,-1
 81 666 l 1,1,-1
 81 720 l 1,2,-1
 140 720 l 1,3,-1
 140 666 l 1,0,-1
127 0 m 1,4,5
 80 -31.3333333333 80 -31.3333333333 80 -60 c 0,6,7
 80 -100 80 -100 124 -100 c 0,8,9
 149 -100 149 -100 191 -86 c 1,10,-1
 204 -119 l 1,11,12
 165 -143 165 -143 122.5 -143 c 128,-1,13
 80 -143 80 -143 51.5 -126 c 128,-1,14
 23 -109 23 -109 23 -72.5 c 128,-1,15
 23 -36 23 -36 77 0 c 1,16,-1
 83 0 l 1,17,-1
 83 511 l 1,18,-1
 134 511 l 1,19,-1
 134 0 l 1,20,-1
 127 0 l 1,4,5
EndSplineSet
EndChar

StartChar: j
Encoding: 106 106 144
Width: 260
GlyphClass: 2
Flags: MW
HStem: -186 46<21.5 42 20.5 63.5> 491 20G<85 136 136 136> 666 54<81 140 81 140>
VStem: 81 59<666 720 666 720> 85 51<-73 511>
LayerCount: 2
Fore
SplineSet
140 720 m 1,0,-1
 140 666 l 1,1,-1
 81 666 l 1,2,-1
 81 720 l 1,3,-1
 140 720 l 1,0,-1
136 511 m 1,4,-1
 136 -75 l 2,5,6
 136 -130 136 -130 108 -158 c 128,-1,7
 80 -186 80 -186 37.5 -186 c 0,8,9
 -5 -186 -5 -186 -34 -169 c 1,10,-1
 -34 -124 l 1,11,12
 3 -140 3 -140 28.5 -140 c 0,13,14
 54 -140 54 -140 69.5 -126.5 c 128,-1,15
 85 -113 85 -113 85 -73 c 2,16,-1
 85 511 l 1,17,-1
 136 511 l 1,4,-1
EndSplineSet
EndChar

StartChar: k
Encoding: 107 107 145
Width: 535
GlyphClass: 2
Flags: MW
HStem: 0 21G<83 134 83 83 438 438 438 504> 491 20G<424 487 487 487>
VStem: 83 51<0 127 186 720>
AnchorPoint: "Bottom" 268 0 basechar 0
LayerCount: 2
Fore
SplineSet
134 127 m 1,0,-1
 134 0 l 1,1,-1
 83 0 l 1,2,-1
 83 720 l 1,3,-1
 134 720 l 1,4,-1
 134 186 l 1,5,-1
 424 511 l 1,6,-1
 487 511 l 1,7,-1
 272 270 l 1,8,-1
 504 0 l 1,9,-1
 438 0 l 1,10,-1
 238 232 l 1,11,-1
 134 127 l 1,0,-1
EndSplineSet
EndChar

StartChar: kcommaaccent
Encoding: 311 311 146
Width: 535
GlyphClass: 2
Flags: MW
HStem: -149 69<234 258 234 299> 0 21G<83 134 83 83 438 438 438 504> 491 20G<424 487 487 487>
VStem: 83 51<0 127 186 720> 234 65<-138 -80 -138 -80 -138 -80>
AnchorPoint: "Bottom" 268 0 basechar 0
LayerCount: 2
Fore
SplineSet
134 127 m 1,0,-1
 134 0 l 1,1,-1
 83 0 l 1,2,-1
 83 720 l 1,3,-1
 134 720 l 1,4,-1
 134 186 l 1,5,-1
 424 511 l 1,6,-1
 487 511 l 1,7,-1
 272 270 l 1,8,-1
 504 0 l 1,9,-1
 438 0 l 1,10,-1
 238 232 l 1,11,-1
 134 127 l 1,0,-1
269 -250 m 1,12,-1
 235 -250 l 1,13,-1
 258 -149 l 1,14,-1
 234 -149 l 1,15,-1
 234 -80 l 1,16,-1
 299 -80 l 1,17,-1
 299 -138 l 1,18,-1
 269 -250 l 1,12,-1
EndSplineSet
EndChar

StartChar: l
Encoding: 108 108 147
Width: 268
GlyphClass: 2
Flags: MW
HStem: 0 21G<87 138 87 87>
VStem: 87 51<0 720 0 720>
AnchorPoint: "Bottom" 113 0 basechar 0
LayerCount: 2
Fore
SplineSet
87 720 m 1,0,-1
 138 720 l 1,1,-1
 138 0 l 1,2,-1
 87 0 l 1,3,-1
 87 720 l 1,0,-1
EndSplineSet
EndChar

StartChar: lacute
Encoding: 314 314 148
Width: 268
GlyphClass: 2
Flags: MW
HStem: 0 21G<87 138 87 87> 750 145<82 243 82 243>
VStem: 87 51<0 720 0 720>
AnchorPoint: "Bottom" 113 0 basechar 0
LayerCount: 2
Fore
SplineSet
178 895 m 1,0,-1
 243 895 l 1,1,-1
 243 892 l 1,2,-1
 132 750 l 1,3,-1
 82 750 l 1,4,-1
 178 895 l 1,0,-1
87 720 m 1,5,-1
 138 720 l 1,6,-1
 138 0 l 1,7,-1
 87 0 l 1,8,-1
 87 720 l 1,5,-1
EndSplineSet
EndChar

StartChar: lcaron
Encoding: 318 318 149
Width: 268
GlyphClass: 2
Flags: MW
HStem: 0 21G<87 138 87 87> 496 20G<218 252 218 218.5> 516 170<218 252 218 218.5> 617 69<217 241 217 282>
VStem: 87 51<0 720 0 720> 217 65<628 686 628 686 628 686>
AnchorPoint: "Bottom" 113 0 basechar 0
LayerCount: 2
Fore
SplineSet
87 720 m 1,0,-1
 138 720 l 1,1,-1
 138 0 l 1,2,-1
 87 0 l 1,3,-1
 87 720 l 1,0,-1
252 516 m 1,4,-1
 218 516 l 1,5,-1
 241 617 l 1,6,-1
 217 617 l 1,7,-1
 217 686 l 1,8,-1
 282 686 l 1,9,-1
 282 628 l 1,10,-1
 252 516 l 1,4,-1
EndSplineSet
EndChar

StartChar: lcommaaccent
Encoding: 316 316 150
Width: 268
GlyphClass: 2
Flags: MW
HStem: -149 69<79 103 79 144> 0 21G<87 138 87 87>
VStem: 79 65<-138 -80 -138 -80 -138 -80> 87 51<0 720 0 720>
AnchorPoint: "Bottom" 113 0 basechar 0
LayerCount: 2
Fore
SplineSet
87 720 m 1,0,-1
 138 720 l 1,1,-1
 138 0 l 1,2,-1
 87 0 l 1,3,-1
 87 720 l 1,0,-1
114 -250 m 1,4,-1
 80 -250 l 1,5,-1
 103 -149 l 1,6,-1
 79 -149 l 1,7,-1
 79 -80 l 1,8,-1
 144 -80 l 1,9,-1
 144 -138 l 1,10,-1
 114 -250 l 1,4,-1
EndSplineSet
EndChar

StartChar: lslash
Encoding: 322 322 151
Width: 298
GlyphClass: 2
Flags: MW
HStem: 0 21G<114 165 114 114>
VStem: 114 51<0 338 338 338 407 720>
LayerCount: 2
Fore
SplineSet
114 338 m 1,0,-1
 20 291 l 1,1,-1
 20 335 l 1,2,-1
 114 382 l 1,3,-1
 114 720 l 1,4,-1
 165 720 l 1,5,-1
 165 407 l 1,6,-1
 259 455 l 1,7,-1
 259 411 l 1,8,-1
 165 363 l 1,9,-1
 165 0 l 1,10,-1
 114 0 l 1,11,-1
 114 338 l 1,0,-1
EndSplineSet
EndChar

StartChar: m
Encoding: 109 109 152
Width: 867
GlyphClass: 2
Flags: MW
HStem: 0 21G<83 134 83 83 395 446 395 395 707 758 707 707> 475 46<244 307 244 310.5 548 622.5> 491 20G<83 117 117 117>
VStem: 83 51<0 314 0 511> 395 51<0 314 0 369.5> 707 51<0 314 314 329 0 369.5>
LayerCount: 2
Fore
SplineSet
586 521 m 0,0,1
 662 521 662 521 710 472.5 c 128,-1,2
 758 424 758 424 758 329 c 2,3,-1
 758 0 l 1,4,-1
 707 0 l 1,5,-1
 707 314 l 2,6,7
 707 475 707 475 582 475 c 0,8,9
 522 475 522 475 484 429 c 128,-1,10
 446 383 446 383 446 314 c 2,11,-1
 446 0 l 1,12,-1
 395 0 l 1,13,-1
 395 314 l 2,14,15
 395 475 395 475 270 475 c 0,16,17
 210 475 210 475 172 429 c 128,-1,18
 134 383 134 383 134 314 c 2,19,-1
 134 0 l 1,20,-1
 83 0 l 1,21,-1
 83 511 l 1,22,-1
 117 511 l 1,23,-1
 129 435 l 1,24,25
 151 475 151 475 190 498 c 128,-1,26
 229 521 229 521 274 521 c 0,27,28
 384 521 384 521 428 434 c 1,29,30
 450 471 450 471 491.5 496 c 128,-1,31
 533 521 533 521 586 521 c 0,0,1
EndSplineSet
EndChar

StartChar: n
Encoding: 110 110 153
Width: 593
GlyphClass: 2
Flags: MW
HStem: 0 21G<83 134 83 83 435 485 435 435> 475 46<262.5 336> 491 20G<83 117 117 117>
VStem: 83 51<0 314 0 511> 435 50<0 314 314 329 0 369.5>
AnchorPoint: "Bottom" 297 0 basechar 0
LayerCount: 2
Fore
SplineSet
435 0 m 1,0,-1
 435 314 l 2,1,2
 435 475 435 475 291 475 c 0,3,4
 224 475 224 475 179 429 c 128,-1,5
 134 383 134 383 134 314 c 2,6,-1
 134 0 l 1,7,-1
 83 0 l 1,8,-1
 83 511 l 1,9,-1
 117 511 l 1,10,-1
 128 435 l 1,11,12
 154 475 154 475 199.5 498 c 128,-1,13
 245 521 245 521 296 521 c 0,14,15
 380 521 380 521 432.5 472.5 c 128,-1,16
 485 424 485 424 485 329 c 2,17,-1
 485 0 l 1,18,-1
 435 0 l 1,0,-1
EndSplineSet
EndChar

StartChar: nacute
Encoding: 324 324 154
Width: 593
GlyphClass: 2
Flags: MW
HStem: 0 21G<83 134 83 83 435 485 435 435> 475 46<262.5 336> 491 20G<83 117 117 117> 575 145<266 427 266 427>
VStem: 83 51<0 314 0 511> 435 50<0 314 314 329 0 369.5>
AnchorPoint: "Bottom" 297 0 basechar 0
LayerCount: 2
Fore
SplineSet
362 720 m 1,0,-1
 427 720 l 1,1,-1
 427 717 l 1,2,-1
 316 575 l 1,3,-1
 266 575 l 1,4,-1
 362 720 l 1,0,-1
435 0 m 1,5,-1
 435 314 l 2,6,7
 435 475 435 475 291 475 c 0,8,9
 224 475 224 475 179 429 c 128,-1,10
 134 383 134 383 134 314 c 2,11,-1
 134 0 l 1,12,-1
 83 0 l 1,13,-1
 83 511 l 1,14,-1
 117 511 l 1,15,-1
 128 435 l 1,16,17
 154 475 154 475 199.5 498 c 128,-1,18
 245 521 245 521 296 521 c 0,19,20
 380 521 380 521 432.5 472.5 c 128,-1,21
 485 424 485 424 485 329 c 2,22,-1
 485 0 l 1,23,-1
 435 0 l 1,5,-1
EndSplineSet
EndChar

StartChar: ncaron
Encoding: 328 328 155
Width: 593
GlyphClass: 2
Flags: MW
HStem: 0 21G<83 134 83 83 435 485 435 435> 475 46<262.5 336> 491 20G<83 117 117 117> 575 145<134 326 134 268>
VStem: 83 51<0 314 0 511> 435 50<0 314 314 329 0 369.5>
AnchorPoint: "Bottom" 297 0 basechar 0
LayerCount: 2
Fore
SplineSet
194 720 m 1,0,-1
 297 623 l 1,1,-1
 400 720 l 1,2,-1
 460 720 l 1,3,-1
 326 575 l 1,4,-1
 268 575 l 1,5,-1
 134 720 l 1,6,-1
 194 720 l 1,0,-1
435 0 m 1,7,-1
 435 314 l 2,8,9
 435 475 435 475 291 475 c 0,10,11
 224 475 224 475 179 429 c 128,-1,12
 134 383 134 383 134 314 c 2,13,-1
 134 0 l 1,14,-1
 83 0 l 1,15,-1
 83 511 l 1,16,-1
 117 511 l 1,17,-1
 128 435 l 1,18,19
 154 475 154 475 199.5 498 c 128,-1,20
 245 521 245 521 296 521 c 0,21,22
 380 521 380 521 432.5 472.5 c 128,-1,23
 485 424 485 424 485 329 c 2,24,-1
 485 0 l 1,25,-1
 435 0 l 1,7,-1
EndSplineSet
EndChar

StartChar: ncommaaccent
Encoding: 326 326 156
Width: 593
GlyphClass: 2
Flags: MW
HStem: -149 69<263 287 263 328> 0 21G<83 134 83 83 435 485 435 435> 475 46<262.5 336> 491 20G<83 117 117 117>
VStem: 83 51<0 314 0 511> 263 65<-138 -80 -138 -80 -138 -80> 435 50<0 314 314 329 0 369.5>
AnchorPoint: "Bottom" 297 0 basechar 0
LayerCount: 2
Fore
SplineSet
435 0 m 1,0,-1
 435 314 l 2,1,2
 435 475 435 475 291 475 c 0,3,4
 224 475 224 475 179 429 c 128,-1,5
 134 383 134 383 134 314 c 2,6,-1
 134 0 l 1,7,-1
 83 0 l 1,8,-1
 83 511 l 1,9,-1
 117 511 l 1,10,-1
 128 435 l 1,11,12
 154 475 154 475 199.5 498 c 128,-1,13
 245 521 245 521 296 521 c 0,14,15
 380 521 380 521 432.5 472.5 c 128,-1,16
 485 424 485 424 485 329 c 2,17,-1
 485 0 l 1,18,-1
 435 0 l 1,0,-1
298 -250 m 1,19,-1
 264 -250 l 1,20,-1
 287 -149 l 1,21,-1
 263 -149 l 1,22,-1
 263 -80 l 1,23,-1
 328 -80 l 1,24,-1
 328 -138 l 1,25,-1
 298 -250 l 1,19,-1
EndSplineSet
EndChar

StartChar: ntilde
Encoding: 241 241 157
Width: 593
GlyphClass: 2
Flags: MW
HStem: 0 21G<83 134 83 83 435 485 435 435> 475 46<262.5 336> 491 20G<83 117 117 117> 637 50<351 394.5 351 410.5> 669 50<187.5 231>
VStem: 83 51<0 314 0 511> 435 50<0 314 314 329 0 369.5>
LayerCount: 2
Fore
SplineSet
435 719 m 1,0,-1
 472 719 l 1,1,2
 472 688 472 688 448 662.5 c 128,-1,3
 424 637 424 637 381 637 c 0,4,5
 338 637 338 637 284 653 c 128,-1,6
 230 669 230 669 204 669 c 0,7,8
 157 669 157 669 147 637 c 1,9,-1
 110 637 l 1,10,11
 110 667 110 667 134 693 c 128,-1,12
 158 719 158 719 201 719 c 0,13,14
 244 719 244 719 298 703 c 128,-1,15
 352 687 352 687 378 687 c 0,16,17
 425 687 425 687 435 719 c 1,0,-1
435 0 m 1,18,-1
 435 314 l 2,19,20
 435 475 435 475 291 475 c 0,21,22
 224 475 224 475 179 429 c 128,-1,23
 134 383 134 383 134 314 c 2,24,-1
 134 0 l 1,25,-1
 83 0 l 1,26,-1
 83 511 l 1,27,-1
 117 511 l 1,28,-1
 128 435 l 1,29,30
 154 475 154 475 199.5 498 c 128,-1,31
 245 521 245 521 296 521 c 0,32,33
 380 521 380 521 432.5 472.5 c 128,-1,34
 485 424 485 424 485 329 c 2,35,-1
 485 0 l 1,36,-1
 435 0 l 1,18,-1
EndSplineSet
EndChar

StartChar: o
Encoding: 111 111 158
Width: 574
GlyphClass: 2
Flags: MW
HStem: -10 46<222 314 222 331> 475 46<222 314>
VStem: 52 51<248 263 263 269 172.5 345.5> 433 51<242 248 248 263 165.5 269 165.5 338.5>
LayerCount: 2
Fore
SplineSet
268 -10 m 128,-1,1
 171 -10 171 -10 111.5 58.5 c 128,-1,2
 52 127 52 127 52 248 c 2,3,-1
 52 263 l 2,4,5
 52 384 52 384 111.5 452.5 c 128,-1,6
 171 521 171 521 268 521 c 128,-1,7
 365 521 365 521 424.5 452.5 c 128,-1,8
 484 384 484 384 484 263 c 2,9,-1
 484 248 l 2,10,11
 484 127 484 127 424.5 58.5 c 128,-1,0
 365 -10 365 -10 268 -10 c 128,-1,1
268 36 m 128,-1,13
 341 36 341 36 387 89 c 128,-1,14
 433 142 433 142 433 242 c 2,15,-1
 433 269 l 2,16,17
 433 369 433 369 387 422 c 128,-1,18
 341 475 341 475 268 475 c 128,-1,19
 195 475 195 475 149 422 c 128,-1,20
 103 369 103 369 103 269 c 2,21,-1
 103 242 l 2,22,23
 103 142 103 142 149 89 c 128,-1,12
 195 36 195 36 268 36 c 128,-1,13
EndSplineSet
Substitution2: "Single Substitution lookup 5 subtable" ordmasculine
Substitution2: "'aalt' Access All Alternates lookup 0 subtable" ordmasculine
EndChar

StartChar: oacute
Encoding: 243 243 159
Width: 574
GlyphClass: 2
Flags: MW
HStem: -10 46<222 314 222 331> 475 46<222 314> 575 145<254 415 254 415>
VStem: 52 51<248 263 263 269 172.5 345.5> 433 51<242 248 248 263 165.5 269 165.5 338.5>
LayerCount: 2
Fore
SplineSet
350 720 m 1,0,-1
 415 720 l 1,1,-1
 415 717 l 1,2,-1
 304 575 l 1,3,-1
 254 575 l 1,4,-1
 350 720 l 1,0,-1
268 -10 m 128,-1,6
 171 -10 171 -10 111.5 58.5 c 128,-1,7
 52 127 52 127 52 248 c 2,8,-1
 52 263 l 2,9,10
 52 384 52 384 111.5 452.5 c 128,-1,11
 171 521 171 521 268 521 c 128,-1,12
 365 521 365 521 424.5 452.5 c 128,-1,13
 484 384 484 384 484 263 c 2,14,-1
 484 248 l 2,15,16
 484 127 484 127 424.5 58.5 c 128,-1,5
 365 -10 365 -10 268 -10 c 128,-1,6
268 36 m 128,-1,18
 341 36 341 36 387 89 c 128,-1,19
 433 142 433 142 433 242 c 2,20,-1
 433 269 l 2,21,22
 433 369 433 369 387 422 c 128,-1,23
 341 475 341 475 268 475 c 128,-1,24
 195 475 195 475 149 422 c 128,-1,25
 103 369 103 369 103 269 c 2,26,-1
 103 242 l 2,27,28
 103 142 103 142 149 89 c 128,-1,17
 195 36 195 36 268 36 c 128,-1,18
EndSplineSet
EndChar

StartChar: ocircumflex
Encoding: 244 244 160
Width: 574
GlyphClass: 2
Flags: MW
HStem: -10 46<222 314 222 331> 475 46<222 314> 575 145<108 300 108 300 242 434 242 374>
VStem: 52 51<248 263 263 269 172.5 345.5> 433 51<242 248 248 263 165.5 269 165.5 338.5>
LayerCount: 2
Fore
SplineSet
300 720 m 1,0,-1
 434 575 l 1,1,-1
 374 575 l 1,2,-1
 271 672 l 1,3,-1
 168 575 l 1,4,-1
 108 575 l 1,5,-1
 242 720 l 1,6,-1
 300 720 l 1,0,-1
268 -10 m 128,-1,8
 171 -10 171 -10 111.5 58.5 c 128,-1,9
 52 127 52 127 52 248 c 2,10,-1
 52 263 l 2,11,12
 52 384 52 384 111.5 452.5 c 128,-1,13
 171 521 171 521 268 521 c 128,-1,14
 365 521 365 521 424.5 452.5 c 128,-1,15
 484 384 484 384 484 263 c 2,16,-1
 484 248 l 2,17,18
 484 127 484 127 424.5 58.5 c 128,-1,7
 365 -10 365 -10 268 -10 c 128,-1,8
268 36 m 128,-1,20
 341 36 341 36 387 89 c 128,-1,21
 433 142 433 142 433 242 c 2,22,-1
 433 269 l 2,23,24
 433 369 433 369 387 422 c 128,-1,25
 341 475 341 475 268 475 c 128,-1,26
 195 475 195 475 149 422 c 128,-1,27
 103 369 103 369 103 269 c 2,28,-1
 103 242 l 2,29,30
 103 142 103 142 149 89 c 128,-1,19
 195 36 195 36 268 36 c 128,-1,20
EndSplineSet
EndChar

StartChar: odieresis
Encoding: 246 246 161
Width: 574
GlyphClass: 2
Flags: MW
HStem: -10 46<222 314 222 331> 475 46<222 314> 651 69<148 213 148 213 324 389>
VStem: 52 51<248 263 263 269 172.5 345.5> 148 65<651 720 651 720> 324 65<651 720 651 720> 433 51<242 248 248 263 165.5 269 165.5 338.5>
LayerCount: 2
Fore
SplineSet
213 720 m 1,0,-1
 213 651 l 1,1,-1
 148 651 l 1,2,-1
 148 720 l 1,3,-1
 213 720 l 1,0,-1
389 720 m 1,4,-1
 389 651 l 1,5,-1
 324 651 l 1,6,-1
 324 720 l 1,7,-1
 389 720 l 1,4,-1
268 -10 m 128,-1,9
 171 -10 171 -10 111.5 58.5 c 128,-1,10
 52 127 52 127 52 248 c 2,11,-1
 52 263 l 2,12,13
 52 384 52 384 111.5 452.5 c 128,-1,14
 171 521 171 521 268 521 c 128,-1,15
 365 521 365 521 424.5 452.5 c 128,-1,16
 484 384 484 384 484 263 c 2,17,-1
 484 248 l 2,18,19
 484 127 484 127 424.5 58.5 c 128,-1,8
 365 -10 365 -10 268 -10 c 128,-1,9
268 36 m 128,-1,21
 341 36 341 36 387 89 c 128,-1,22
 433 142 433 142 433 242 c 2,23,-1
 433 269 l 2,24,25
 433 369 433 369 387 422 c 128,-1,26
 341 475 341 475 268 475 c 128,-1,27
 195 475 195 475 149 422 c 128,-1,28
 103 369 103 369 103 269 c 2,29,-1
 103 242 l 2,30,31
 103 142 103 142 149 89 c 128,-1,20
 195 36 195 36 268 36 c 128,-1,21
EndSplineSet
EndChar

StartChar: ograve
Encoding: 242 242 162
Width: 574
GlyphClass: 2
Flags: MW
HStem: -10 46<222 314 222 331> 475 46<222 314> 575 145<141 302 141 252>
VStem: 52 51<248 263 263 269 172.5 345.5> 433 51<242 248 248 263 165.5 269 165.5 338.5>
LayerCount: 2
Fore
SplineSet
141 717 m 1,0,-1
 141 720 l 1,1,-1
 206 720 l 1,2,-1
 302 575 l 1,3,-1
 252 575 l 1,4,-1
 141 717 l 1,0,-1
268 -10 m 128,-1,6
 171 -10 171 -10 111.5 58.5 c 128,-1,7
 52 127 52 127 52 248 c 2,8,-1
 52 263 l 2,9,10
 52 384 52 384 111.5 452.5 c 128,-1,11
 171 521 171 521 268 521 c 128,-1,12
 365 521 365 521 424.5 452.5 c 128,-1,13
 484 384 484 384 484 263 c 2,14,-1
 484 248 l 2,15,16
 484 127 484 127 424.5 58.5 c 128,-1,5
 365 -10 365 -10 268 -10 c 128,-1,6
268 36 m 128,-1,18
 341 36 341 36 387 89 c 128,-1,19
 433 142 433 142 433 242 c 2,20,-1
 433 269 l 2,21,22
 433 369 433 369 387 422 c 128,-1,23
 341 475 341 475 268 475 c 128,-1,24
 195 475 195 475 149 422 c 128,-1,25
 103 369 103 369 103 269 c 2,26,-1
 103 242 l 2,27,28
 103 142 103 142 149 89 c 128,-1,17
 195 36 195 36 268 36 c 128,-1,18
EndSplineSet
EndChar

StartChar: ohungarumlaut
Encoding: 337 337 163
Width: 574
GlyphClass: 2
Flags: MW
HStem: -10 46<222 314 222 331> 475 46<222 314> 575 145<184 344 184 344 309 309 309 344 280 359>
VStem: 52 51<248 263 263 269 172.5 345.5> 433 51<242 248 248 263 165.5 269 165.5 338.5>
LayerCount: 2
Fore
SplineSet
280 720 m 1,0,-1
 344 720 l 1,1,-1
 345 717 l 1,2,-1
 234 575 l 1,3,-1
 184 575 l 1,4,-1
 280 720 l 1,0,-1
405 720 m 1,5,-1
 469 720 l 1,6,-1
 470 717 l 1,7,-1
 359 575 l 1,8,-1
 309 575 l 1,9,-1
 405 720 l 1,5,-1
268 -10 m 128,-1,11
 171 -10 171 -10 111.5 58.5 c 128,-1,12
 52 127 52 127 52 248 c 2,13,-1
 52 263 l 2,14,15
 52 384 52 384 111.5 452.5 c 128,-1,16
 171 521 171 521 268 521 c 128,-1,17
 365 521 365 521 424.5 452.5 c 128,-1,18
 484 384 484 384 484 263 c 2,19,-1
 484 248 l 2,20,21
 484 127 484 127 424.5 58.5 c 128,-1,10
 365 -10 365 -10 268 -10 c 128,-1,11
268 36 m 128,-1,23
 341 36 341 36 387 89 c 128,-1,24
 433 142 433 142 433 242 c 2,25,-1
 433 269 l 2,26,27
 433 369 433 369 387 422 c 128,-1,28
 341 475 341 475 268 475 c 128,-1,29
 195 475 195 475 149 422 c 128,-1,30
 103 369 103 369 103 269 c 2,31,-1
 103 242 l 2,32,33
 103 142 103 142 149 89 c 128,-1,22
 195 36 195 36 268 36 c 128,-1,23
EndSplineSet
EndChar

StartChar: omacron
Encoding: 333 333 164
Width: 574
GlyphClass: 2
Flags: MW
HStem: -10 46<222 314 222 331> 475 46<222 314> 692 44<108 426 108 426>
VStem: 52 51<248 263 263 269 172.5 345.5> 433 51<242 248 248 263 165.5 269 165.5 338.5>
LayerCount: 2
Fore
SplineSet
108 736 m 1,0,-1
 426 736 l 1,1,-1
 426 692 l 1,2,-1
 108 692 l 1,3,-1
 108 736 l 1,0,-1
268 -10 m 128,-1,5
 171 -10 171 -10 111.5 58.5 c 128,-1,6
 52 127 52 127 52 248 c 2,7,-1
 52 263 l 2,8,9
 52 384 52 384 111.5 452.5 c 128,-1,10
 171 521 171 521 268 521 c 128,-1,11
 365 521 365 521 424.5 452.5 c 128,-1,12
 484 384 484 384 484 263 c 2,13,-1
 484 248 l 2,14,15
 484 127 484 127 424.5 58.5 c 128,-1,4
 365 -10 365 -10 268 -10 c 128,-1,5
268 36 m 128,-1,17
 341 36 341 36 387 89 c 128,-1,18
 433 142 433 142 433 242 c 2,19,-1
 433 269 l 2,20,21
 433 369 433 369 387 422 c 128,-1,22
 341 475 341 475 268 475 c 128,-1,23
 195 475 195 475 149 422 c 128,-1,24
 103 369 103 369 103 269 c 2,25,-1
 103 242 l 2,26,27
 103 142 103 142 149 89 c 128,-1,16
 195 36 195 36 268 36 c 128,-1,17
EndSplineSet
EndChar

StartChar: oslash
Encoding: 248 248 165
Width: 574
GlyphClass: 2
Flags: MW
HStem: -10 46<250 314 250 331> 475 46<222 285.5>
VStem: 52 51<248 263 263 269 209.5 345.5> 433 51<242 248 248 263 165.5 269 165.5 301.5>
LayerCount: 2
Fore
SplineSet
52 -55 m 1,0,-1
 118 51 l 1,1,2
 52 120 52 120 52 248 c 2,3,-1
 52 263 l 2,4,5
 52 384 52 384 111.5 452.5 c 128,-1,6
 171 521 171 521 268 521 c 0,7,8
 335 521 335 521 387 485 c 1,9,-1
 439 569 l 1,10,-1
 484 569 l 1,11,-1
 417 461 l 1,12,13
 484 391 484 391 484 263 c 2,14,-1
 484 248 l 2,15,16
 484 127 484 127 424.5 58.5 c 128,-1,17
 365 -10 365 -10 268 -10 c 0,18,19
 198 -10 198 -10 147 26 c 1,20,-1
 97 -55 l 1,21,-1
 52 -55 l 1,0,-1
103 269 m 2,22,-1
 103 242 l 2,23,24
 103 149 103 149 145 94 c 1,25,-1
 362 445 l 1,26,27
 323 475 323 475 268 475 c 0,28,29
 195 475 195 475 149 422 c 128,-1,30
 103 369 103 369 103 269 c 2,22,-1
268 36 m 0,31,32
 341 36 341 36 387 89 c 128,-1,33
 433 142 433 142 433 242 c 2,34,-1
 433 269 l 2,35,36
 433 364 433 364 390 418 c 1,37,-1
 172 66 l 1,38,39
 212 36 212 36 268 36 c 0,31,32
EndSplineSet
EndChar

StartChar: otilde
Encoding: 245 245 166
Width: 574
GlyphClass: 2
Flags: MW
HStem: -10 46<222 314 222 331> 475 46<222 314> 638 50<330 373.5 330 389.5> 670 50<166.5 210>
VStem: 52 51<248 263 263 269 172.5 345.5> 433 51<242 248 248 263 165.5 269 165.5 338.5>
LayerCount: 2
Fore
SplineSet
414 720 m 1,0,-1
 451 720 l 1,1,2
 451 689 451 689 427 663.5 c 128,-1,3
 403 638 403 638 360 638 c 0,4,5
 317 638 317 638 263 654 c 128,-1,6
 209 670 209 670 183 670 c 0,7,8
 136 670 136 670 126 638 c 1,9,-1
 89 638 l 1,10,11
 89 668 89 668 113 694 c 128,-1,12
 137 720 137 720 180 720 c 0,13,14
 223 720 223 720 277 704 c 128,-1,15
 331 688 331 688 357 688 c 0,16,17
 404 688 404 688 414 720 c 1,0,-1
268 -10 m 128,-1,19
 171 -10 171 -10 111.5 58.5 c 128,-1,20
 52 127 52 127 52 248 c 2,21,-1
 52 263 l 2,22,23
 52 384 52 384 111.5 452.5 c 128,-1,24
 171 521 171 521 268 521 c 128,-1,25
 365 521 365 521 424.5 452.5 c 128,-1,26
 484 384 484 384 484 263 c 2,27,-1
 484 248 l 2,28,29
 484 127 484 127 424.5 58.5 c 128,-1,18
 365 -10 365 -10 268 -10 c 128,-1,19
268 36 m 128,-1,31
 341 36 341 36 387 89 c 128,-1,32
 433 142 433 142 433 242 c 2,33,-1
 433 269 l 2,34,35
 433 369 433 369 387 422 c 128,-1,36
 341 475 341 475 268 475 c 128,-1,37
 195 475 195 475 149 422 c 128,-1,38
 103 369 103 369 103 269 c 2,39,-1
 103 242 l 2,40,41
 103 142 103 142 149 89 c 128,-1,30
 195 36 195 36 268 36 c 128,-1,31
EndSplineSet
EndChar

StartChar: oe
Encoding: 339 339 167
Width: 933
GlyphClass: 2
Flags: MW
HStem: -10 46<222 310.5 604 686.5> 250 46<485 796 485 846 484 796> 475 46<222 310.5 205 314 603 687>
VStem: 52 51<248 263 263 269 172.5 345.5> 433 51<242 250 236 269 236 338.5> 796 50<136.5 189 296 314>
LayerCount: 2
Fore
SplineSet
796 189 m 1,0,-1
 846 189 l 1,1,2
 846 96 846 96 789.5 43 c 128,-1,3
 733 -10 733 -10 647 -10 c 0,4,5
 582 -10 582 -10 533 21.5 c 128,-1,6
 484 53 484 53 458 112 c 1,7,8
 431 53 431 53 381.5 21.5 c 128,-1,9
 332 -10 332 -10 268 -10 c 0,10,11
 171 -10 171 -10 111.5 58.5 c 128,-1,12
 52 127 52 127 52 248 c 2,13,-1
 52 263 l 2,14,15
 52 384 52 384 111.5 452.5 c 128,-1,16
 171 521 171 521 268 521 c 0,17,18
 332 521 332 521 381.5 489.5 c 128,-1,19
 431 458 431 458 458 398 c 1,20,21
 483 458 483 458 532 489.5 c 128,-1,22
 581 521 581 521 646 521 c 0,23,24
 733 521 733 521 789.5 466 c 128,-1,25
 846 411 846 411 846 314 c 2,26,-1
 846 250 l 1,27,-1
 484 250 l 1,28,-1
 484 236 l 1,29,30
 485 138 485 138 530.5 87 c 128,-1,31
 576 36 576 36 643.5 36 c 128,-1,32
 711 36 711 36 753.5 75 c 128,-1,33
 796 114 796 114 796 189 c 1,0,-1
268 36 m 128,-1,35
 341 36 341 36 387 89 c 128,-1,36
 433 142 433 142 433 242 c 2,37,-1
 433 269 l 2,38,39
 433 369 433 369 387 422 c 128,-1,40
 341 475 341 475 268 475 c 128,-1,41
 195 475 195 475 149 422 c 128,-1,42
 103 369 103 369 103 269 c 2,43,-1
 103 242 l 2,44,45
 103 142 103 142 149 89 c 128,-1,34
 195 36 195 36 268 36 c 128,-1,35
753.5 433.5 m 128,-1,47
 711 475 711 475 645 475 c 128,-1,48
 579 475 579 475 535 429 c 128,-1,49
 491 383 491 383 485 296 c 1,50,-1
 796 296 l 1,51,-1
 796 314 l 2,52,46
 796 392 796 392 753.5 433.5 c 128,-1,47
EndSplineSet
EndChar

StartChar: p
Encoding: 112 112 168
Width: 583
GlyphClass: 2
Flags: MW
HStem: -181 21G<83 134 83 83> -10 46<261 335.5 248.5 353> 475 46<259.5 335.5> 491 20G<83 117 117 117>
VStem: 83 51<-181 71 -181 511> 449 51<242 251 159 253 159 336>
LayerCount: 2
Fore
SplineSet
117 511 m 1,0,-1
 128 434 l 1,1,2
 184 521 184 521 297 521 c 0,3,4
 387 521 387 521 443.5 453.5 c 128,-1,5
 500 386 500 386 500 251 c 2,6,-1
 500 240 l 2,7,8
 500 123 500 123 442.5 56.5 c 128,-1,9
 385 -10 385 -10 297 -10 c 0,10,11
 187 -10 187 -10 134 71 c 1,12,-1
 134 -181 l 1,13,-1
 83 -181 l 1,14,-1
 83 511 l 1,15,-1
 117 511 l 1,0,-1
133 254 m 2,16,-1
 133 242 l 2,17,18
 133 139 133 139 177.5 87.5 c 128,-1,19
 222 36 222 36 291.5 36 c 0,20,21
 361 36 361 36 405 88 c 128,-1,22
 449 140 449 140 449 242 c 2,23,-1
 449 253 l 2,24,25
 449 370 449 370 406 422.5 c 128,-1,26
 363 475 363 475 292 475 c 0,27,28
 133 475 133 475 133 254 c 2,16,-1
EndSplineSet
EndChar

StartChar: thorn
Encoding: 254 254 169
Width: 583
GlyphClass: 2
Flags: MW
HStem: -181 21G<83 134 83 83> -10 46<261 335.5 248.5 353> 475 46<261 335.5>
VStem: 83 51<-181 71 -181 720> 449 51<242 251 159 253 159 336>
LayerCount: 2
Fore
SplineSet
133 720 m 1,0,-1
 133 441 l 1,1,2
 189 521 189 521 297 521 c 0,3,4
 387 521 387 521 443.5 453.5 c 128,-1,5
 500 386 500 386 500 251 c 2,6,-1
 500 240 l 2,7,8
 500 123 500 123 442.5 56.5 c 128,-1,9
 385 -10 385 -10 297 -10 c 0,10,11
 187 -10 187 -10 134 71 c 1,12,-1
 134 -181 l 1,13,-1
 83 -181 l 1,14,-1
 83 720 l 1,15,-1
 133 720 l 1,0,-1
133 254 m 2,16,-1
 133 242 l 2,17,18
 133 139 133 139 177.5 87.5 c 128,-1,19
 222 36 222 36 291.5 36 c 0,20,21
 361 36 361 36 405 88 c 128,-1,22
 449 140 449 140 449 242 c 2,23,-1
 449 253 l 2,24,25
 449 370 449 370 406 422.5 c 128,-1,26
 363 475 363 475 292 475 c 0,27,28
 133 475 133 475 133 254 c 2,16,-1
EndSplineSet
EndChar

StartChar: q
Encoding: 113 113 170
Width: 583
GlyphClass: 2
Flags: MW
HStem: -180 21G<418 418 418 469> -10 46<216.5 291> 475 46<216.5 294 199 303> 491 20G<448 469 469 469>
VStem: 52 51<240 242 242 251 251 253 170.5 346> 418 51<-180 71 71 71>
LayerCount: 2
Fore
SplineSet
418 -180 m 1,0,-1
 418 71 l 1,1,2
 365 -10 365 -10 255 -10 c 0,3,4
 167 -10 167 -10 109.5 56.5 c 128,-1,5
 52 123 52 123 52 240 c 2,6,-1
 52 251 l 2,7,8
 52 386 52 386 108.5 453.5 c 128,-1,9
 165 521 165 521 255 521 c 0,10,11
 373 521 373 521 429 426 c 1,12,-1
 448 511 l 1,13,-1
 469 511 l 1,14,-1
 469 -180 l 1,15,-1
 418 -180 l 1,0,-1
419 242 m 2,16,-1
 419 254 l 2,17,18
 419 475 419 475 260 475 c 0,19,20
 189 475 189 475 146 422.5 c 128,-1,21
 103 370 103 370 103 253 c 2,22,-1
 103 242 l 2,23,24
 103 140 103 140 147 88 c 128,-1,25
 191 36 191 36 260.5 36 c 0,26,27
 330 36 330 36 374.5 87.5 c 128,-1,28
 419 139 419 139 419 242 c 2,16,-1
EndSplineSet
EndChar

StartChar: r
Encoding: 114 114 171
Width: 490
GlyphClass: 2
Flags: MW
HStem: 0 21G<83 134 83 83> 475 46<217.5 312.5> 491 20G<83 117 117 117>
VStem: 83 51<0 324 0 511> 388 49<328 397 345 370.5>
AnchorPoint: "Bottom" 109 0 basechar 0
LayerCount: 2
Fore
SplineSet
388 328 m 1,0,-1
 388 344 l 2,1,2
 388 394 388 394 359 434.5 c 128,-1,3
 330 475 330 475 263 475 c 0,4,5
 217 475 217 475 186 447.5 c 0,6,7
 134 401.370967742 134 401.370967742 134 324 c 2,8,-1
 134 0 l 1,9,-1
 83 0 l 1,10,-1
 83 511 l 1,11,-1
 117 511 l 1,12,-1
 128 435 l 1,13,14
 131.571428571 445.714285714 131.571428571 445.714285714 145.285714286 462.857142857 c 128,-1,15
 159 480 159 480 174 491 c 0,16,17
 214.909090909 521 214.909090909 521 273 521 c 0,18,19
 352 521 352 521 394.5 472.5 c 128,-1,20
 437 424 437 424 437 352 c 1,21,-1
 435 328 l 1,22,-1
 388 328 l 1,0,-1
EndSplineSet
EndChar

StartChar: racute
Encoding: 341 341 172
Width: 490
GlyphClass: 2
Flags: MW
HStem: 0 21G<83 134 83 83> 475 46<217.5 312.5> 491 20G<83 117 117 117> 575 145<78 239 78 239>
VStem: 83 51<0 324 0 511> 388 49<328 397 345 370.5>
AnchorPoint: "Bottom" 109 0 basechar 0
LayerCount: 2
Fore
SplineSet
174 720 m 1,0,-1
 239 720 l 1,1,-1
 239 717 l 1,2,-1
 128 575 l 1,3,-1
 78 575 l 1,4,-1
 174 720 l 1,0,-1
388 328 m 1,5,-1
 388 344 l 2,6,7
 388 394 388 394 359 434.5 c 128,-1,8
 330 475 330 475 263 475 c 0,9,10
 217 475 217 475 186 447.5 c 0,11,12
 134 401.370967742 134 401.370967742 134 324 c 2,13,-1
 134 0 l 1,14,-1
 83 0 l 1,15,-1
 83 511 l 1,16,-1
 117 511 l 1,17,-1
 128 435 l 1,18,19
 131.571428571 445.714285714 131.571428571 445.714285714 145.285714286 462.857142857 c 128,-1,20
 159 480 159 480 174 491 c 0,21,22
 214.909090909 521 214.909090909 521 273 521 c 0,23,24
 352 521 352 521 394.5 472.5 c 128,-1,25
 437 424 437 424 437 352 c 1,26,-1
 435 328 l 1,27,-1
 388 328 l 1,5,-1
EndSplineSet
EndChar

StartChar: rcaron
Encoding: 345 345 173
Width: 490
GlyphClass: 2
Flags: MW
HStem: 0 21G<83 134 83 83> 475 46<217.5 312.5> 491 20G<83 117 117 117> 575 145<-54 138 -54 80>
VStem: 83 51<0 324 0 511> 388 49<328 397 345 370.5>
AnchorPoint: "Bottom" 109 0 basechar 0
LayerCount: 2
Fore
SplineSet
6 720 m 1,0,-1
 109 623 l 1,1,-1
 212 720 l 1,2,-1
 272 720 l 1,3,-1
 138 575 l 1,4,-1
 80 575 l 1,5,-1
 -54 720 l 1,6,-1
 6 720 l 1,0,-1
388 328 m 1,7,-1
 388 344 l 2,8,9
 388 394 388 394 359 434.5 c 128,-1,10
 330 475 330 475 263 475 c 0,11,12
 217 475 217 475 186 447.5 c 0,13,14
 134 401.370967742 134 401.370967742 134 324 c 2,15,-1
 134 0 l 1,16,-1
 83 0 l 1,17,-1
 83 511 l 1,18,-1
 117 511 l 1,19,-1
 128 435 l 1,20,21
 131.571428571 445.714285714 131.571428571 445.714285714 145.285714286 462.857142857 c 128,-1,22
 159 480 159 480 174 491 c 0,23,24
 214.909090909 521 214.909090909 521 273 521 c 0,25,26
 352 521 352 521 394.5 472.5 c 128,-1,27
 437 424 437 424 437 352 c 1,28,-1
 435 328 l 1,29,-1
 388 328 l 1,7,-1
EndSplineSet
EndChar

StartChar: rcommaaccent
Encoding: 343 343 174
Width: 490
GlyphClass: 2
Flags: MW
HStem: -149 69<75 99 75 140> 0 21G<83 134 83 83> 475 46<217.5 312.5> 491 20G<83 117 117 117>
VStem: 75 65<-138 -80 -138 -80 -138 -80> 83 51<0 324 0 511> 388 49<328 397 345 370.5>
AnchorPoint: "Bottom" 109 0 basechar 0
LayerCount: 2
Fore
SplineSet
388 328 m 1,0,-1
 388 344 l 2,1,2
 388 394 388 394 359 434.5 c 128,-1,3
 330 475 330 475 263 475 c 0,4,5
 217 475 217 475 186 447.5 c 0,6,7
 134 401.370967742 134 401.370967742 134 324 c 2,8,-1
 134 0 l 1,9,-1
 83 0 l 1,10,-1
 83 511 l 1,11,-1
 117 511 l 1,12,-1
 128 435 l 1,13,14
 131.571428571 445.714285714 131.571428571 445.714285714 145.285714286 462.857142857 c 128,-1,15
 159 480 159 480 174 491 c 0,16,17
 214.909090909 521 214.909090909 521 273 521 c 0,18,19
 352 521 352 521 394.5 472.5 c 128,-1,20
 437 424 437 424 437 352 c 1,21,-1
 435 328 l 1,22,-1
 388 328 l 1,0,-1
110 -250 m 1,23,-1
 76 -250 l 1,24,-1
 99 -149 l 1,25,-1
 75 -149 l 1,26,-1
 75 -80 l 1,27,-1
 140 -80 l 1,28,-1
 140 -138 l 1,29,-1
 110 -250 l 1,23,-1
EndSplineSet
EndChar

StartChar: s
Encoding: 115 115 175
Width: 534
GlyphClass: 2
Flags: MW
HStem: -10 46<210 307.5> 241.44 45.37 475 46<189.5 317>
VStem: 45 50<108.5 141.5> 60 51<314.5 395.5 314.5 419.5> 394 51<380 382 382 393.5> 406 51<107 214.5>
AnchorPoint: "Bottom" 267 0 basechar 0
LayerCount: 2
Fore
SplineSet
46 157 m 1,0,-1
 96 157 l 1,1,2
 95 152 95 152 95 143 c 0,3,4
 95 92 95 92 139.5 64 c 128,-1,5
 184 36 184 36 257 36 c 128,-1,6
 330 36 330 36 368 63.5 c 128,-1,7
 406 91 406 91 406 132 c 128,-1,8
 406 173 406 173 380.5 195.5 c 128,-1,9
 355 218 355 218 316.5 226 c 128,-1,10
 278 234 278 234 233 244.5 c 128,-1,11
 188 255 188 255 149.5 266 c 128,-1,12
 111 277 111 277 85.5 306.5 c 128,-1,13
 60 336 60 336 60 381 c 0,14,15
 60 443 60 443 110 482 c 128,-1,16
 160 521 160 521 255.5 521 c 128,-1,17
 351 521 351 521 398 478.5 c 128,-1,18
 445 436 445 436 445 383 c 1,19,-1
 444 369 l 1,20,-1
 394 369 l 1,21,-1
 394 382 l 2,22,23
 394 408.230769231 394 408.230769231 377 431.115384615 c 0,24,25
 344.4 475 344.4 475 249 475 c 0,26,27
 111 475 111 475 111 383 c 0,28,29
 111 329.836065574 111 329.836065574 179.5 308.5 c 0,30,31
 210 299 210 299 247 291.5 c 128,-1,32
 284 284 284 284 321 274.5 c 128,-1,33
 358 265 358 265 388.5 251.5 c 128,-1,34
 419 238 419 238 438 211 c 128,-1,35
 457 184 457 184 457 146 c 0,36,37
 457 -10 457 -10 248 -10 c 0,38,39
 192 -10 192 -10 150 4.5 c 128,-1,40
 108 19 108 19 86.5 42 c 0,41,42
 45 86.3953488372 45 86.3953488372 45 132 c 1,43,-1
 46 157 l 1,0,-1
EndSplineSet
EndChar

StartChar: sacute
Encoding: 347 347 176
Width: 534
GlyphClass: 2
Flags: MW
HStem: -10 46<210 307.5> 241.44 45.37 475 46<189.5 317> 575 145<216 377 216 377>
VStem: 45 50<108.5 141.5> 60 51<314.5 395.5 314.5 419.5> 394 51<380 382 382 393.5> 406 51<107 214.5>
AnchorPoint: "Bottom" 267 0 basechar 0
LayerCount: 2
Fore
SplineSet
312 720 m 1,0,-1
 377 720 l 1,1,-1
 377 717 l 1,2,-1
 266 575 l 1,3,-1
 216 575 l 1,4,-1
 312 720 l 1,0,-1
46 157 m 1,5,-1
 96 157 l 1,6,7
 95 152 95 152 95 143 c 0,8,9
 95 92 95 92 139.5 64 c 128,-1,10
 184 36 184 36 257 36 c 128,-1,11
 330 36 330 36 368 63.5 c 128,-1,12
 406 91 406 91 406 132 c 128,-1,13
 406 173 406 173 380.5 195.5 c 128,-1,14
 355 218 355 218 316.5 226 c 128,-1,15
 278 234 278 234 233 244.5 c 128,-1,16
 188 255 188 255 149.5 266 c 128,-1,17
 111 277 111 277 85.5 306.5 c 128,-1,18
 60 336 60 336 60 381 c 0,19,20
 60 443 60 443 110 482 c 128,-1,21
 160 521 160 521 255.5 521 c 128,-1,22
 351 521 351 521 398 478.5 c 128,-1,23
 445 436 445 436 445 383 c 1,24,-1
 444 369 l 1,25,-1
 394 369 l 1,26,-1
 394 382 l 2,27,28
 394 408.230769231 394 408.230769231 377 431.115384615 c 0,29,30
 344.4 475 344.4 475 249 475 c 0,31,32
 111 475 111 475 111 383 c 0,33,34
 111 329.836065574 111 329.836065574 179.5 308.5 c 0,35,36
 210 299 210 299 247 291.5 c 128,-1,37
 284 284 284 284 321 274.5 c 128,-1,38
 358 265 358 265 388.5 251.5 c 128,-1,39
 419 238 419 238 438 211 c 128,-1,40
 457 184 457 184 457 146 c 0,41,42
 457 -10 457 -10 248 -10 c 0,43,44
 192 -10 192 -10 150 4.5 c 128,-1,45
 108 19 108 19 86.5 42 c 0,46,47
 45 86.3953488372 45 86.3953488372 45 132 c 1,48,-1
 46 157 l 1,5,-1
EndSplineSet
EndChar

StartChar: scaron
Encoding: 353 353 177
Width: 534
GlyphClass: 2
Flags: MW
HStem: -10 46<210 307.5> 241.44 45.37 475 46<189.5 317> 575 145<92 284 92 226>
VStem: 45 50<108.5 141.5> 60 51<314.5 395.5 314.5 419.5> 394 51<380 382 382 393.5> 406 51<107 214.5>
LayerCount: 2
Fore
SplineSet
152 720 m 1,0,-1
 255 623 l 1,1,-1
 358 720 l 1,2,-1
 418 720 l 1,3,-1
 284 575 l 1,4,-1
 226 575 l 1,5,-1
 92 720 l 1,6,-1
 152 720 l 1,0,-1
46 157 m 1,7,-1
 96 157 l 1,8,9
 95 152 95 152 95 143 c 0,10,11
 95 92 95 92 139.5 64 c 128,-1,12
 184 36 184 36 257 36 c 128,-1,13
 330 36 330 36 368 63.5 c 128,-1,14
 406 91 406 91 406 132 c 128,-1,15
 406 173 406 173 380.5 195.5 c 128,-1,16
 355 218 355 218 316.5 226 c 128,-1,17
 278 234 278 234 233 244.5 c 128,-1,18
 188 255 188 255 149.5 266 c 128,-1,19
 111 277 111 277 85.5 306.5 c 128,-1,20
 60 336 60 336 60 381 c 0,21,22
 60 443 60 443 110 482 c 128,-1,23
 160 521 160 521 255.5 521 c 128,-1,24
 351 521 351 521 398 478.5 c 128,-1,25
 445 436 445 436 445 383 c 1,26,-1
 444 369 l 1,27,-1
 394 369 l 1,28,-1
 394 382 l 2,29,30
 394 408.230769231 394 408.230769231 377 431.115384615 c 0,31,32
 344.4 475 344.4 475 249 475 c 0,33,34
 111 475 111 475 111 383 c 0,35,36
 111 329.836065574 111 329.836065574 179.5 308.5 c 0,37,38
 210 299 210 299 247 291.5 c 128,-1,39
 284 284 284 284 321 274.5 c 128,-1,40
 358 265 358 265 388.5 251.5 c 128,-1,41
 419 238 419 238 438 211 c 128,-1,42
 457 184 457 184 457 146 c 0,43,44
 457 -10 457 -10 248 -10 c 0,45,46
 192 -10 192 -10 150 4.5 c 128,-1,47
 108 19 108 19 86.5 42 c 0,48,49
 45 86.3953488372 45 86.3953488372 45 132 c 1,50,-1
 46 157 l 1,7,-1
EndSplineSet
EndChar

StartChar: scedilla
Encoding: 351 351 178
Width: 534
GlyphClass: 2
Flags: MW
HStem: -197 46<234.5 256.5 221.5 270> -184 21G<169 169> -51 34<234 256 234 259> -10 46<210 307.5> 241.44 45.37 475 46<189.5 317>
VStem: 45 50<108.5 141.5> 60 51<314.5 395.5 314.5 419.5> 314 51<-118.5 -81.5> 394 51<380 382 382 393.5> 406 51<107 214.5>
AnchorPoint: "Bottom" 267 0 basechar 0
LayerCount: 2
Fore
SplineSet
46 157 m 1,0,-1
 96 157 l 1,1,2
 95 152 95 152 95 143 c 0,3,4
 95 92 95 92 139.5 64 c 128,-1,5
 184 36 184 36 257 36 c 128,-1,6
 330 36 330 36 368 63.5 c 128,-1,7
 406 91 406 91 406 132 c 128,-1,8
 406 173 406 173 380.5 195.5 c 128,-1,9
 355 218 355 218 316.5 226 c 128,-1,10
 278 234 278 234 233 244.5 c 128,-1,11
 188 255 188 255 149.5 266 c 128,-1,12
 111 277 111 277 85.5 306.5 c 128,-1,13
 60 336 60 336 60 381 c 0,14,15
 60 443 60 443 110 482 c 128,-1,16
 160 521 160 521 255.5 521 c 128,-1,17
 351 521 351 521 398 478.5 c 128,-1,18
 445 436 445 436 445 383 c 1,19,-1
 444 369 l 1,20,-1
 394 369 l 1,21,-1
 394 382 l 2,22,23
 394 408.230769231 394 408.230769231 377 431.115384615 c 0,24,25
 344.4 475 344.4 475 249 475 c 0,26,27
 111 475 111 475 111 383 c 0,28,29
 111 329.836065574 111 329.836065574 179.5 308.5 c 0,30,31
 210 299 210 299 247 291.5 c 128,-1,32
 284 284 284 284 321 274.5 c 128,-1,33
 358 265 358 265 388.5 251.5 c 128,-1,34
 419 238 419 238 438 211 c 128,-1,35
 457 184 457 184 457 146 c 0,36,37
 457 -10 457 -10 248 -10 c 0,38,39
 192 -10 192 -10 150 4.5 c 128,-1,40
 108 19 108 19 86.5 42 c 0,41,42
 45 86.3953488372 45 86.3953488372 45 132 c 1,43,-1
 46 157 l 1,0,-1
169 -184 m 1,44,-1
 169 -138 l 1,45,46
 193 -151 193 -151 238 -151 c 0,47,48
 314 -151 314 -151 314 -97 c 0,49,50
 314 -75 314 -75 296.5 -63 c 128,-1,51
 279 -51 279 -51 256 -51 c 2,52,-1
 234 -51 l 1,53,-1
 234 -17 l 1,54,-1
 259 -17 l 2,55,56
 365 -17 365 -17 365 -106 c 0,57,58
 365 -155 365 -155 328.5 -176 c 128,-1,59
 292 -197 292 -197 248 -197 c 128,-1,60
 204 -197 204 -197 169 -184 c 1,44,-1
EndSplineSet
EndChar

StartChar: scommaaccent
Encoding: 537 537 179
Width: 534
GlyphClass: 2
Flags: MW
HStem: -149 69<233 257 233 298> -10 46<210 307.5> 241.44 45.37 475 46<189.5 317>
VStem: 45 50<108.5 141.5> 60 51<314.5 395.5 314.5 419.5> 233 65<-138 -80 -138 -80 -138 -80> 394 51<380 382 382 393.5> 406 51<107 214.5>
AnchorPoint: "Bottom" 267 0 basechar 0
LayerCount: 2
Fore
SplineSet
46 157 m 1,0,-1
 96 157 l 1,1,2
 95 152 95 152 95 143 c 0,3,4
 95 92 95 92 139.5 64 c 128,-1,5
 184 36 184 36 257 36 c 128,-1,6
 330 36 330 36 368 63.5 c 128,-1,7
 406 91 406 91 406 132 c 128,-1,8
 406 173 406 173 380.5 195.5 c 128,-1,9
 355 218 355 218 316.5 226 c 128,-1,10
 278 234 278 234 233 244.5 c 128,-1,11
 188 255 188 255 149.5 266 c 128,-1,12
 111 277 111 277 85.5 306.5 c 128,-1,13
 60 336 60 336 60 381 c 0,14,15
 60 443 60 443 110 482 c 128,-1,16
 160 521 160 521 255.5 521 c 128,-1,17
 351 521 351 521 398 478.5 c 128,-1,18
 445 436 445 436 445 383 c 1,19,-1
 444 369 l 1,20,-1
 394 369 l 1,21,-1
 394 382 l 2,22,23
 394 408.230769231 394 408.230769231 377 431.115384615 c 0,24,25
 344.4 475 344.4 475 249 475 c 0,26,27
 111 475 111 475 111 383 c 0,28,29
 111 329.836065574 111 329.836065574 179.5 308.5 c 0,30,31
 210 299 210 299 247 291.5 c 128,-1,32
 284 284 284 284 321 274.5 c 128,-1,33
 358 265 358 265 388.5 251.5 c 128,-1,34
 419 238 419 238 438 211 c 128,-1,35
 457 184 457 184 457 146 c 0,36,37
 457 -10 457 -10 248 -10 c 0,38,39
 192 -10 192 -10 150 4.5 c 128,-1,40
 108 19 108 19 86.5 42 c 0,41,42
 45 86.3953488372 45 86.3953488372 45 132 c 1,43,-1
 46 157 l 1,0,-1
268 -250 m 1,44,-1
 234 -250 l 1,45,-1
 257 -149 l 1,46,-1
 233 -149 l 1,47,-1
 233 -80 l 1,48,-1
 298 -80 l 1,49,-1
 298 -138 l 1,50,-1
 268 -250 l 1,44,-1
EndSplineSet
EndChar

StartChar: germandbls
Encoding: 223 223 180
Width: 614
GlyphClass: 2
Flags: MW
HStem: 0 46<224 316 224 316> 361 46<224 305 305 316 224 305> 465 46<46 102 46 102> 682 46<265 358>
VStem: 102 51<-66 465 465 465 511 514 -66 577> 458 51<510.5 582> 480 51<159.5 243 146.5 246.5>
LayerCount: 2
Fore
SplineSet
407 388 m 1,0,-1
 409 385 l 1,1,2
 462 365 462 365 496.5 314 c 128,-1,3
 531 263 531 263 531 203 c 0,4,5
 531 118 531 118 468 59 c 128,-1,6
 405 0 405 0 316 0 c 2,7,-1
 224 0 l 1,8,-1
 224 46 l 1,9,-1
 316 46 l 2,10,11
 384 46 384 46 432 92 c 128,-1,12
 480 138 480 138 480 203 c 128,-1,13
 480 268 480 268 432 314.5 c 128,-1,14
 384 361 384 361 316 361 c 2,15,-1
 224 361 l 1,16,-1
 224 407 l 1,17,-1
 305 407 l 2,18,19
 368 407 368 407 413 447 c 128,-1,20
 458 487 458 487 458 544.5 c 0,21,22
 458 602 458 602 418 642 c 128,-1,23
 378 682 378 682 309.5 682 c 0,24,25
 241 682 241 682 197 636 c 128,-1,26
 153 590 153 590 153 514 c 2,27,-1
 153 -66 l 1,28,-1
 102 -66 l 1,29,-1
 102 465 l 1,30,-1
 46 465 l 1,31,-1
 46 511 l 1,32,-1
 102 511 l 1,33,34
 102 609 102 609 161 668.5 c 128,-1,35
 220 728 220 728 309.5 728 c 0,36,37
 399 728 399 728 454 675 c 128,-1,38
 509 622 509 622 509 544 c 0,39,40
 509 494 509 494 479.5 449.5 c 128,-1,41
 450 405 450 405 407 388 c 1,0,-1
EndSplineSet
EndChar

StartChar: t
Encoding: 116 116 181
Width: 346
GlyphClass: 2
Flags: MW
HStem: -10 46<193 213.5> 465 46<43 99 43 99 150 269>
VStem: 99 51<101 103 103 465>
AnchorPoint: "Bottom" 173 0 basechar 0
LayerCount: 2
Fore
SplineSet
269 52 m 1,0,-1
 269 7 l 1,1,2
 240 -10 240 -10 197 -10 c 0,3,4
 154 -10 154 -10 126.5 18 c 128,-1,5
 99 46 99 46 99 101 c 2,6,-1
 99 465 l 1,7,-1
 43 465 l 1,8,-1
 43 511 l 1,9,-1
 99 511 l 1,10,-1
 117 674 l 1,11,-1
 150 674 l 1,12,-1
 150 511 l 1,13,-1
 269 511 l 1,14,-1
 269 465 l 1,15,-1
 150 465 l 1,16,-1
 150 103 l 2,17,18
 150 63 150 63 165.5 49.5 c 128,-1,19
 181 36 181 36 206.5 36 c 0,20,21
 232 36 232 36 269 52 c 1,0,-1
EndSplineSet
EndChar

StartChar: tcaron
Encoding: 357 357 182
Width: 346
GlyphClass: 2
Flags: MW
HStem: -10 46<193 213.5> 465 46<43 99 43 99 150 269> 496 20G<303 337 303 303.5> 516 170<303 337 303 303.5> 617 69<302 326 302 367>
VStem: 99 51<101 103 103 465> 302 65<628 686 628 686 628 686>
AnchorPoint: "Bottom" 173 0 basechar 0
LayerCount: 2
Fore
SplineSet
337 516 m 1,0,-1
 303 516 l 1,1,-1
 326 617 l 1,2,-1
 302 617 l 1,3,-1
 302 686 l 1,4,-1
 367 686 l 1,5,-1
 367 628 l 1,6,-1
 337 516 l 1,0,-1
269 52 m 1,7,-1
 269 7 l 1,8,9
 240 -10 240 -10 197 -10 c 0,10,11
 154 -10 154 -10 126.5 18 c 128,-1,12
 99 46 99 46 99 101 c 2,13,-1
 99 465 l 1,14,-1
 43 465 l 1,15,-1
 43 511 l 1,16,-1
 99 511 l 1,17,-1
 117 674 l 1,18,-1
 150 674 l 1,19,-1
 150 511 l 1,20,-1
 269 511 l 1,21,-1
 269 465 l 1,22,-1
 150 465 l 1,23,-1
 150 103 l 2,24,25
 150 63 150 63 165.5 49.5 c 128,-1,26
 181 36 181 36 206.5 36 c 0,27,28
 232 36 232 36 269 52 c 1,7,-1
EndSplineSet
EndChar

StartChar: tcedilla
Encoding: 355 355 183
Width: 346
GlyphClass: 2
Flags: MW
HStem: -197 46<140.5 162.5 127.5 176> -184 21G<75 75> -51 34<140 162 140 165> -10 46<193 213.5> 465 46<43 99 43 99 150 269>
VStem: 99 51<101 103 103 465> 220 51<-118.5 -81.5>
AnchorPoint: "Bottom" 173 0 basechar 0
LayerCount: 2
Fore
SplineSet
269 52 m 1,0,-1
 269 7 l 1,1,2
 240 -10 240 -10 197 -10 c 0,3,4
 154 -10 154 -10 126.5 18 c 128,-1,5
 99 46 99 46 99 101 c 2,6,-1
 99 465 l 1,7,-1
 43 465 l 1,8,-1
 43 511 l 1,9,-1
 99 511 l 1,10,-1
 117 674 l 1,11,-1
 150 674 l 1,12,-1
 150 511 l 1,13,-1
 269 511 l 1,14,-1
 269 465 l 1,15,-1
 150 465 l 1,16,-1
 150 103 l 2,17,18
 150 63 150 63 165.5 49.5 c 128,-1,19
 181 36 181 36 206.5 36 c 0,20,21
 232 36 232 36 269 52 c 1,0,-1
75 -184 m 1,22,-1
 75 -138 l 1,23,24
 99 -151 99 -151 144 -151 c 0,25,26
 220 -151 220 -151 220 -97 c 0,27,28
 220 -75 220 -75 202.5 -63 c 128,-1,29
 185 -51 185 -51 162 -51 c 2,30,-1
 140 -51 l 1,31,-1
 140 -17 l 1,32,-1
 165 -17 l 2,33,34
 271 -17 271 -17 271 -106 c 0,35,36
 271 -155 271 -155 234.5 -176 c 128,-1,37
 198 -197 198 -197 154 -197 c 0,38,39
 110 -197 110 -197 75 -184 c 1,22,-1
EndSplineSet
EndChar

StartChar: tcommaaccent
Encoding: 539 539 184
Width: 346
GlyphClass: 2
Flags: MW
HStem: -149 69<139 163 139 204> -10 46<193 213.5> 465 46<43 99 43 99 150 269>
VStem: 99 51<101 103 103 465> 139 65<-138 -80 -138 -80 -138 -80>
AnchorPoint: "Bottom" 173 0 basechar 0
LayerCount: 2
Fore
SplineSet
269 52 m 1,0,-1
 269 7 l 1,1,2
 240 -10 240 -10 197 -10 c 0,3,4
 154 -10 154 -10 126.5 18 c 128,-1,5
 99 46 99 46 99 101 c 2,6,-1
 99 465 l 1,7,-1
 43 465 l 1,8,-1
 43 511 l 1,9,-1
 99 511 l 1,10,-1
 117 674 l 1,11,-1
 150 674 l 1,12,-1
 150 511 l 1,13,-1
 269 511 l 1,14,-1
 269 465 l 1,15,-1
 150 465 l 1,16,-1
 150 103 l 2,17,18
 150 63 150 63 165.5 49.5 c 128,-1,19
 181 36 181 36 206.5 36 c 0,20,21
 232 36 232 36 269 52 c 1,0,-1
174 -250 m 1,22,-1
 140 -250 l 1,23,-1
 163 -149 l 1,24,-1
 139 -149 l 1,25,-1
 139 -80 l 1,26,-1
 204 -80 l 1,27,-1
 204 -138 l 1,28,-1
 174 -250 l 1,22,-1
EndSplineSet
EndChar

StartChar: u
Encoding: 117 117 185
Width: 618
GlyphClass: 2
Flags: MW
HStem: -10 46<228 298.5 500.5 506> 491 20G<78 129 129 129 430 481 481 481>
VStem: 78 51<182 197 197 511> 430 51<57 69 69 76 197 511>
LayerCount: 2
Fore
SplineSet
430 76 m 1,0,1
 404 36 404 36 360 13 c 128,-1,2
 316 -10 316 -10 265 -10 c 0,3,4
 181 -10 181 -10 129.5 38 c 128,-1,5
 78 86 78 86 78 182 c 2,6,-1
 78 511 l 1,7,-1
 129 511 l 1,8,-1
 129 197 l 2,9,10
 129 36 129 36 273 36 c 0,11,12
 340 36 340 36 385 82 c 128,-1,13
 430 128 430 128 430 197 c 2,14,-1
 430 511 l 1,15,-1
 481 511 l 1,16,-1
 481 69 l 2,17,18
 481 36 481 36 508 36 c 0,19,20
 531 36 531 36 558 52 c 1,21,-1
 558 9 l 1,22,23
 530 -10 530 -10 495 -10 c 0,24,25
 460 -10 460 -10 445 15.5 c 128,-1,26
 430 41 430 41 430 76 c 1,0,1
EndSplineSet
EndChar

StartChar: uacute
Encoding: 250 250 186
Width: 618
GlyphClass: 2
Flags: MW
HStem: -10 46<228 298.5 500.5 506> 491 20G<78 129 129 129 430 481 481 481> 575 145<257 418 257 418>
VStem: 78 51<182 197 197 511> 430 51<57 69 69 76 197 511>
LayerCount: 2
Fore
SplineSet
353 720 m 1,0,-1
 418 720 l 1,1,-1
 418 717 l 1,2,-1
 307 575 l 1,3,-1
 257 575 l 1,4,-1
 353 720 l 1,0,-1
430 76 m 1,5,6
 404 36 404 36 360 13 c 128,-1,7
 316 -10 316 -10 265 -10 c 0,8,9
 181 -10 181 -10 129.5 38 c 128,-1,10
 78 86 78 86 78 182 c 2,11,-1
 78 511 l 1,12,-1
 129 511 l 1,13,-1
 129 197 l 2,14,15
 129 36 129 36 273 36 c 0,16,17
 340 36 340 36 385 82 c 128,-1,18
 430 128 430 128 430 197 c 2,19,-1
 430 511 l 1,20,-1
 481 511 l 1,21,-1
 481 69 l 2,22,23
 481 36 481 36 508 36 c 0,24,25
 531 36 531 36 558 52 c 1,26,-1
 558 9 l 1,27,28
 530 -10 530 -10 495 -10 c 0,29,30
 460 -10 460 -10 445 15.5 c 128,-1,31
 430 41 430 41 430 76 c 1,5,6
EndSplineSet
EndChar

StartChar: ucircumflex
Encoding: 251 251 187
Width: 618
GlyphClass: 2
Flags: MW
HStem: -10 46<228 298.5 500.5 506> 491 20G<78 129 129 129 430 481 481 481> 575 145<117 309 117 309 251 443 251 383>
VStem: 78 51<182 197 197 511> 430 51<57 69 69 76 197 511>
LayerCount: 2
Fore
SplineSet
309 720 m 1,0,-1
 443 575 l 1,1,-1
 383 575 l 1,2,-1
 280 672 l 1,3,-1
 177 575 l 1,4,-1
 117 575 l 1,5,-1
 251 720 l 1,6,-1
 309 720 l 1,0,-1
430 76 m 1,7,8
 404 36 404 36 360 13 c 128,-1,9
 316 -10 316 -10 265 -10 c 0,10,11
 181 -10 181 -10 129.5 38 c 128,-1,12
 78 86 78 86 78 182 c 2,13,-1
 78 511 l 1,14,-1
 129 511 l 1,15,-1
 129 197 l 2,16,17
 129 36 129 36 273 36 c 0,18,19
 340 36 340 36 385 82 c 128,-1,20
 430 128 430 128 430 197 c 2,21,-1
 430 511 l 1,22,-1
 481 511 l 1,23,-1
 481 69 l 2,24,25
 481 36 481 36 508 36 c 0,26,27
 531 36 531 36 558 52 c 1,28,-1
 558 9 l 1,29,30
 530 -10 530 -10 495 -10 c 0,31,32
 460 -10 460 -10 445 15.5 c 128,-1,33
 430 41 430 41 430 76 c 1,7,8
EndSplineSet
EndChar

StartChar: udieresis
Encoding: 252 252 188
Width: 618
GlyphClass: 2
Flags: MW
HStem: -10 46<228 298.5 500.5 506> 491 20G<78 129 129 129 430 481 481 481> 651 69<156 221 156 221 332 397>
VStem: 78 51<182 197 197 511> 156 65<651 720 651 720> 332 65<651 720 651 720> 430 51<57 69 69 76 197 511>
LayerCount: 2
Fore
SplineSet
221 720 m 1,0,-1
 221 651 l 1,1,-1
 156 651 l 1,2,-1
 156 720 l 1,3,-1
 221 720 l 1,0,-1
397 720 m 1,4,-1
 397 651 l 1,5,-1
 332 651 l 1,6,-1
 332 720 l 1,7,-1
 397 720 l 1,4,-1
430 76 m 1,8,9
 404 36 404 36 360 13 c 128,-1,10
 316 -10 316 -10 265 -10 c 0,11,12
 181 -10 181 -10 129.5 38 c 128,-1,13
 78 86 78 86 78 182 c 2,14,-1
 78 511 l 1,15,-1
 129 511 l 1,16,-1
 129 197 l 2,17,18
 129 36 129 36 273 36 c 0,19,20
 340 36 340 36 385 82 c 128,-1,21
 430 128 430 128 430 197 c 2,22,-1
 430 511 l 1,23,-1
 481 511 l 1,24,-1
 481 69 l 2,25,26
 481 36 481 36 508 36 c 0,27,28
 531 36 531 36 558 52 c 1,29,-1
 558 9 l 1,30,31
 530 -10 530 -10 495 -10 c 0,32,33
 460 -10 460 -10 445 15.5 c 128,-1,34
 430 41 430 41 430 76 c 1,8,9
EndSplineSet
EndChar

StartChar: ugrave
Encoding: 249 249 189
Width: 618
GlyphClass: 2
Flags: MW
HStem: -10 46<228 298.5 500.5 506> 491 20G<78 129 129 129 430 481 481 481> 575 145<151 312 151 262>
VStem: 78 51<182 197 197 511> 430 51<57 69 69 76 197 511>
LayerCount: 2
Fore
SplineSet
151 717 m 1,0,-1
 151 720 l 1,1,-1
 216 720 l 1,2,-1
 312 575 l 1,3,-1
 262 575 l 1,4,-1
 151 717 l 1,0,-1
430 76 m 1,5,6
 404 36 404 36 360 13 c 128,-1,7
 316 -10 316 -10 265 -10 c 0,8,9
 181 -10 181 -10 129.5 38 c 128,-1,10
 78 86 78 86 78 182 c 2,11,-1
 78 511 l 1,12,-1
 129 511 l 1,13,-1
 129 197 l 2,14,15
 129 36 129 36 273 36 c 0,16,17
 340 36 340 36 385 82 c 128,-1,18
 430 128 430 128 430 197 c 2,19,-1
 430 511 l 1,20,-1
 481 511 l 1,21,-1
 481 69 l 2,22,23
 481 36 481 36 508 36 c 0,24,25
 531 36 531 36 558 52 c 1,26,-1
 558 9 l 1,27,28
 530 -10 530 -10 495 -10 c 0,29,30
 460 -10 460 -10 445 15.5 c 128,-1,31
 430 41 430 41 430 76 c 1,5,6
EndSplineSet
EndChar

StartChar: uhungarumlaut
Encoding: 369 369 190
Width: 618
GlyphClass: 2
Flags: MW
HStem: -10 46<228 298.5 500.5 506> 491 20G<78 129 129 129 430 481 481 481> 575 145<197 357 197 357 322 322 322 357 293 372>
VStem: 78 51<182 197 197 511> 430 51<57 69 69 76 197 511>
LayerCount: 2
Fore
SplineSet
293 720 m 1,0,-1
 357 720 l 1,1,-1
 358 717 l 1,2,-1
 247 575 l 1,3,-1
 197 575 l 1,4,-1
 293 720 l 1,0,-1
418 720 m 1,5,-1
 482 720 l 1,6,-1
 483 717 l 1,7,-1
 372 575 l 1,8,-1
 322 575 l 1,9,-1
 418 720 l 1,5,-1
430 76 m 1,10,11
 404 36 404 36 360 13 c 128,-1,12
 316 -10 316 -10 265 -10 c 0,13,14
 181 -10 181 -10 129.5 38 c 128,-1,15
 78 86 78 86 78 182 c 2,16,-1
 78 511 l 1,17,-1
 129 511 l 1,18,-1
 129 197 l 2,19,20
 129 36 129 36 273 36 c 0,21,22
 340 36 340 36 385 82 c 128,-1,23
 430 128 430 128 430 197 c 2,24,-1
 430 511 l 1,25,-1
 481 511 l 1,26,-1
 481 69 l 2,27,28
 481 36 481 36 508 36 c 0,29,30
 531 36 531 36 558 52 c 1,31,-1
 558 9 l 1,32,33
 530 -10 530 -10 495 -10 c 0,34,35
 460 -10 460 -10 445 15.5 c 128,-1,36
 430 41 430 41 430 76 c 1,10,11
EndSplineSet
EndChar

StartChar: umacron
Encoding: 363 363 191
Width: 618
GlyphClass: 2
Flags: MW
HStem: -10 46<228 298.5 500.5 506> 491 20G<78 129 129 129 430 481 481 481> 692 44<121 439 121 439>
VStem: 78 51<182 197 197 511> 430 51<57 69 69 76 197 511>
LayerCount: 2
Fore
SplineSet
121 736 m 1,0,-1
 439 736 l 1,1,-1
 439 692 l 1,2,-1
 121 692 l 1,3,-1
 121 736 l 1,0,-1
430 76 m 1,4,5
 404 36 404 36 360 13 c 128,-1,6
 316 -10 316 -10 265 -10 c 0,7,8
 181 -10 181 -10 129.5 38 c 128,-1,9
 78 86 78 86 78 182 c 2,10,-1
 78 511 l 1,11,-1
 129 511 l 1,12,-1
 129 197 l 2,13,14
 129 36 129 36 273 36 c 0,15,16
 340 36 340 36 385 82 c 128,-1,17
 430 128 430 128 430 197 c 2,18,-1
 430 511 l 1,19,-1
 481 511 l 1,20,-1
 481 69 l 2,21,22
 481 36 481 36 508 36 c 0,23,24
 531 36 531 36 558 52 c 1,25,-1
 558 9 l 1,26,27
 530 -10 530 -10 495 -10 c 0,28,29
 460 -10 460 -10 445 15.5 c 128,-1,30
 430 41 430 41 430 76 c 1,4,5
EndSplineSet
EndChar

StartChar: uogonek
Encoding: 371 371 192
Width: 618
GlyphClass: 2
Flags: MW
HStem: -143 43<540.5 561.5> -10 46<228 298.5> 0 21G<542 554 554 554> 491 20G<78 129 129 129 430 481 481 481>
VStem: 78 51<182 197 197 511> 430 51<57 69 69 76 197 511> 450 57<-75.5 -58>
LayerCount: 2
Fore
SplineSet
554 0 m 1,0,1
 507 -31.3333333333 507 -31.3333333333 507 -60 c 0,2,3
 507 -100 507 -100 551 -100 c 0,4,5
 576 -100 576 -100 618 -86 c 1,6,-1
 631 -119 l 1,7,8
 592 -143 592 -143 549.5 -143 c 128,-1,9
 507 -143 507 -143 478.5 -126 c 128,-1,10
 450 -109 450 -109 450 -74.5 c 128,-1,11
 450 -40 450 -40 490 -10 c 1,12,13
 458 -8 458 -8 444 17 c 128,-1,14
 430 42 430 42 430 76 c 1,15,16
 404 36 404 36 360 13 c 128,-1,17
 316 -10 316 -10 265 -10 c 0,18,19
 181 -10 181 -10 129.5 38 c 128,-1,20
 78 86 78 86 78 182 c 2,21,-1
 78 511 l 1,22,-1
 129 511 l 1,23,-1
 129 197 l 2,24,25
 129 36 129 36 273 36 c 0,26,27
 340 36 340 36 385 82 c 128,-1,28
 430 128 430 128 430 197 c 2,29,-1
 430 511 l 1,30,-1
 481 511 l 1,31,-1
 481 69 l 2,32,33
 481 36 481 36 508 36 c 0,34,35
 531 36 531 36 558 52 c 1,36,-1
 558 9 l 1,37,38
 544 2 544 2 542 0 c 1,39,-1
 554 0 l 1,0,1
EndSplineSet
EndChar

StartChar: uring
Encoding: 367 367 193
Width: 618
GlyphClass: 2
Flags: MW
HStem: -10 46<228 298.5 500.5 506> 491 20G<78 129 129 129 430 481 481 481> 545 36<262.5 298 262.5 308> 710 36<262 297.5>
VStem: 78 51<182 197 197 511> 179 36<627 663 627 673> 345 36<627.5 663.5> 430 51<57 69 69 76 197 511>
LayerCount: 2
Fore
SplineSet
351.5 716.5 m 128,-1,1
 381 687 381 687 381 645.5 c 128,-1,2
 381 604 381 604 351.5 574.5 c 128,-1,3
 322 545 322 545 280 545 c 128,-1,4
 238 545 238 545 208.5 574 c 128,-1,5
 179 603 179 603 179 645 c 128,-1,6
 179 687 179 687 208.5 716.5 c 128,-1,7
 238 746 238 746 280 746 c 128,-1,0
 322 746 322 746 351.5 716.5 c 128,-1,1
326 600 m 128,-1,9
 345 619 345 619 345 645.5 c 128,-1,10
 345 672 345 672 326 691 c 128,-1,11
 307 710 307 710 280 710 c 128,-1,12
 253 710 253 710 234 691 c 128,-1,13
 215 672 215 672 215 645 c 128,-1,14
 215 618 215 618 234 599.5 c 128,-1,15
 253 581 253 581 280 581 c 128,-1,8
 307 581 307 581 326 600 c 128,-1,9
430 76 m 1,16,17
 404 36 404 36 360 13 c 128,-1,18
 316 -10 316 -10 265 -10 c 0,19,20
 181 -10 181 -10 129.5 38 c 128,-1,21
 78 86 78 86 78 182 c 2,22,-1
 78 511 l 1,23,-1
 129 511 l 1,24,-1
 129 197 l 2,25,26
 129 36 129 36 273 36 c 0,27,28
 340 36 340 36 385 82 c 128,-1,29
 430 128 430 128 430 197 c 2,30,-1
 430 511 l 1,31,-1
 481 511 l 1,32,-1
 481 69 l 2,33,34
 481 36 481 36 508 36 c 0,35,36
 531 36 531 36 558 52 c 1,37,-1
 558 9 l 1,38,39
 530 -10 530 -10 495 -10 c 128,-1,40
 460 -10 460 -10 445 15.5 c 128,-1,41
 430 41 430 41 430 76 c 1,16,17
EndSplineSet
EndChar

StartChar: v
Encoding: 118 118 194
Width: 512
GlyphClass: 2
Flags: MW
HStem: 0 21G<218 218 218 263> 0 74<218 244 242 244 242 263> 491 20G<12 67 67 67 420 470 470 470>
VStem: 12 458<511 511>
LayerCount: 2
Fore
SplineSet
218 0 m 1,0,-1
 12 511 l 1,1,-1
 67 511 l 1,2,-1
 242 74 l 1,3,-1
 244 74 l 1,4,-1
 420 511 l 1,5,-1
 470 511 l 1,6,-1
 263 0 l 1,7,-1
 218 0 l 1,0,-1
EndSplineSet
EndChar

